<svg xmlns="http://www.w3.org/2000/svg" xmlns:xlink="http://www.w3.org/1999/xlink" version="1.1" viewBox="0 0 2475 1739" style="background: #ffffff"><g id="v-3"  transform="matrix(1,0,0,1,0,0)"><g id="j_113"    transform="translate(20,1694)"><g id="v-2177"><text  id="v-2178" font-size="22px" y="0.8em" xml:space="preserve" font-weight="normal" text-anchor="start" fill="#aaaaaa" pointer-events="none" font-family="Open Sans" transform="matrix(1,0,0,1,0,0)" display="none"><tspan id="v-2179"  dy="0em" x="0">Monday, 14 November 2022 at 09:32 Greenwich Mean Time</tspan></text></g></g><g id="j_112"    transform="translate(20,1648)"><g id="v-2173"><text  id="v-2174" font-size="36px" y="0.8em" xml:space="preserve" font-weight="normal" text-anchor="start" fill="#000000" pointer-events="none" font-family="Open Sans" transform="matrix(1,0,0,1,0,0)" display="none"><tspan id="v-2175"  dy="0em" x="0">[System Context] OpenChat</tspan></text></g></g><g id="j_95"    transform="translate(97,649)" style=""><g  id="v-1846" style="opacity: 1;"><rect  x="0" y="160" width="400" height="240" rx="70" id="v-1848" stroke="#e60053" stroke-width="2" pointer-events="visiblePainted" fill="#ff005c"></rect><circle  cx="200" cy="88.88888888888889" r="88.88888888888889" id="v-1847" stroke="#e60053" stroke-width="2" pointer-events="visiblePainted" fill="#ff005c"></circle><line  x1="80" y1="266.6666666666667" x2="80" y2="400" id="v-1854" stroke="#e60053" stroke-width="2"></line><line  x1="320" y1="266.6666666666667" x2="320" y2="400" id="v-1855" stroke="#e60053" stroke-width="2"></line><text  id="v-1849" font-size="34px" y="0.8em" xml:space="preserve" font-weight="bold" text-anchor="middle" pointer-events="visible" font-family="Open Sans" fill="#ffffff" transform="matrix(1,0,0,1,200,220)"><tspan id="v-1856"  dy="0em" x="0">User</tspan></text><text  id="v-1850" font-size="19px" y="0.8em" xml:space="preserve" text-anchor="middle" font-family="Open Sans" fill="#ffffff" transform="matrix(1,0,0,1,200,262.5)"><tspan id="v-1857"  dy="0em" x="0">[Person]</tspan></text><text  id="v-1851" font-size="24px" y="0.8em" xml:space="preserve" text-anchor="middle" font-family="Open Sans" fill="#ffffff" transform="matrix(1,0,0,1,200,310)"><tspan id="v-1858"  dy="0em" x="0">An OpenChat user</tspan></text><text  id="v-1852" font-weight="bold" text-anchor="middle" font-family="Open Sans" fill="#ffffff" font-size="24" transform="matrix(1,0,0,1,200,371.2)" display="none"></text><image  id="v-1853"></image></g></g><g id="j_96"    transform="translate(1257,1319)" style="" ><g  id="v-1862" style="opacity: 1;"><rect  id="v-1863" rx="1" ry="1" stroke="#e6783b" stroke-width="2" pointer-events="visiblePainted" fill="#ff8541" width="450" height="300"></rect><text  id="v-1864" font-size="34" y="0.8em" xml:space="preserve" font-weight="bold" text-anchor="middle" pointer-events="visible" font-family="Open Sans" fill="#000000" transform="matrix(1,0,0,1,225,90)"><tspan id="v-1869"  dy="0em" x="0">UserGeek</tspan></text><text  id="v-1865" font-size="19" y="0.8em" xml:space="preserve" text-anchor="middle" font-family="Open Sans" fill="#000000" transform="matrix(1,0,0,1,225,132.5)"><tspan id="v-1870"  dy="0em" x="0">[Software System]</tspan></text><text  id="v-1866" font-size="24" y="0.8em" xml:space="preserve" text-anchor="middle" font-family="Open Sans" fill="#000000" transform="matrix(1,0,0,1,225,180)"><tspan id="v-1871"  dy="0em" x="0">IC based user analytics system</tspan></text><text  id="v-1867" font-weight="bold" text-anchor="middle" font-family="Open Sans" fill="#000000" font-size="24" transform="matrix(1,0,0,1,225,270)" y="0.8em" display="none" xml:space="preserve"><tspan id="v-1872"  dy="0em" x="0" style="fill-opacity: 0; stroke-opacity: 0;">-</tspan></text><image  id="v-1868"></image></g></g><g id="j_97"    transform="translate(887,704)" style="" ><g  id="v-1874" style="opacity: 1;"><rect  id="v-1875" rx="1" ry="1" stroke="#e5ad00" stroke-width="2" pointer-events="visiblePainted" fill="#fec000" width="450" height="300"></rect><text  id="v-1876" font-size="34" y="0.8em" xml:space="preserve" font-weight="bold" text-anchor="middle" pointer-events="visible" font-family="Open Sans" fill="#000000" transform="matrix(1,0,0,1,225,90)"><tspan id="v-1881"  dy="0em" x="0">OpenChat</tspan></text><text  id="v-1877" font-size="19" y="0.8em" xml:space="preserve" text-anchor="middle" font-family="Open Sans" fill="#000000" transform="matrix(1,0,0,1,225,132.5)"><tspan id="v-1882"  dy="0em" x="0">[Software System]</tspan></text><text  id="v-1878" font-size="24" y="0.8em" xml:space="preserve" text-anchor="middle" font-family="Open Sans" fill="#000000" transform="matrix(1,0,0,1,225,180)"><tspan id="v-1883"  dy="0em" x="0">OpenChat system</tspan></text><text  id="v-1879" font-weight="bold" text-anchor="middle" font-family="Open Sans" fill="#000000" font-size="24" transform="matrix(1,0,0,1,225,270)" y="0.8em" xml:space="preserve" display="none"><tspan id="v-1884"  dy="0em" x="0">+</tspan></text><image  id="v-1880"></image></g></g><g id="j_98"    transform="translate(517,119)" style="" ><g  id="v-1888" style="opacity: 1;"><rect  id="v-1889" rx="1" ry="1" stroke="#e6783b" stroke-width="2" pointer-events="visiblePainted" fill="#ff8541" width="450" height="300"></rect><text  id="v-1890" font-size="34" y="0.8em" xml:space="preserve" font-weight="bold" text-anchor="middle" pointer-events="visible" font-family="Open Sans" fill="#000000" transform="matrix(1,0,0,1,225,75)"><tspan id="v-1895"  dy="0em" x="0">IC ledgers</tspan></text><text  id="v-1891" font-size="19" y="0.8em" xml:space="preserve" text-anchor="middle" font-family="Open Sans" fill="#000000" transform="matrix(1,0,0,1,225,117.5)"><tspan id="v-1896"  dy="0em" x="0">[Software System]</tspan></text><text  id="v-1892" font-size="24" y="0.8em" xml:space="preserve" text-anchor="middle" font-family="Open Sans" fill="#000000" transform="matrix(1,0,0,1,225,165)"><tspan id="v-1897"  dy="0em" x="0">NNS and SNS accounts and</tspan><tspan id="v-1898"  dy="1.2em" x="0">transactions</tspan></text><text  id="v-1893" font-weight="bold" text-anchor="middle" font-family="Open Sans" fill="#000000" font-size="24" transform="matrix(1,0,0,1,225,270)" y="0.8em" display="none" xml:space="preserve"><tspan id="v-1899"  dy="0em" x="0" style="fill-opacity: 0; stroke-opacity: 0;">-</tspan></text><image  id="v-1894"></image></g></g><g id="j_99"    transform="translate(1257,119)" style="" ><g  id="v-1903" style="opacity: 1;"><rect  id="v-1904" rx="1" ry="1" stroke="#e6783b" stroke-width="2" pointer-events="visiblePainted" fill="#ff8541" width="450" height="300"></rect><text  id="v-1905" font-size="34" y="0.8em" xml:space="preserve" font-weight="bold" text-anchor="middle" pointer-events="visible" font-family="Open Sans" fill="#000000" transform="matrix(1,0,0,1,225,90)"><tspan id="v-1910"  dy="0em" x="0">IC governance</tspan></text><text  id="v-1906" font-size="19" y="0.8em" xml:space="preserve" text-anchor="middle" font-family="Open Sans" fill="#000000" transform="matrix(1,0,0,1,225,132.5)"><tspan id="v-1911"  dy="0em" x="0">[Software System]</tspan></text><text  id="v-1907" font-size="24" y="0.8em" xml:space="preserve" text-anchor="middle" font-family="Open Sans" fill="#000000" transform="matrix(1,0,0,1,225,180)"><tspan id="v-1912"  dy="0em" x="0">NNS and SNS neurons and proposals</tspan></text><text  id="v-1908" font-weight="bold" text-anchor="middle" font-family="Open Sans" fill="#000000" font-size="24" transform="matrix(1,0,0,1,225,270)" y="0.8em" display="none" xml:space="preserve"><tspan id="v-1913"  dy="0em" x="0" style="fill-opacity: 0; stroke-opacity: 0;">-</tspan></text><image  id="v-1909"></image></g></g><g id="j_100"    transform="translate(1927,704)" style="" ><g  id="v-1919" style="opacity: 1;"><rect  id="v-1920" rx="1" ry="1" stroke="#079dc5" stroke-width="2" pointer-events="visiblePainted" fill="#08aedb" width="450" height="300"></rect><text  id="v-1921" font-size="34" y="0.8em" xml:space="preserve" font-weight="bold" text-anchor="middle" pointer-events="visible" font-family="Open Sans" fill="#000000" transform="matrix(1,0,0,1,225,75)"><tspan id="v-1926"  dy="0em" x="0">Web push services</tspan></text><text  id="v-1922" font-size="19" y="0.8em" xml:space="preserve" text-anchor="middle" font-family="Open Sans" fill="#000000" transform="matrix(1,0,0,1,225,117.5)"><tspan id="v-1927"  dy="0em" x="0">[Software System]</tspan></text><text  id="v-1923" font-size="24" y="0.8em" xml:space="preserve" text-anchor="middle" font-family="Open Sans" fill="#000000" transform="matrix(1,0,0,1,225,165)"><tspan id="v-1928"  dy="0em" x="0">Web push notifications services</tspan><tspan id="v-1929"  dy="1.2em" x="0">hosted by most browser providers</tspan></text><text  id="v-1924" font-weight="bold" text-anchor="middle" font-family="Open Sans" fill="#000000" font-size="24" transform="matrix(1,0,0,1,225,270)" y="0.8em" display="none" xml:space="preserve"><tspan id="v-1930"  dy="0em" x="0" style="fill-opacity: 0; stroke-opacity: 0;">-</tspan></text><image  id="v-1925"></image></g></g><g id="j_101"    transform="translate(1927,254)" style="" ><g  id="v-1934" style="opacity: 1;"><rect  id="v-1935" rx="1" ry="1" stroke="#079dc5" stroke-width="2" pointer-events="visiblePainted" fill="#08aedb" width="450" height="300"></rect><text  id="v-1936" font-size="34" y="0.8em" xml:space="preserve" font-weight="bold" text-anchor="middle" pointer-events="visible" font-family="Open Sans" fill="#000000" transform="matrix(1,0,0,1,225,90)"><tspan id="v-1941"  dy="0em" x="0">SMS Service</tspan></text><text  id="v-1937" font-size="19" y="0.8em" xml:space="preserve" text-anchor="middle" font-family="Open Sans" fill="#000000" transform="matrix(1,0,0,1,225,132.5)"><tspan id="v-1942"  dy="0em" x="0">[Software System]</tspan></text><text  id="v-1938" font-size="24" y="0.8em" xml:space="preserve" text-anchor="middle" font-family="Open Sans" fill="#000000" transform="matrix(1,0,0,1,225,180)"><tspan id="v-1943"  dy="0em" x="0">AWS Simple Notification Service</tspan></text><text  id="v-1939" font-weight="bold" text-anchor="middle" font-family="Open Sans" fill="#000000" font-size="24" transform="matrix(1,0,0,1,225,270)" y="0.8em" display="none" xml:space="preserve"><tspan id="v-1944"  dy="0em" x="0" style="fill-opacity: 0; stroke-opacity: 0;">-</tspan></text><image  id="v-1940"></image></g></g><g id="j_102"    transform="translate(1927,1149)" style="" ><g  id="v-1946" style="opacity: 1;"><rect  id="v-1947" rx="1" ry="1" stroke="#079dc5" stroke-width="2" pointer-events="visiblePainted" fill="#08aedb" width="450" height="300"></rect><text  id="v-1948" font-size="34" y="0.8em" xml:space="preserve" font-weight="bold" text-anchor="middle" pointer-events="visible" font-family="Open Sans" fill="#000000" transform="matrix(1,0,0,1,225,90)"><tspan id="v-1953"  dy="0em" x="0">WebRTC</tspan></text><text  id="v-1949" font-size="19" y="0.8em" xml:space="preserve" text-anchor="middle" font-family="Open Sans" fill="#000000" transform="matrix(1,0,0,1,225,132.5)"><tspan id="v-1954"  dy="0em" x="0">[Software System]</tspan></text><text  id="v-1950" font-size="24" y="0.8em" xml:space="preserve" text-anchor="middle" font-family="Open Sans" fill="#000000" transform="matrix(1,0,0,1,225,180)"><tspan id="v-1955"  dy="0em" x="0">STUN + Signalling</tspan></text><text  id="v-1951" font-weight="bold" text-anchor="middle" font-family="Open Sans" fill="#000000" font-size="24" transform="matrix(1,0,0,1,225,270)" y="0.8em" display="none" xml:space="preserve"><tspan id="v-1956"  dy="0em" x="0" style="fill-opacity: 0; stroke-opacity: 0;">-</tspan></text><image  id="v-1952"></image></g></g><g id="j_103"    transform="translate(517,1319)" style="" ><g  id="v-1962" style="opacity: 1;"><rect  id="v-1963" rx="1" ry="1" stroke="#e6783b" stroke-width="2" pointer-events="visiblePainted" fill="#ff8541" width="450" height="300"></rect><text  id="v-1964" font-size="34" y="0.8em" xml:space="preserve" font-weight="bold" text-anchor="middle" pointer-events="visible" font-family="Open Sans" fill="#000000" transform="matrix(1,0,0,1,225,90)"><tspan id="v-1969"  dy="0em" x="0">Authentication providers</tspan></text><text  id="v-1965" font-size="19" y="0.8em" xml:space="preserve" text-anchor="middle" font-family="Open Sans" fill="#000000" transform="matrix(1,0,0,1,225,132.5)"><tspan id="v-1970"  dy="0em" x="0">[Software System]</tspan></text><text  id="v-1966" font-size="24" y="0.8em" xml:space="preserve" text-anchor="middle" font-family="Open Sans" fill="#000000" transform="matrix(1,0,0,1,225,180)"><tspan id="v-1971"  dy="0em" x="0">Internet Identity and NFID</tspan></text><text  id="v-1967" font-weight="bold" text-anchor="middle" font-family="Open Sans" fill="#000000" font-size="24" transform="matrix(1,0,0,1,225,270)" y="0.8em" display="none" xml:space="preserve"><tspan id="v-1972"  dy="0em" x="0" style="fill-opacity: 0; stroke-opacity: 0;">-</tspan></text><image  id="v-1968"></image></g></g><g id="j_104"   ><path  stroke="#707070" id="v-1993" stroke-width="2" stroke-dasharray="30 30" fill="none" d="M 1337 950 1909 1195" style="opacity: 1;"></path><path  fill="black" stroke="black" transform="translate(1337,950) scale(1,1) rotate(23.210296630859418)"></path><path  fill="#707070" stroke="#707070" id="v-1995" d="M 20 0 L 0 10 L 20 20 z" transform="translate(1923.0588971539623,1212.1906774610982) scale(1,1) rotate(-156.78968811035156)" style="opacity: 1;"></path><path  id="v-1994" fill="none" d="M 1337 950 1909 1195" style=""></path><title ></title><g ><g  id="v-1980" label-idx="0" cursor="move" transform="translate(1623, 1072.5)" style="opacity: 1;"><rect id="v-1982" fill="#ffffff" rx="3" ry="3" stroke="#ffffff" stroke-width="20px" pointer-events="none" width="105.17842102050781" height="61.59256553649902" transform="matrix(1,0,0,1,-52.6,-30.8)"></rect><text id="v-1981" font-size="24px" y="0.8em" xml:space="preserve" text-anchor="middle" pointer-events="none" fill="#707070" font-family="Open Sans" font-weight="normal" transform="matrix(1,0,0,1,0,-24.2)"><tspan id="v-1983"  dy="0em" x="0">Signals IP</tspan><tspan id="v-1984"  dy="1.2em" x="0">address</tspan></text></g><g  id="v-1985" label-idx="1" cursor="move" transform="translate(1623, 1115.7)" style="opacity: 1;"><rect id="v-1987" fill="#ffffff" rx="3" ry="3" pointer-events="none" width="0" height="0" transform="matrix(1,0,0,1,0,0)"></rect><text id="v-1986" font-size="19px" y="0.8em" display="none" xml:space="preserve" text-anchor="middle" pointer-events="none" fill="#707070" font-family="Open Sans" font-weight="normal" transform="matrix(1,0,0,1,0,0)"><tspan id="v-1988"  dy="0em" x="0" style="fill-opacity: 0; stroke-opacity: 0;">-</tspan></text></g><g  id="v-1989" label-idx="2" cursor="move" transform="translate(1623, 1139.7)" style="opacity: 1;"><rect id="v-1991" fill="#ffffff" rx="3" ry="3" pointer-events="none"  display="none" width="0" height="0" transform="matrix(1,0,0,1,0,0)"></rect><text id="v-1990" font-size="19px" y="0.8em" display="none" xml:space="preserve" text-anchor="middle" pointer-events="none" fill="#707070" font-family="Open Sans" font-weight="normal"  transform="matrix(1,0,0,1,0,0)"><tspan id="v-1992"  dy="0em" x="0" style="fill-opacity: 0; stroke-opacity: 0;">-</tspan></text></g></g><g  display="none"></g><g  id="v-1997" display="none"><g  id="v-1977"><path  end="source" d="M 26 0 L 0 13 L 26 26 z"></path></g><g  id="v-1978"><path  end="target" d="M 26 0 L 0 13 L 26 26 z"></path></g></g><g  id="v-1996" display="none"><g  id="v-1976" transform="translate(1373.7691650390625, 965.7490234375) "><g  event="remove"><circle r="11"></circle><path transform="scale(.8) translate(-16, -16)" d="M24.778,21.419 19.276,15.917 24.777,10.415 21.949,7.585 16.447,13.087 10.945,7.585 8.117,10.415 13.618,15.917 8.116,21.419 10.946,24.248 16.447,18.746 21.948,24.248z"></path><title>Remove link.</title></g><g  event="link:options"><circle r="11" transform="translate(25)"></circle><path fill="white" transform="scale(.55) translate(29, -16)" d="M31.229,17.736c0.064-0.571,0.104-1.148,0.104-1.736s-0.04-1.166-0.104-1.737l-4.377-1.557c-0.218-0.716-0.504-1.401-0.851-2.05l1.993-4.192c-0.725-0.91-1.549-1.734-2.458-2.459l-4.193,1.994c-0.647-0.347-1.334-0.632-2.049-0.849l-1.558-4.378C17.165,0.708,16.588,0.667,16,0.667s-1.166,0.041-1.737,0.105L12.707,5.15c-0.716,0.217-1.401,0.502-2.05,0.849L6.464,4.005C5.554,4.73,4.73,5.554,4.005,6.464l1.994,4.192c-0.347,0.648-0.632,1.334-0.849,2.05l-4.378,1.557C0.708,14.834,0.667,15.412,0.667,16s0.041,1.165,0.105,1.736l4.378,1.558c0.217,0.715,0.502,1.401,0.849,2.049l-1.994,4.193c0.725,0.909,1.549,1.733,2.459,2.458l4.192-1.993c0.648,0.347,1.334,0.633,2.05,0.851l1.557,4.377c0.571,0.064,1.148,0.104,1.737,0.104c0.588,0,1.165-0.04,1.736-0.104l1.558-4.377c0.715-0.218,1.399-0.504,2.049-0.851l4.193,1.993c0.909-0.725,1.733-1.549,2.458-2.458l-1.993-4.193c0.347-0.647,0.633-1.334,0.851-2.049L31.229,17.736zM16,20.871c-2.69,0-4.872-2.182-4.872-4.871c0-2.69,2.182-4.872,4.872-4.872c2.689,0,4.871,2.182,4.871,4.872C20.871,18.689,18.689,20.871,16,20.871z"></path><title>Link options.</title></g></g></g></g><g id="j_105"   ><path  stroke="#707070" id="v-2018" stroke-width="2" stroke-dasharray="30 30" fill="none" d="M 1022 1004 842 1302" style="opacity: 1;"></path><path  fill="black" stroke="black" transform="translate(1022,1004) scale(1,1) rotate(-238.90269470214844)"></path><path  fill="#707070" stroke="#707070" id="v-2020" d="M 20 0 L 0 10 L 20 20 z" transform="translate(823.4370722018579,1313.8351151622635) scale(1,1) rotate(-58.902687072753906)" style="opacity: 1;"></path><path  id="v-2019" fill="none" d="M 1022 1004 842 1302" style=""></path><title ></title><g ><g  id="v-2005" label-idx="0" cursor="move" transform="translate(932, 1153)" style="opacity: 1;"><rect id="v-2007" fill="#ffffff" rx="3" ry="3" stroke="#ffffff" stroke-width="20px" pointer-events="none" width="154.27410888671875" height="61.59256553649902" transform="matrix(1,0,0,1,-77.1,-30.8)"></rect><text id="v-2006" font-size="24px" y="0.8em" xml:space="preserve" text-anchor="middle" pointer-events="none" fill="#707070" font-family="Open Sans" font-weight="normal" transform="matrix(1,0,0,1,0,-24.2)"><tspan id="v-2008"  dy="0em" x="0">Authenticates</tspan><tspan id="v-2009"  dy="1.2em" x="0">with</tspan></text></g><g  id="v-2010" label-idx="1" cursor="move" transform="translate(932, 1196.2)" style="opacity: 1;"><rect id="v-2012" fill="#ffffff" rx="3" ry="3" pointer-events="none" width="0" height="0" transform="matrix(1,0,0,1,0,0)"></rect><text id="v-2011" font-size="19px" y="0.8em" display="none" xml:space="preserve" text-anchor="middle" pointer-events="none" fill="#707070" font-family="Open Sans" font-weight="normal" transform="matrix(1,0,0,1,0,0)"><tspan id="v-2013"  dy="0em" x="0" style="fill-opacity: 0; stroke-opacity: 0;">-</tspan></text></g><g  id="v-2014" label-idx="2" cursor="move" transform="translate(932, 1220.2)" style="opacity: 1;"><rect id="v-2016" fill="#ffffff" rx="3" ry="3" pointer-events="none"  display="none" width="0" height="0" transform="matrix(1,0,0,1,0,0)"></rect><text id="v-2015" font-size="19px" y="0.8em" display="none" xml:space="preserve" text-anchor="middle" pointer-events="none" fill="#707070" font-family="Open Sans" font-weight="normal"  transform="matrix(1,0,0,1,0,0)"><tspan id="v-2017"  dy="0em" x="0" style="fill-opacity: 0; stroke-opacity: 0;">-</tspan></text></g></g><g  display="none"></g><g  id="v-2022" display="none"><g  id="v-2002"><path  end="source" d="M 26 0 L 0 13 L 26 26 z"></path></g><g  id="v-2003"><path  end="target" d="M 26 0 L 0 13 L 26 26 z"></path></g></g><g  id="v-2021" display="none"><g  id="v-2001" transform="translate(1001.31884765625, 1038.23876953125) "><g  event="remove"><circle r="11"></circle><path transform="scale(.8) translate(-16, -16)" d="M24.778,21.419 19.276,15.917 24.777,10.415 21.949,7.585 16.447,13.087 10.945,7.585 8.117,10.415 13.618,15.917 8.116,21.419 10.946,24.248 16.447,18.746 21.948,24.248z"></path><title>Remove link.</title></g><g  event="link:options"><circle r="11" transform="translate(25)"></circle><path fill="white" transform="scale(.55) translate(29, -16)" d="M31.229,17.736c0.064-0.571,0.104-1.148,0.104-1.736s-0.04-1.166-0.104-1.737l-4.377-1.557c-0.218-0.716-0.504-1.401-0.851-2.05l1.993-4.192c-0.725-0.91-1.549-1.734-2.458-2.459l-4.193,1.994c-0.647-0.347-1.334-0.632-2.049-0.849l-1.558-4.378C17.165,0.708,16.588,0.667,16,0.667s-1.166,0.041-1.737,0.105L12.707,5.15c-0.716,0.217-1.401,0.502-2.05,0.849L6.464,4.005C5.554,4.73,4.73,5.554,4.005,6.464l1.994,4.192c-0.347,0.648-0.632,1.334-0.849,2.05l-4.378,1.557C0.708,14.834,0.667,15.412,0.667,16s0.041,1.165,0.105,1.736l4.378,1.558c0.217,0.715,0.502,1.401,0.849,2.049l-1.994,4.193c0.725,0.909,1.549,1.733,2.459,2.458l4.192-1.993c0.648,0.347,1.334,0.633,2.05,0.851l1.557,4.377c0.571,0.064,1.148,0.104,1.737,0.104c0.588,0,1.165-0.04,1.736-0.104l1.558-4.377c0.715-0.218,1.399-0.504,2.049-0.851l4.193,1.993c0.909-0.725,1.733-1.549,2.458-2.458l-1.993-4.193c0.347-0.647,0.633-1.334,0.851-2.049L31.229,17.736zM16,20.871c-2.69,0-4.872-2.182-4.872-4.871c0-2.69,2.182-4.872,4.872-4.872c2.689,0,4.871,2.182,4.871,4.872C20.871,18.689,18.689,20.871,16,20.871z"></path><title>Link options.</title></g></g></g></g><g id="j_106"   ><path  stroke="#707070" id="v-2044" stroke-width="2" fill="none" d="M 1202 1004 1382 1302" style="opacity: 1;"></path><path  fill="black" stroke="black" transform="translate(1202,1004) scale(1,1) rotate(58.902679443359375)"></path><path  fill="#707070" stroke="#707070" id="v-2046" d="M 20 0 L 0 10 L 20 20 z" transform="translate(1383.4371016346115,1324.164978579392) scale(1,1) rotate(-121.0973129272461)" style="opacity: 1;"></path><path  id="v-2045" fill="none" d="M 1202 1004 1382 1302" style=""></path><title ></title><g ><g  id="v-2030" label-idx="0" cursor="move" transform="translate(1292, 1153)" style="opacity: 1;"><rect id="v-2032" fill="#ffffff" rx="3" ry="3" stroke="#ffffff" stroke-width="20px" pointer-events="none" width="187.7187957763672" height="90.3925666809082" transform="matrix(1,0,0,1,-93.9,-45.2)"></rect><text id="v-2031" font-size="24px" y="0.8em" xml:space="preserve" text-anchor="middle" pointer-events="none" fill="#707070" font-family="Open Sans" font-weight="normal" transform="matrix(1,0,0,1,0,-38.6)"><tspan id="v-2033"  dy="0em" x="0">Sends</tspan><tspan id="v-2034"  dy="1.2em" x="0">anonymous user</tspan><tspan id="v-2035"  dy="1.2em" x="0">metrics</tspan></text></g><g  id="v-2036" label-idx="1" cursor="move" transform="translate(1292, 1210.6)" style="opacity: 1;"><rect id="v-2038" fill="#ffffff" rx="3" ry="3" pointer-events="none" width="0" height="0" transform="matrix(1,0,0,1,0,0)"></rect><text id="v-2037" font-size="19px" y="0.8em" display="none" xml:space="preserve" text-anchor="middle" pointer-events="none" fill="#707070" font-family="Open Sans" font-weight="normal" transform="matrix(1,0,0,1,0,0)"><tspan id="v-2039"  dy="0em" x="0" style="fill-opacity: 0; stroke-opacity: 0;">-</tspan></text></g><g  id="v-2040" label-idx="2" cursor="move" transform="translate(1292, 1234.6)" style="opacity: 1;"><rect id="v-2042" fill="#ffffff" rx="3" ry="3" pointer-events="none"  display="none" width="0" height="0" transform="matrix(1,0,0,1,0,0)"></rect><text id="v-2041" font-size="19px" y="0.8em" display="none" xml:space="preserve" text-anchor="middle" pointer-events="none" fill="#707070" font-family="Open Sans" font-weight="normal"  transform="matrix(1,0,0,1,0,0)"><tspan id="v-2043"  dy="0em" x="0" style="fill-opacity: 0; stroke-opacity: 0;">-</tspan></text></g></g><g  display="none"></g><g  id="v-2048" display="none"><g  id="v-2027"><path  end="source" d="M 26 0 L 0 13 L 26 26 z"></path></g><g  id="v-2028"><path  end="target" d="M 26 0 L 0 13 L 26 26 z"></path></g></g><g  id="v-2047" display="none"><g  id="v-2026" transform="translate(1222.68115234375, 1038.23876953125) "><g  event="remove"><circle r="11"></circle><path transform="scale(.8) translate(-16, -16)" d="M24.778,21.419 19.276,15.917 24.777,10.415 21.949,7.585 16.447,13.087 10.945,7.585 8.117,10.415 13.618,15.917 8.116,21.419 10.946,24.248 16.447,18.746 21.948,24.248z"></path><title>Remove link.</title></g><g  event="link:options"><circle r="11" transform="translate(25)"></circle><path fill="white" transform="scale(.55) translate(29, -16)" d="M31.229,17.736c0.064-0.571,0.104-1.148,0.104-1.736s-0.04-1.166-0.104-1.737l-4.377-1.557c-0.218-0.716-0.504-1.401-0.851-2.05l1.993-4.192c-0.725-0.91-1.549-1.734-2.458-2.459l-4.193,1.994c-0.647-0.347-1.334-0.632-2.049-0.849l-1.558-4.378C17.165,0.708,16.588,0.667,16,0.667s-1.166,0.041-1.737,0.105L12.707,5.15c-0.716,0.217-1.401,0.502-2.05,0.849L6.464,4.005C5.554,4.73,4.73,5.554,4.005,6.464l1.994,4.192c-0.347,0.648-0.632,1.334-0.849,2.05l-4.378,1.557C0.708,14.834,0.667,15.412,0.667,16s0.041,1.165,0.105,1.736l4.378,1.558c0.217,0.715,0.502,1.401,0.849,2.049l-1.994,4.193c0.725,0.909,1.549,1.733,2.459,2.458l4.192-1.993c0.648,0.347,1.334,0.633,2.05,0.851l1.557,4.377c0.571,0.064,1.148,0.104,1.737,0.104c0.588,0,1.165-0.04,1.736-0.104l1.558-4.377c0.715-0.218,1.399-0.504,2.049-0.851l4.193,1.993c0.909-0.725,1.733-1.549,2.458-2.458l-1.993-4.193c0.347-0.647,0.633-1.334,0.851-2.049L31.229,17.736zM16,20.871c-2.69,0-4.872-2.182-4.872-4.871c0-2.69,2.182-4.872,4.872-4.872c2.689,0,4.871,2.182,4.871,4.872C20.871,18.689,18.689,20.871,16,20.871z"></path><title>Link options.</title></g></g></g></g><g id="j_107"   ><path  stroke="#707070" id="v-2069" stroke-width="2" stroke-dasharray="30 30" fill="none" d="M 1207 704 1376 436" style="opacity: 1;"></path><path  fill="black" stroke="black" transform="translate(1207,704) scale(1,1) rotate(-57.7243537902832)"></path><path  fill="#707070" stroke="#707070" id="v-2071" d="M 20 0 L 0 10 L 20 20 z" transform="translate(1395.4548534342996,424.3399372778302) scale(1,1) rotate(-237.72434997558594)" style="opacity: 1;"></path><path  id="v-2070" fill="none" d="M 1207 704 1376 436" style=""></path><title ></title><g ><g  id="v-2056" label-idx="0" cursor="move" transform="translate(1291.5, 570)" style="opacity: 1;"><rect id="v-2058" fill="#ffffff" rx="3" ry="3" stroke="#ffffff" stroke-width="20px" pointer-events="none" width="184.28736877441406" height="61.59256553649902" transform="matrix(1,0,0,1,-92.1,-30.8)"></rect><text id="v-2057" font-size="24px" y="0.8em" xml:space="preserve" text-anchor="middle" pointer-events="none" fill="#707070" font-family="Open Sans" font-weight="normal" transform="matrix(1,0,0,1,0,-24.2)"><tspan id="v-2059"  dy="0em" x="0">Reads proposals</tspan><tspan id="v-2060"  dy="1.2em" x="0">and votes</tspan></text></g><g  id="v-2061" label-idx="1" cursor="move" transform="translate(1291.5, 613.2)" style="opacity: 1;"><rect id="v-2063" fill="#ffffff" rx="3" ry="3" pointer-events="none" width="0" height="0" transform="matrix(1,0,0,1,0,0)"></rect><text id="v-2062" font-size="19px" y="0.8em" display="none" xml:space="preserve" text-anchor="middle" pointer-events="none" fill="#707070" font-family="Open Sans" font-weight="normal" transform="matrix(1,0,0,1,0,0)"><tspan id="v-2064"  dy="0em" x="0" style="fill-opacity: 0; stroke-opacity: 0;">-</tspan></text></g><g  id="v-2065" label-idx="2" cursor="move" transform="translate(1291.5, 637.2)" style="opacity: 1;"><rect id="v-2067" fill="#ffffff" rx="3" ry="3" pointer-events="none"  display="none" width="0" height="0" transform="matrix(1,0,0,1,0,0)"></rect><text id="v-2066" font-size="19px" y="0.8em" display="none" xml:space="preserve" text-anchor="middle" pointer-events="none" fill="#707070" font-family="Open Sans" font-weight="normal"  transform="matrix(1,0,0,1,0,0)"><tspan id="v-2068"  dy="0em" x="0" style="fill-opacity: 0; stroke-opacity: 0;">-</tspan></text></g></g><g  display="none"></g><g  id="v-2073" display="none"><g  id="v-2053"><path  end="source" d="M 26 0 L 0 13 L 26 26 z"></path></g><g  id="v-2054"><path  end="target" d="M 26 0 L 0 13 L 26 26 z"></path></g></g><g  id="v-2072" display="none"><g  id="v-2052" transform="translate(1228.3359375, 670.1654663085938) "><g  event="remove"><circle r="11"></circle><path transform="scale(.8) translate(-16, -16)" d="M24.778,21.419 19.276,15.917 24.777,10.415 21.949,7.585 16.447,13.087 10.945,7.585 8.117,10.415 13.618,15.917 8.116,21.419 10.946,24.248 16.447,18.746 21.948,24.248z"></path><title>Remove link.</title></g><g  event="link:options"><circle r="11" transform="translate(25)"></circle><path fill="white" transform="scale(.55) translate(29, -16)" d="M31.229,17.736c0.064-0.571,0.104-1.148,0.104-1.736s-0.04-1.166-0.104-1.737l-4.377-1.557c-0.218-0.716-0.504-1.401-0.851-2.05l1.993-4.192c-0.725-0.91-1.549-1.734-2.458-2.459l-4.193,1.994c-0.647-0.347-1.334-0.632-2.049-0.849l-1.558-4.378C17.165,0.708,16.588,0.667,16,0.667s-1.166,0.041-1.737,0.105L12.707,5.15c-0.716,0.217-1.401,0.502-2.05,0.849L6.464,4.005C5.554,4.73,4.73,5.554,4.005,6.464l1.994,4.192c-0.347,0.648-0.632,1.334-0.849,2.05l-4.378,1.557C0.708,14.834,0.667,15.412,0.667,16s0.041,1.165,0.105,1.736l4.378,1.558c0.217,0.715,0.502,1.401,0.849,2.049l-1.994,4.193c0.725,0.909,1.549,1.733,2.459,2.458l4.192-1.993c0.648,0.347,1.334,0.633,2.05,0.851l1.557,4.377c0.571,0.064,1.148,0.104,1.737,0.104c0.588,0,1.165-0.04,1.736-0.104l1.558-4.377c0.715-0.218,1.399-0.504,2.049-0.851l4.193,1.993c0.909-0.725,1.733-1.549,2.458-2.458l-1.993-4.193c0.347-0.647,0.633-1.334,0.851-2.049L31.229,17.736zM16,20.871c-2.69,0-4.872-2.182-4.872-4.871c0-2.69,2.182-4.872,4.872-4.872c2.689,0,4.871,2.182,4.871,4.872C20.871,18.689,18.689,20.871,16,20.871z"></path><title>Link options.</title></g></g></g></g><g id="j_108"   ><path  stroke="#707070" id="v-2094" stroke-width="2" stroke-dasharray="30 30" fill="none" d="M 1017 704 848 436" style="opacity: 1;"></path><path  fill="black" stroke="black" transform="translate(1017,704) scale(1,1) rotate(-122.27564239501953)"></path><path  fill="#707070" stroke="#707070" id="v-2096" d="M 20 0 L 0 10 L 20 20 z" transform="translate(845.4548662006398,413.6600765944831) scale(1,1) rotate(57.724365234375)" style="opacity: 1;"></path><path  id="v-2095" fill="none" d="M 1017 704 848 436" style=""></path><title ></title><g ><g  id="v-2081" label-idx="0" cursor="move" transform="translate(932.5, 570)" style="opacity: 1;"><rect id="v-2083" fill="#ffffff" rx="3" ry="3" stroke="#ffffff" stroke-width="20px" pointer-events="none" width="196.18089294433594" height="61.59256553649902" transform="matrix(1,0,0,1,-98.1,-30.8)"></rect><text id="v-2082" font-size="24px" y="0.8em" xml:space="preserve" text-anchor="middle" pointer-events="none" fill="#707070" font-family="Open Sans" font-weight="normal" transform="matrix(1,0,0,1,0,-24.2)"><tspan id="v-2084"  dy="0em" x="0">Reads balances</tspan><tspan id="v-2085"  dy="1.2em" x="0">and sends tokens</tspan></text></g><g  id="v-2086" label-idx="1" cursor="move" transform="translate(932.5, 613.2)" style="opacity: 1;"><rect id="v-2088" fill="#ffffff" rx="3" ry="3" pointer-events="none" width="0" height="0" transform="matrix(1,0,0,1,0,0)"></rect><text id="v-2087" font-size="19px" y="0.8em" display="none" xml:space="preserve" text-anchor="middle" pointer-events="none" fill="#707070" font-family="Open Sans" font-weight="normal" transform="matrix(1,0,0,1,0,0)"><tspan id="v-2089"  dy="0em" x="0" style="fill-opacity: 0; stroke-opacity: 0;">-</tspan></text></g><g  id="v-2090" label-idx="2" cursor="move" transform="translate(932.5, 637.2)" style="opacity: 1;"><rect id="v-2092" fill="#ffffff" rx="3" ry="3" pointer-events="none"  display="none" width="0" height="0" transform="matrix(1,0,0,1,0,0)"></rect><text id="v-2091" font-size="19px" y="0.8em" display="none" xml:space="preserve" text-anchor="middle" pointer-events="none" fill="#707070" font-family="Open Sans" font-weight="normal"  transform="matrix(1,0,0,1,0,0)"><tspan id="v-2093"  dy="0em" x="0" style="fill-opacity: 0; stroke-opacity: 0;">-</tspan></text></g></g><g  display="none"></g><g  id="v-2098" display="none"><g  id="v-2078"><path  end="source" d="M 26 0 L 0 13 L 26 26 z"></path></g><g  id="v-2079"><path  end="target" d="M 26 0 L 0 13 L 26 26 z"></path></g></g><g  id="v-2097" display="none"><g  id="v-2077" transform="translate(995.6640625, 670.1654052734375) "><g  event="remove"><circle r="11"></circle><path transform="scale(.8) translate(-16, -16)" d="M24.778,21.419 19.276,15.917 24.777,10.415 21.949,7.585 16.447,13.087 10.945,7.585 8.117,10.415 13.618,15.917 8.116,21.419 10.946,24.248 16.447,18.746 21.948,24.248z"></path><title>Remove link.</title></g><g  event="link:options"><circle r="11" transform="translate(25)"></circle><path fill="white" transform="scale(.55) translate(29, -16)" d="M31.229,17.736c0.064-0.571,0.104-1.148,0.104-1.736s-0.04-1.166-0.104-1.737l-4.377-1.557c-0.218-0.716-0.504-1.401-0.851-2.05l1.993-4.192c-0.725-0.91-1.549-1.734-2.458-2.459l-4.193,1.994c-0.647-0.347-1.334-0.632-2.049-0.849l-1.558-4.378C17.165,0.708,16.588,0.667,16,0.667s-1.166,0.041-1.737,0.105L12.707,5.15c-0.716,0.217-1.401,0.502-2.05,0.849L6.464,4.005C5.554,4.73,4.73,5.554,4.005,6.464l1.994,4.192c-0.347,0.648-0.632,1.334-0.849,2.05l-4.378,1.557C0.708,14.834,0.667,15.412,0.667,16s0.041,1.165,0.105,1.736l4.378,1.558c0.217,0.715,0.502,1.401,0.849,2.049l-1.994,4.193c0.725,0.909,1.549,1.733,2.459,2.458l4.192-1.993c0.648,0.347,1.334,0.633,2.05,0.851l1.557,4.377c0.571,0.064,1.148,0.104,1.737,0.104c0.588,0,1.165-0.04,1.736-0.104l1.558-4.377c0.715-0.218,1.399-0.504,2.049-0.851l4.193,1.993c0.909-0.725,1.733-1.549,2.458-2.458l-1.993-4.193c0.347-0.647,0.633-1.334,0.851-2.049L31.229,17.736zM16,20.871c-2.69,0-4.872-2.182-4.872-4.871c0-2.69,2.182-4.872,4.872-4.872c2.689,0,4.871,2.182,4.871,4.872C20.871,18.689,18.689,20.871,16,20.871z"></path><title>Link options.</title></g></g></g></g><g id="j_109"   ><path  stroke="#707070" id="v-2116" stroke-width="2" stroke-dasharray="30 30" fill="none" d="M 1337 757 1909 509" style="opacity: 1;"></path><path  fill="black" stroke="black" transform="translate(1337,757) scale(1,1) rotate(-23.45594024658203)"></path><path  fill="#707070" stroke="#707070" id="v-2118" d="M 20 0 L 0 10 L 20 20 z" transform="translate(1930.9803950486064,510.1736669164219) scale(1,1) rotate(-203.4559326171875)" style="opacity: 1;"></path><path  id="v-2117" fill="none" d="M 1337 757 1909 509" style=""></path><title ></title><g ><g  id="v-2104" label-idx="0" cursor="move" transform="translate(1623, 633)" style="opacity: 1;"><rect id="v-2106" fill="#ffffff" rx="3" ry="3" stroke="#ffffff" stroke-width="20px" pointer-events="none" width="133.0489959716797" height="32.79256248474121" transform="matrix(1,0,0,1,-66.5,-16.4)"></rect><text id="v-2105" font-size="24px" y="0.8em" xml:space="preserve" text-anchor="middle" pointer-events="none" fill="#707070" font-family="Open Sans" font-weight="normal" transform="matrix(1,0,0,1,0,-9.8)"><tspan id="v-2107"  dy="0em" x="0">Sends SMSs</tspan></text></g><g  id="v-2108" label-idx="1" cursor="move" transform="translate(1623, 664.2)" style="opacity: 1;"><rect id="v-2110" fill="#ffffff" rx="3" ry="3" pointer-events="none" width="0" height="0" transform="matrix(1,0,0,1,0,0)"></rect><text id="v-2109" font-size="19px" y="0.8em" display="none" xml:space="preserve" text-anchor="middle" pointer-events="none" fill="#707070" font-family="Open Sans" font-weight="normal" transform="matrix(1,0,0,1,0,0)"><tspan id="v-2111"  dy="0em" x="0" style="fill-opacity: 0; stroke-opacity: 0;">-</tspan></text></g><g  id="v-2112" label-idx="2" cursor="move" transform="translate(1623, 688.2)" style="opacity: 1;"><rect id="v-2114" fill="#ffffff" rx="3" ry="3" pointer-events="none"  display="none" width="0" height="0" transform="matrix(1,0,0,1,0,0)"></rect><text id="v-2113" font-size="19px" y="0.8em" display="none" xml:space="preserve" text-anchor="middle" pointer-events="none" fill="#707070" font-family="Open Sans" font-weight="normal"  transform="matrix(1,0,0,1,0,0)"><tspan id="v-2115"  dy="0em" x="0" style="fill-opacity: 0; stroke-opacity: 0;">-</tspan></text></g></g><g  display="none"></g><g  id="v-2120" display="none"><g  id="v-2101"><path  end="source" d="M 26 0 L 0 13 L 26 26 z"></path></g><g  id="v-2102"><path  end="target" d="M 26 0 L 0 13 L 26 26 z"></path></g></g><g  id="v-2119" display="none"><g  id="v-2100" transform="translate(1373.6990966796875, 741.0885009765625) "><g  event="remove"><circle r="11"></circle><path transform="scale(.8) translate(-16, -16)" d="M24.778,21.419 19.276,15.917 24.777,10.415 21.949,7.585 16.447,13.087 10.945,7.585 8.117,10.415 13.618,15.917 8.116,21.419 10.946,24.248 16.447,18.746 21.948,24.248z"></path><title>Remove link.</title></g><g  event="link:options"><circle r="11" transform="translate(25)"></circle><path fill="white" transform="scale(.55) translate(29, -16)" d="M31.229,17.736c0.064-0.571,0.104-1.148,0.104-1.736s-0.04-1.166-0.104-1.737l-4.377-1.557c-0.218-0.716-0.504-1.401-0.851-2.05l1.993-4.192c-0.725-0.91-1.549-1.734-2.458-2.459l-4.193,1.994c-0.647-0.347-1.334-0.632-2.049-0.849l-1.558-4.378C17.165,0.708,16.588,0.667,16,0.667s-1.166,0.041-1.737,0.105L12.707,5.15c-0.716,0.217-1.401,0.502-2.05,0.849L6.464,4.005C5.554,4.73,4.73,5.554,4.005,6.464l1.994,4.192c-0.347,0.648-0.632,1.334-0.849,2.05l-4.378,1.557C0.708,14.834,0.667,15.412,0.667,16s0.041,1.165,0.105,1.736l4.378,1.558c0.217,0.715,0.502,1.401,0.849,2.049l-1.994,4.193c0.725,0.909,1.549,1.733,2.459,2.458l4.192-1.993c0.648,0.347,1.334,0.633,2.05,0.851l1.557,4.377c0.571,0.064,1.148,0.104,1.737,0.104c0.588,0,1.165-0.04,1.736-0.104l1.558-4.377c0.715-0.218,1.399-0.504,2.049-0.851l4.193,1.993c0.909-0.725,1.733-1.549,2.458-2.458l-1.993-4.193c0.347-0.647,0.633-1.334,0.851-2.049L31.229,17.736zM16,20.871c-2.69,0-4.872-2.182-4.872-4.871c0-2.69,2.182-4.872,4.872-4.872c2.689,0,4.871,2.182,4.871,4.872C20.871,18.689,18.689,20.871,16,20.871z"></path><title>Link options.</title></g></g></g></g><g id="j_110"   ><path  stroke="#707070" id="v-2141" stroke-width="2" stroke-dasharray="30 30" fill="none" d="M 1337 854 1907 854" style="opacity: 1;"></path><path  fill="black" stroke="black" transform="translate(1337,854) scale(1,1) rotate(0)"></path><path  fill="#707070" stroke="#707070" id="v-2143" d="M 20 0 L 0 10 L 20 20 z" transform="translate(1927,864) scale(1,1) rotate(-180)" style="opacity: 1;"></path><path  id="v-2142" fill="none" d="M 1337 854 1907 854" style=""></path><title ></title><g ><g  id="v-2128" label-idx="0" cursor="move" transform="translate(1622, 854)" style="opacity: 1;"><rect id="v-2130" fill="#ffffff" rx="3" ry="3" stroke="#ffffff" stroke-width="20px" pointer-events="none" width="137.93992614746094" height="61.59256553649902" transform="matrix(1,0,0,1,-69,-30.8)"></rect><text id="v-2129" font-size="24px" y="0.8em" xml:space="preserve" text-anchor="middle" pointer-events="none" fill="#707070" font-family="Open Sans" font-weight="normal" transform="matrix(1,0,0,1,0,-24.2)"><tspan id="v-2131"  dy="0em" x="0">Pushes</tspan><tspan id="v-2132"  dy="1.2em" x="0">notifications</tspan></text></g><g  id="v-2133" label-idx="1" cursor="move" transform="translate(1622, 897.2)" style="opacity: 1;"><rect id="v-2135" fill="#ffffff" rx="3" ry="3" pointer-events="none" width="0" height="0" transform="matrix(1,0,0,1,0,0)"></rect><text id="v-2134" font-size="19px" y="0.8em" display="none" xml:space="preserve" text-anchor="middle" pointer-events="none" fill="#707070" font-family="Open Sans" font-weight="normal" transform="matrix(1,0,0,1,0,0)"><tspan id="v-2136"  dy="0em" x="0" style="fill-opacity: 0; stroke-opacity: 0;">-</tspan></text></g><g  id="v-2137" label-idx="2" cursor="move" transform="translate(1622, 921.2)" style="opacity: 1;"><rect id="v-2139" fill="#ffffff" rx="3" ry="3" pointer-events="none"  display="none" width="0" height="0" transform="matrix(1,0,0,1,0,0)"></rect><text id="v-2138" font-size="19px" y="0.8em" display="none" xml:space="preserve" text-anchor="middle" pointer-events="none" fill="#707070" font-family="Open Sans" font-weight="normal"  transform="matrix(1,0,0,1,0,0)"><tspan id="v-2140"  dy="0em" x="0" style="fill-opacity: 0; stroke-opacity: 0;">-</tspan></text></g></g><g  display="none"></g><g  id="v-2145" display="none"><g  id="v-2125"><path  end="source" d="M 26 0 L 0 13 L 26 26 z"></path></g><g  id="v-2126"><path  end="target" d="M 26 0 L 0 13 L 26 26 z"></path></g></g><g  id="v-2144" display="none"><g  id="v-2124" transform="translate(1377, 854) "><g  event="remove"><circle r="11"></circle><path transform="scale(.8) translate(-16, -16)" d="M24.778,21.419 19.276,15.917 24.777,10.415 21.949,7.585 16.447,13.087 10.945,7.585 8.117,10.415 13.618,15.917 8.116,21.419 10.946,24.248 16.447,18.746 21.948,24.248z"></path><title>Remove link.</title></g><g  event="link:options"><circle r="11" transform="translate(25)"></circle><path fill="white" transform="scale(.55) translate(29, -16)" d="M31.229,17.736c0.064-0.571,0.104-1.148,0.104-1.736s-0.04-1.166-0.104-1.737l-4.377-1.557c-0.218-0.716-0.504-1.401-0.851-2.05l1.993-4.192c-0.725-0.91-1.549-1.734-2.458-2.459l-4.193,1.994c-0.647-0.347-1.334-0.632-2.049-0.849l-1.558-4.378C17.165,0.708,16.588,0.667,16,0.667s-1.166,0.041-1.737,0.105L12.707,5.15c-0.716,0.217-1.401,0.502-2.05,0.849L6.464,4.005C5.554,4.73,4.73,5.554,4.005,6.464l1.994,4.192c-0.347,0.648-0.632,1.334-0.849,2.05l-4.378,1.557C0.708,14.834,0.667,15.412,0.667,16s0.041,1.165,0.105,1.736l4.378,1.558c0.217,0.715,0.502,1.401,0.849,2.049l-1.994,4.193c0.725,0.909,1.549,1.733,2.459,2.458l4.192-1.993c0.648,0.347,1.334,0.633,2.05,0.851l1.557,4.377c0.571,0.064,1.148,0.104,1.737,0.104c0.588,0,1.165-0.04,1.736-0.104l1.558-4.377c0.715-0.218,1.399-0.504,2.049-0.851l4.193,1.993c0.909-0.725,1.733-1.549,2.458-2.458l-1.993-4.193c0.347-0.647,0.633-1.334,0.851-2.049L31.229,17.736zM16,20.871c-2.69,0-4.872-2.182-4.872-4.871c0-2.69,2.182-4.872,4.872-4.872c2.689,0,4.871,2.182,4.871,4.872C20.871,18.689,18.689,20.871,16,20.871z"></path><title>Link options.</title></g></g></g></g><g id="j_111"   ><path  stroke="#707070" id="v-2163" stroke-width="2" stroke-dasharray="30 30" fill="none" d="M 497 850 867 853" style="opacity: 1;"></path><path  fill="black" stroke="black" transform="translate(497,850) scale(1,1) rotate(0.4407348632812642)"></path><path  fill="#707070" stroke="#707070" id="v-2165" d="M 20 0 L 0 10 L 20 20 z" transform="translate(886.923087335478,862.9997218354772) scale(1,1) rotate(-179.55926513671875)" style="opacity: 1;"></path><path  id="v-2164" fill="none" d="M 497 850 867 853" style=""></path><title ></title><g ><g  id="v-2151" label-idx="0" cursor="move" transform="translate(682, 851.5)" style="opacity: 1;"><rect id="v-2153" fill="#ffffff" rx="3" ry="3" stroke="#ffffff" stroke-width="20px" pointer-events="none" width="129.35362243652344" height="32.79256248474121" transform="matrix(1,0,0,1,-64.7,-16.4)"></rect><text id="v-2152" font-size="24px" y="0.8em" xml:space="preserve" text-anchor="middle" pointer-events="none" fill="#707070" font-family="Open Sans" font-weight="normal" transform="matrix(1,0,0,1,0,-9.8)"><tspan id="v-2154"  dy="0em" x="0">Chats using</tspan></text></g><g  id="v-2155" label-idx="1" cursor="move" transform="translate(682, 882.7)" style="opacity: 1;"><rect id="v-2157" fill="#ffffff" rx="3" ry="3" pointer-events="none" width="0" height="0" transform="matrix(1,0,0,1,0,0)"></rect><text id="v-2156" font-size="19px" y="0.8em" display="none" xml:space="preserve" text-anchor="middle" pointer-events="none" fill="#707070" font-family="Open Sans" font-weight="normal" transform="matrix(1,0,0,1,0,0)"><tspan id="v-2158"  dy="0em" x="0" style="fill-opacity: 0; stroke-opacity: 0;">-</tspan></text></g><g  id="v-2159" label-idx="2" cursor="move" transform="translate(682, 906.7)" style="opacity: 1;"><rect id="v-2161" fill="#ffffff" rx="3" ry="3" pointer-events="none"  display="none" width="0" height="0" transform="matrix(1,0,0,1,0,0)"></rect><text id="v-2160" font-size="19px" y="0.8em" display="none" xml:space="preserve" text-anchor="middle" pointer-events="none" fill="#707070" font-family="Open Sans" font-weight="normal"  transform="matrix(1,0,0,1,0,0)"><tspan id="v-2162"  dy="0em" x="0" style="fill-opacity: 0; stroke-opacity: 0;">-</tspan></text></g></g><g  display="none"></g><g  id="v-2167" display="none"><g  id="v-2148"><path  end="source" d="M 26 0 L 0 13 L 26 26 z"></path></g><g  id="v-2149"><path  end="target" d="M 26 0 L 0 13 L 26 26 z"></path></g></g><g  id="v-2166" display="none"><g  id="v-2147" transform="translate(536.9986572265625, 850.3243408203125) "><g  event="remove"><circle r="11"></circle><path transform="scale(.8) translate(-16, -16)" d="M24.778,21.419 19.276,15.917 24.777,10.415 21.949,7.585 16.447,13.087 10.945,7.585 8.117,10.415 13.618,15.917 8.116,21.419 10.946,24.248 16.447,18.746 21.948,24.248z"></path><title>Remove link.</title></g><g  event="link:options"><circle r="11" transform="translate(25)"></circle><path fill="white" transform="scale(.55) translate(29, -16)" d="M31.229,17.736c0.064-0.571,0.104-1.148,0.104-1.736s-0.04-1.166-0.104-1.737l-4.377-1.557c-0.218-0.716-0.504-1.401-0.851-2.05l1.993-4.192c-0.725-0.91-1.549-1.734-2.458-2.459l-4.193,1.994c-0.647-0.347-1.334-0.632-2.049-0.849l-1.558-4.378C17.165,0.708,16.588,0.667,16,0.667s-1.166,0.041-1.737,0.105L12.707,5.15c-0.716,0.217-1.401,0.502-2.05,0.849L6.464,4.005C5.554,4.73,4.73,5.554,4.005,6.464l1.994,4.192c-0.347,0.648-0.632,1.334-0.849,2.05l-4.378,1.557C0.708,14.834,0.667,15.412,0.667,16s0.041,1.165,0.105,1.736l4.378,1.558c0.217,0.715,0.502,1.401,0.849,2.049l-1.994,4.193c0.725,0.909,1.549,1.733,2.459,2.458l4.192-1.993c0.648,0.347,1.334,0.633,2.05,0.851l1.557,4.377c0.571,0.064,1.148,0.104,1.737,0.104c0.588,0,1.165-0.04,1.736-0.104l1.558-4.377c0.715-0.218,1.399-0.504,2.049-0.851l4.193,1.993c0.909-0.725,1.733-1.549,2.458-2.458l-1.993-4.193c0.347-0.647,0.633-1.334,0.851-2.049L31.229,17.736zM16,20.871c-2.69,0-4.872-2.182-4.872-4.871c0-2.69,2.182-4.872,4.872-4.872c2.689,0,4.871,2.182,4.871,4.872C20.871,18.689,18.689,20.871,16,20.871z"></path><title>Link options.</title></g></g></g></g></g><defs id="v-4"></defs></svg>