<svg width="50" height="48" viewBox="0 0 50 48" fill="none" xmlns="http://www.w3.org/2000/svg">
<path d="M12.0928 1.31738H37.9082C38.8864 1.31748 39.8463 1.58551 40.6826 2.09277C41.4144 2.53664 42.027 3.14884 42.4717 3.87598L42.6523 4.19434L48.2812 14.9814H48.2822C48.7758 15.927 48.9753 16.9987 48.8555 18.0586C48.7506 18.9861 48.405 19.8677 47.8564 20.6172L47.6084 20.9307L26.0273 46.21C25.9007 46.358 25.7434 46.4771 25.5664 46.5586C25.3894 46.6401 25.1969 46.6826 25.002 46.6826C24.8071 46.6826 24.6145 46.6401 24.4375 46.5586C24.2604 46.477 24.1023 46.3582 23.9756 46.21H23.9766L2.39453 20.9307V20.9297C1.70181 20.1185 1.26777 19.1185 1.14746 18.0586C1.0272 16.9987 1.2264 15.9272 1.71973 14.9814L7.34863 4.19434C7.8007 3.32706 8.48217 2.60002 9.31836 2.09277C10.1547 1.58551 11.1146 1.31748 12.0928 1.31738ZM12.0928 4.0166C11.6084 4.01654 11.133 4.14935 10.7188 4.40039C10.3045 4.65143 9.96727 5.01198 9.74316 5.44141L4.11328 16.2334C3.86886 16.7015 3.76995 17.2321 3.8291 17.7568C3.88089 18.2162 4.05167 18.6531 4.32324 19.0244L4.44629 19.1797L24.5078 42.6787L25.002 43.2578L25.4961 42.6787L45.5547 19.1797H45.5557C45.8985 18.7776 46.1127 18.2819 46.1719 17.7568C46.2311 17.2317 46.1315 16.7007 45.8867 16.2324L40.2607 5.44336C40.0364 5.0135 39.6981 4.65338 39.2832 4.40234C38.8685 4.15144 38.3929 4.01892 37.9082 4.01953L12.0928 4.0166Z" fill="#9C9EA4" stroke="#242834" stroke-width="1.3"/>
</svg>
