<svg width="52" height="45" viewBox="0 0 52 45" fill="none" xmlns="http://www.w3.org/2000/svg">
<path d="M10.6006 1H41.4004C42.2382 1 42.9709 1.21583 43.625 1.63965C44.2192 2.02471 44.7088 2.52114 45.0967 3.14062L45.2568 3.41406L50.2412 13.3164L50.2617 13.3574L50.2861 13.3965C50.4362 13.6367 50.5343 13.8987 50.5811 14.1904C50.6405 14.5612 50.6685 14.9187 50.667 15.2627V15.2666C50.667 15.78 50.5852 16.2702 50.4229 16.7412C50.2645 17.2007 50.0253 17.6284 49.6982 18.0273L29.3076 42.416C28.8624 42.9354 28.3528 43.3253 27.7754 43.5967C27.1926 43.8706 26.6047 44.0014 26.0029 44H26.001C25.3977 44 24.8083 43.8685 24.2246 43.5957C23.7207 43.3601 23.2676 43.0331 22.8643 42.6064L22.6943 42.417L2.30273 18.0273C1.97775 17.6287 1.73952 17.2009 1.58105 16.7412C1.41871 16.2701 1.33574 15.7799 1.33398 15.2666C1.33399 14.9231 1.36318 14.5656 1.42285 14.1934C1.46991 13.8999 1.56859 13.635 1.71875 13.3916L1.74121 13.3545L1.76074 13.3164L6.75195 3.39844C7.16291 2.6571 7.70441 2.07676 8.37891 1.63965C9.03328 1.21565 9.76492 1.00001 10.6006 1ZM7.76465 19.3057L22.5654 37.1064L24.334 39.2334V17.667H6.40234L7.76465 19.3057ZM27.667 39.2334L29.4365 37.1064L44.2363 19.3057L45.5996 17.667H27.667V39.2334ZM5.04883 14.333H14.3516L19.3516 4.33301H10.0488L5.04883 14.333ZM18.0488 14.333H33.9521L28.9521 4.33301H23.0488L18.0488 14.333ZM37.6494 14.333H46.9521L41.9521 4.33301H32.6494L37.6494 14.333Z" fill="#9C9EA4" stroke="#242834" stroke-width="2"/>
</svg>
