<svg width="44" height="57" viewBox="0 0 44 57" fill="none" xmlns="http://www.w3.org/2000/svg">
<path d="M21.999 1.66699C23.6185 1.66699 25.2225 1.98578 26.7188 2.60547C28.2151 3.22528 29.5754 4.13404 30.7207 5.2793C31.8658 6.42443 32.7738 7.78414 33.3936 9.28027C34.0133 10.7765 34.333 12.3805 34.333 14V20.334H37.999C39.1482 20.334 40.2508 20.79 41.0635 21.6025C41.8761 22.4152 42.333 23.5177 42.333 24.667V51.334C42.3329 52.4831 41.876 53.5849 41.0635 54.3975C40.2508 55.2101 39.1483 55.667 37.999 55.667H5.99902C3.59482 55.6668 1.66619 53.718 1.66602 51.334V24.667C1.66602 22.2594 3.59146 20.3342 5.99902 20.334H9.66602V14C9.6661 10.7291 10.9654 7.59217 13.2783 5.2793C15.5912 2.96643 18.7281 1.66708 21.999 1.66699ZM4.99902 52.334H38.999V23.667H4.99902V52.334ZM21.999 33.667C23.1483 33.667 24.2508 34.1239 25.0635 34.9365C25.876 35.7491 26.3329 36.8509 26.333 38C26.333 39.1493 25.8761 40.2518 25.0635 41.0645C24.2508 41.8771 23.1483 42.334 21.999 42.334C19.5947 42.3338 17.666 40.3842 17.666 38C17.6662 35.5925 19.5916 33.6672 21.999 33.667ZM21.999 5C19.6122 5.00009 17.3235 5.94897 15.6357 7.63672C13.948 9.32447 12.9991 11.6132 12.999 14V20.334H30.999V14C30.9989 11.6132 30.0509 9.32445 28.3633 7.63672C26.6755 5.94889 24.386 5 21.999 5Z" fill="#9C9EA4" stroke="#242834" stroke-width="2"/>
</svg>
