<svg width="62" height="58" viewBox="0 0 62 58" fill="none" xmlns="http://www.w3.org/2000/svg">
<path d="M59.1122 33.092C59.3822 37.742 57.2522 42.212 53.4422 44.942L55.7522 49.412C56.4422 50.762 56.5322 52.352 55.9322 53.762C55.3622 55.172 54.1922 56.282 52.7522 56.762L50.3822 57.512C49.8722 57.692 49.3022 57.782 48.7622 57.782C47.2322 57.782 45.7922 57.092 44.8022 55.862L38.4422 48.362C35.7722 47.912 33.2522 46.772 31.1222 45.062C29.6222 45.512 28.1222 45.752 26.6222 45.752C23.9822 45.752 21.3422 44.942 19.1222 43.382C17.5322 43.862 15.9122 44.072 14.2622 44.042C11.8922 44.072 9.55224 43.592 7.36224 42.692C3.07224 40.772 0.222242 36.572 0.0722418 31.862C-0.167758 29.702 0.192242 27.512 1.12224 25.532C0.252242 23.282 0.162242 20.822 0.912242 18.542C2.02224 15.692 4.12224 13.322 6.73224 11.822C8.47224 6.75203 13.3622 3.36203 18.7322 3.72203C23.5322 -0.777969 30.8822 -1.25797 36.2222 2.61203C37.4822 2.28203 38.8022 2.10203 40.1222 2.10203C44.2022 2.01203 48.0722 3.81203 50.6222 7.02203C56.7422 8.61203 61.1222 14.072 61.3622 20.432C61.5122 23.762 60.6122 27.032 58.7822 29.822C58.9922 30.902 59.1122 31.982 59.1122 33.092ZM44.1122 28.862C45.8222 29.072 47.1722 30.362 47.1722 32.072C47.1722 32.8677 46.8562 33.6307 46.2936 34.1934C45.7309 34.756 44.9679 35.072 44.1722 35.072H42.2822C41.3222 37.772 39.6422 40.142 37.4222 41.942C38.1722 42.212 38.9522 42.362 39.7322 42.572C55.1222 42.362 53.3222 32.972 53.3222 32.822C53.1422 28.532 49.5422 25.172 45.2522 25.352C44.4566 25.352 43.6935 25.036 43.1309 24.4734C42.5683 23.9107 42.2522 23.1477 42.2522 22.352C42.2522 21.5564 42.5683 20.7933 43.1309 20.2307C43.6935 19.6681 44.4566 19.352 45.2522 19.352C48.9422 19.442 52.4822 20.822 55.2422 23.252C55.3922 22.382 55.4822 21.482 55.4822 20.582C55.3022 16.862 53.6222 13.622 46.8722 12.992C43.1222 4.11203 33.6722 9.03203 33.6722 11.792C33.5822 12.482 34.3022 13.952 34.4222 14.042C35.2179 14.042 35.981 14.3581 36.5436 14.9207C37.1062 15.4833 37.4222 16.2464 37.4222 17.042C37.4222 18.692 36.0722 20.042 34.4222 20.042C32.8322 19.982 31.3322 19.382 30.1322 18.362C28.6922 19.292 27.0422 19.862 25.3322 20.042C23.6222 20.192 22.2122 18.992 22.1222 17.342C21.8822 15.662 23.1122 14.192 24.7622 14.042C25.2422 13.982 27.5822 13.622 27.5822 11.732C27.5822 9.75203 28.3322 7.86203 29.6222 6.36203C26.8622 5.61203 23.8922 6.60203 20.8922 10.232C15.3722 9.36203 13.1222 10.112 11.4722 15.962C8.62224 17.372 7.12224 18.362 6.46224 21.362C9.70224 20.702 13.0322 20.972 16.1222 22.112C17.6222 22.682 18.4622 24.362 17.8922 25.982C17.3222 27.542 15.5822 28.322 14.0222 27.752C11.8322 26.792 9.37224 26.732 7.12224 27.572C6.16224 28.382 6.16224 30.062 6.16224 31.382C6.16224 33.602 7.27224 35.672 9.16224 36.872C10.7522 37.682 12.5222 38.102 14.2922 38.072C13.8422 37.292 13.4522 36.482 13.1222 35.642C12.5522 34.022 13.4222 32.252 15.0422 31.682C16.6622 31.112 18.4322 31.982 19.0022 33.602C20.2022 37.022 23.2622 39.362 26.8622 39.752C30.9722 39.542 34.6322 37.112 36.4322 33.362C37.1222 29.222 40.4522 28.862 44.1122 28.862ZM50.1122 51.272L48.2522 47.372L46.1222 47.852L49.1222 51.602L50.1122 51.272ZM36.1622 25.442C36.2222 23.852 35.0222 22.502 33.4322 22.352C31.3022 22.232 29.2322 22.952 27.6422 24.362C25.9322 26.102 25.0322 28.502 25.1222 30.932C25.1222 31.7277 25.4383 32.4907 26.0009 33.0534C26.5635 33.616 27.3266 33.932 28.1222 33.932C29.8322 33.932 31.1222 32.582 31.1222 30.932C31.1222 30.122 31.3322 29.312 31.8122 28.652C32.1722 28.352 32.6222 28.202 33.1022 28.202C34.7522 28.292 36.1622 27.062 36.1622 25.442Z" fill="url(#paint0_linear_5373_12164)"/>
<defs>
<linearGradient id="paint0_linear_5373_12164" x1="0" y1="28.891" x2="61.3784" y2="28.891" gradientUnits="userSpaceOnUse">
<stop stop-color="#F36D28"/>
<stop offset="0.3" stop-color="#FF5672"/>
<stop offset="0.7" stop-color="#FF5672"/>
<stop offset="1" stop-color="#E41E79"/>
</linearGradient>
</defs>
</svg>
