<svg width="55" height="52" viewBox="0 0 55 52" fill="none" xmlns="http://www.w3.org/2000/svg">
<path d="M17.6709 4.0498C21.589 0.376578 27.589 -0.0141948 31.9463 3.14355L32.3291 3.4209L32.7871 3.30078C33.8287 3.02802 34.9168 2.8799 36 2.87988H36.0225C39.3383 2.80682 42.4799 4.26908 44.5508 6.87598L44.7588 7.1377L45.082 7.22168C49.9355 8.48267 53.4582 12.7198 53.8525 17.7246L53.8809 18.2109V18.2188C54.0047 20.9679 53.2626 23.667 51.751 25.9717L51.5273 26.3115L51.6055 26.7109C51.7818 27.6176 51.8799 28.5133 51.8799 29.4268V29.4561L51.8818 29.4844C52.1019 33.2748 50.3661 36.9203 47.2578 39.1475L46.5547 39.6514L46.9521 40.4189L49.0049 44.3926C49.4884 45.3414 49.5444 46.4428 49.1338 47.4082L49.126 47.4258C48.7279 48.4101 47.9105 49.1833 46.9141 49.5166L44.8184 50.1797L44.8027 50.1855L44.7871 50.1904C44.4491 50.3097 44.0555 50.373 43.6797 50.373C42.6281 50.3729 41.6329 49.9015 40.9395 49.04L40.9307 49.0303L40.9229 49.0205L35.2695 42.3535L35.0332 42.0752L34.6729 42.0137C32.4709 41.6425 30.3884 40.702 28.626 39.2871L28.2158 38.958L27.7129 39.1094C26.4621 39.4846 25.2255 39.6807 24 39.6807C21.8558 39.6806 19.7104 39.0213 17.9082 37.7549L17.5107 37.4756L17.0449 37.6162C15.8998 37.9619 14.7333 38.1381 13.543 38.1602H12.6328C10.7979 38.1342 8.98263 37.7414 7.26855 37.0381C3.81212 35.482 1.52022 32.0944 1.39941 28.3018L1.39844 28.2627L1.39355 28.2227C1.20066 26.4858 1.49022 24.7245 2.23828 23.1318L2.41992 22.7451L2.2666 22.3467C1.5768 20.5627 1.50626 18.6237 2.08887 16.832C2.992 14.5306 4.69575 12.6066 6.81836 11.3867L7.14453 11.2002L7.26562 10.8447C8.67149 6.74832 12.6154 4.02979 16.9199 4.31836L17.3535 4.34668L17.6709 4.0498ZM43.0068 41.1445L41.1133 41.5713L39.5537 41.9229L40.5527 43.1719L43.2197 46.5049L43.6553 47.0498L44.3164 46.8291L45.1963 46.5352L46.2695 46.1777L45.7832 45.1562L44.1299 41.6895L43.7861 40.9688L43.0068 41.1445ZM23.667 27.4883L23.666 27.4697C23.5963 25.587 24.2912 23.7336 25.5986 22.3906C26.805 21.3338 28.3655 20.7928 29.9756 20.8779C30.8618 20.9698 31.5131 21.7201 31.4805 22.5889V22.627C31.4804 23.437 30.766 24.1339 29.8145 24.082L29.7871 24.0801H29.7598C29.1216 24.0802 28.4895 24.2821 27.9736 24.7119L27.8779 24.792L27.8047 24.8916C27.2294 25.6826 27 26.621 27 27.5068C27 28.4344 26.2877 29.1738 25.333 29.1738C24.8913 29.1737 24.4677 28.9978 24.1553 28.6855C23.8427 28.373 23.667 27.9489 23.667 27.5068V27.4883ZM50.6533 18.2822L50.6523 18.2588C50.5662 16.4788 50.1143 14.6591 48.7422 13.2148C47.4591 11.8644 45.498 10.9746 42.6738 10.627C41.7851 8.78286 40.5898 7.552 39.2266 6.83398C37.7416 6.05188 36.1508 5.92549 34.7217 6.16016C33.3001 6.39363 31.9957 6.98951 31.0303 7.71582C30.547 8.0794 30.1238 8.49418 29.8135 8.93945C29.5248 9.3538 29.2923 9.85896 29.2705 10.4102C29.2375 10.7303 29.2926 11.0495 29.3496 11.2871C29.4143 11.5564 29.5079 11.8259 29.6006 12.0605C29.694 12.297 29.7945 12.5179 29.8838 12.6914C29.9278 12.777 29.9747 12.8615 30.0205 12.9355C30.0429 12.9717 30.0715 13.0169 30.1055 13.0625C30.1225 13.0853 30.2032 13.1965 30.333 13.2939L30.6006 13.4932H30.9336C31.3756 13.4932 31.7998 13.6689 32.1123 13.9814C32.4248 14.294 32.6006 14.7182 32.6006 15.1602C32.6006 16.068 31.8586 16.8145 30.9531 16.8252C29.7763 16.7767 28.6631 16.3325 27.7676 15.5713L27.2021 15.0908L26.5771 15.4932C25.4339 16.2314 24.1195 16.6866 22.752 16.8311C21.7765 16.9097 21.0466 16.2448 20.999 15.3721L20.9961 15.3291L20.9902 15.2852L20.9746 15.1172C20.9438 14.2841 21.5743 13.5677 22.4375 13.4893L22.4541 13.4883L22.4707 13.4854C22.7142 13.4549 23.4849 13.3451 24.2197 12.9648C24.9751 12.574 25.8534 11.7971 25.8535 10.4404C25.8535 8.93632 26.4233 7.48408 27.4248 6.31934L28.458 5.11719L26.9287 4.70215C24.1017 3.93404 21.2215 4.95684 18.5049 8.03809C16.3034 7.72696 14.4454 7.70555 12.9443 8.53906C11.3699 9.41339 10.4267 11.081 9.69629 13.501C8.59897 14.0562 7.63667 14.6098 6.87598 15.3564C5.98799 16.2281 5.42985 17.3019 5.10352 18.7852L4.77344 20.2871L6.2793 19.9805C8.80585 19.4658 11.3999 19.6301 13.8359 20.4355L14.3203 20.6055C15.1461 20.9246 15.6154 21.851 15.3008 22.7637C14.9893 23.616 14.0279 24.0624 13.1455 23.7412C10.9719 22.8055 8.53883 22.7538 6.31738 23.583L6.1543 23.6436L6.02148 23.7559C5.33159 24.3381 5.05841 25.1687 4.93555 25.8711C4.81132 26.5815 4.81348 27.3375 4.81348 27.9072C4.8136 30.2157 5.96962 32.3771 7.94434 33.6309L7.98438 33.6562L8.02637 33.6777C9.58094 34.4697 11.3152 34.883 13.0566 34.8535L14.7549 34.8242L13.9062 33.3535C13.5354 32.7107 13.2136 32.0435 12.9404 31.3516C12.6278 30.4458 13.1126 29.4432 14.0391 29.1172C14.9472 28.7978 15.956 29.2823 16.2832 30.2119C17.4826 33.6296 20.5381 35.9542 24.1055 36.3408L24.1846 36.3496L24.2646 36.3457C28.285 36.1402 31.8642 33.7619 33.6221 30.0996L33.6836 29.9717L33.707 29.8311C33.839 29.0392 34.0865 28.488 34.3857 28.0928C34.6829 27.7005 35.0671 27.414 35.5469 27.2021C36.5396 26.7639 37.8696 26.6696 39.4756 26.667C40.5583 26.8212 41.2666 27.608 41.2666 28.5205C41.2665 28.9624 41.0908 29.3858 40.7783 29.6982C40.4659 30.0107 40.0425 30.1864 39.6006 30.1865H37.2148L36.9775 30.8516C36.186 33.0778 34.8015 35.032 32.9707 36.5166L31.5928 37.6338L33.2617 38.2344C33.9764 38.4916 34.7978 38.659 35.3936 38.8193L35.5283 38.8555L35.667 38.8535C42.7058 38.7575 46.1212 36.5466 47.6748 34.0244C48.4327 32.794 48.6937 31.5695 48.7666 30.6504C48.8031 30.19 48.7933 29.8011 48.7734 29.5195C48.7635 29.3784 48.7502 29.2643 48.7402 29.1826C48.7353 29.1426 48.7309 29.1101 48.7285 29.0918C48.7283 29.0904 48.7287 29.089 48.7285 29.0879C48.517 24.7727 44.8965 21.3878 40.5605 21.5469L40.3955 21.5391C40.0139 21.5012 39.6554 21.3321 39.3818 21.0586C39.0693 20.746 38.8936 20.3219 38.8936 19.8799C38.8936 19.438 39.0694 19.0146 39.3818 18.7021C39.694 18.39 40.1171 18.2143 40.5586 18.2139C43.597 18.2933 46.5091 19.4319 48.7793 21.4307L50.1221 22.6123L50.4258 20.8506C50.5672 20.0305 50.6533 19.1723 50.6533 18.3066V18.2822Z" fill="#9C9EA4" stroke="#242834" stroke-width="2"/>
</svg>
