<svg width="52" height="60" viewBox="0 0 52 60" fill="none" xmlns="http://www.w3.org/2000/svg">
<path d="M50.333 15.9102V44.0898L25.999 58.1777L1.66602 44.0898V15.9102L25.999 1.82227L50.333 15.9102ZM33.5645 35.0771L16.9941 47.5039L15.7842 48.4121L17.0928 49.1699L25.999 54.3262L26.5 54.0361L45.3271 43.1377L46.7959 42.2881L45.3408 41.415L34.6787 35.0205L34.1025 34.6738L33.5645 35.0771ZM17.999 20.334C19.1482 20.334 20.2508 20.79 21.0635 21.6025C21.8761 22.4152 22.333 23.5177 22.333 24.667C22.333 25.8163 21.8761 26.9188 21.0635 27.7314C20.2508 28.544 19.1482 29 17.999 29C16.85 28.9999 15.7481 28.5438 14.9355 27.7314C14.1229 26.9188 13.666 25.8163 13.666 24.667C13.666 23.5177 14.1229 22.4152 14.9355 21.6025C15.7481 20.7902 16.85 20.3341 17.999 20.334ZM46.999 17.832L46.5 17.543L26.5 5.96387L25.999 5.67383L25.498 5.96387L5.49805 17.543L4.99902 17.832V42.1689L5.49805 42.458L12.0771 46.2656L12.6494 46.5967L13.1777 46.2002L33.8955 30.6621L45.4854 37.6123L46.999 38.5205V17.832Z" fill="#9C9EA4" stroke="#242834" stroke-width="2"/>
</svg>
