<svg width="51" height="48" viewBox="0 0 51 48" fill="none" xmlns="http://www.w3.org/2000/svg">
<path d="M5.33301 1H42.667C43.8161 1.00009 44.9179 1.45695 45.7305 2.26953C46.543 3.08211 46.9999 4.18385 47 5.33301V11.9824L47.4902 12.2734C48.7903 13.0448 49.667 14.414 49.667 16V32C49.667 33.586 48.7903 34.9552 47.4902 35.7266L47 36.0176V42.667C46.9999 43.8161 46.5431 44.9179 45.7305 45.7305C44.9179 46.5431 43.8161 46.9999 42.667 47H5.33301C4.18385 46.9999 3.08211 46.543 2.26953 45.7305C1.45695 44.9179 1.00009 43.8161 1 42.667V5.33301C1.00018 2.94896 2.92881 1.00018 5.33301 1ZM4.33301 43.667H43.667V36.333H26.667C25.5178 36.333 24.4152 35.877 23.6025 35.0645C22.7899 34.2518 22.333 33.1493 22.333 32V16C22.333 14.8507 22.7899 13.7482 23.6025 12.9355C24.4152 12.123 25.5178 11.667 26.667 11.667H43.667V4.33301H4.33301V43.667ZM25.667 33H46.333V15H25.667V33ZM34.667 21C35.4625 21.0001 36.2255 21.3164 36.7881 21.8789C37.3506 22.4415 37.667 23.2044 37.667 24C37.667 24.7956 37.3506 25.5585 36.7881 26.1211C36.2255 26.6836 35.4625 26.9999 34.667 27C33.8713 27 33.1075 26.6837 32.5449 26.1211C31.9825 25.5585 31.667 24.7955 31.667 24C31.667 23.2045 31.9825 22.4415 32.5449 21.8789C33.1075 21.3163 33.8713 21 34.667 21Z" fill="#9C9EA4" stroke="#242834" stroke-width="2"/>
</svg>
