<svg width="48" height="48" viewBox="0 0 48 48" fill="none" xmlns="http://www.w3.org/2000/svg">
<mask id="path-1-inside-1_2793_4754" fill="white">
<path d="M16 37.3333H10.6667V18.6667H16V37.3333ZM26.6667 37.3333H21.3333V10.6667H26.6667V37.3333ZM37.3333 37.3333H32V26.6667H37.3333V37.3333ZM42.6667 42.6667H5.33333V5.33333H42.6667V42.9333M42.6667 0H5.33333C2.4 0 0 2.4 0 5.33333V42.6667C0 45.6 2.4 48 5.33333 48H42.6667C45.6 48 48 45.6 48 42.6667V5.33333C48 2.4 45.6 0 42.6667 0Z"/>
</mask>
<path d="M16 37.3333H10.6667V18.6667H16V37.3333ZM26.6667 37.3333H21.3333V10.6667H26.6667V37.3333ZM37.3333 37.3333H32V26.6667H37.3333V37.3333ZM42.6667 42.6667H5.33333V5.33333H42.6667V42.9333M42.6667 0H5.33333C2.4 0 0 2.4 0 5.33333V42.6667C0 45.6 2.4 48 5.33333 48H42.6667C45.6 48 48 45.6 48 42.6667V5.33333C48 2.4 45.6 0 42.6667 0Z" fill="#9C9EA4"/>
<path d="M16 37.3333V39.3333H18V37.3333H16ZM10.6667 37.3333H8.66667V39.3333H10.6667V37.3333ZM10.6667 18.6667V16.6667H8.66667V18.6667H10.6667ZM16 18.6667H18V16.6667H16V18.6667ZM26.6667 37.3333V39.3333H28.6667V37.3333H26.6667ZM21.3333 37.3333H19.3333V39.3333H21.3333V37.3333ZM21.3333 10.6667V8.66667H19.3333V10.6667H21.3333ZM26.6667 10.6667H28.6667V8.66667H26.6667V10.6667ZM37.3333 37.3333V39.3333H39.3333V37.3333H37.3333ZM32 37.3333H30V39.3333H32V37.3333ZM32 26.6667V24.6667H30V26.6667H32ZM37.3333 26.6667H39.3333V24.6667H37.3333V26.6667ZM5.33333 42.6667H3.33333V44.6667H5.33333V42.6667ZM5.33333 5.33333V3.33333H3.33333V5.33333H5.33333ZM42.6667 5.33333H44.6667V3.33333H42.6667V5.33333ZM16 37.3333V35.3333H10.6667V37.3333V39.3333H16V37.3333ZM10.6667 37.3333H12.6667V18.6667H10.6667H8.66667V37.3333H10.6667ZM10.6667 18.6667V20.6667H16V18.6667V16.6667H10.6667V18.6667ZM16 18.6667H14V37.3333H16H18V18.6667H16ZM26.6667 37.3333V35.3333H21.3333V37.3333V39.3333H26.6667V37.3333ZM21.3333 37.3333H23.3333V10.6667H21.3333H19.3333V37.3333H21.3333ZM21.3333 10.6667V12.6667H26.6667V10.6667V8.66667H21.3333V10.6667ZM26.6667 10.6667H24.6667V37.3333H26.6667H28.6667V10.6667H26.6667ZM37.3333 37.3333V35.3333H32V37.3333V39.3333H37.3333V37.3333ZM32 37.3333H34V26.6667H32H30V37.3333H32ZM32 26.6667V28.6667H37.3333V26.6667V24.6667H32V26.6667ZM37.3333 26.6667H35.3333V37.3333H37.3333H39.3333V26.6667H37.3333ZM42.6667 42.6667V40.6667H5.33333V42.6667V44.6667H42.6667V42.6667ZM5.33333 42.6667H7.33333V5.33333H5.33333H3.33333V42.6667H5.33333ZM5.33333 5.33333V7.33333H42.6667V5.33333V3.33333H5.33333V5.33333ZM42.6667 5.33333H40.6667V42.9333H42.6667H44.6667V5.33333H42.6667ZM42.6667 0V-2H5.33333V0V2H42.6667V0ZM5.33333 0V-2C1.29543 -2 -2 1.29543 -2 5.33333H0H2C2 3.50457 3.50457 2 5.33333 2V0ZM0 5.33333H-2V42.6667H0H2V5.33333H0ZM0 42.6667H-2C-2 46.7046 1.29543 50 5.33333 50V48V46C3.50457 46 2 44.4954 2 42.6667H0ZM5.33333 48V50H42.6667V48V46H5.33333V48ZM42.6667 48V50C46.7046 50 50 46.7046 50 42.6667H48H46C46 44.4954 44.4954 46 42.6667 46V48ZM48 42.6667H50V5.33333H48H46V42.6667H48ZM48 5.33333H50C50 1.29543 46.7046 -2 42.6667 -2V0V2C44.4954 2 46 3.50457 46 5.33333H48Z" fill="#242834" mask="url(#path-1-inside-1_2793_4754)"/>
</svg>
