<svg width="54" height="54" viewBox="0 0 54 54" fill="none" xmlns="http://www.w3.org/2000/svg">
<path d="M27.001 1.33301C30.3715 1.33305 33.7093 1.99728 36.8232 3.28711C39.937 4.57695 42.7662 6.46741 45.1494 8.85059C47.5328 11.234 49.424 14.0637 50.7139 17.1777C52.0036 20.2917 52.667 23.6295 52.667 27C52.6669 33.8071 49.9628 40.3351 45.1494 45.1484C40.3361 49.9618 33.8081 52.6659 27.001 52.666C23.6305 52.666 20.2926 52.0027 17.1787 50.7129C14.0647 49.423 11.2349 47.5318 8.85156 45.1484C4.03831 40.3351 1.33407 33.807 1.33398 27C1.33398 20.1928 4.03813 13.664 8.85156 8.85059C11.2349 6.46722 14.0647 4.57698 17.1787 3.28711C20.2927 1.99727 23.6304 1.33301 27.001 1.33301ZM27.001 38C24.3614 38 21.2484 38.6133 18.6455 39.5303C17.3413 39.9898 16.1323 40.5365 15.1582 41.1436C14.2142 41.7318 13.3637 42.454 12.9521 43.3154L12.6084 44.0342L13.2324 44.5293C17.0293 47.5444 21.8069 49.333 27.001 49.333C32.195 49.3329 36.9727 47.5444 40.7695 44.5293L41.3926 44.0342L41.0498 43.3154C40.6383 42.4541 39.7876 41.7318 38.8438 41.1436C37.8697 40.5365 36.6606 39.9898 35.3564 39.5303C32.7536 38.6133 29.6406 38.0001 27.001 38ZM27.001 4.66602C14.6887 4.66602 4.66699 14.6877 4.66699 27C4.66707 32.083 6.3993 36.775 9.24707 40.4883L10.0137 41.4873L10.8135 40.5146C12.5282 38.4283 15.5593 36.9466 18.7754 35.9912C21.9645 35.0439 25.1557 34.666 27.001 34.666C28.8462 34.6661 32.0368 35.044 35.2256 35.9912C38.4417 36.9466 41.4738 38.4282 43.1885 40.5146L43.9873 41.4873L44.7539 40.4883C47.6017 36.775 49.3339 32.083 49.334 27C49.334 14.6878 39.3131 4.66619 27.001 4.66602ZM27.001 12C31.6219 12.0002 35.334 15.7121 35.334 20.333C35.334 24.9539 31.6219 28.6658 27.001 28.666C22.3799 28.666 18.667 24.9541 18.667 20.333C18.667 15.712 22.3799 12 27.001 12ZM27.001 15.333C25.6749 15.333 24.4025 15.8602 23.4648 16.7979C22.5274 17.7355 22.001 19.0071 22.001 20.333C22.001 21.6589 22.5274 22.9305 23.4648 23.8682C24.4025 24.8058 25.6749 25.333 27.001 25.333C28.3269 25.3329 29.5985 24.8058 30.5361 23.8682C31.4737 22.9305 32.001 21.659 32.001 20.333C32.001 19.007 31.4737 17.7355 30.5361 16.7979C29.5985 15.8602 28.3269 15.3331 27.001 15.333Z" fill="#9C9EA4" stroke="#242834" stroke-width="2"/>
</svg>
