<?xml version="1.0" encoding="utf-8"?>
<svg viewBox="0 0 361 361" xmlns="http://www.w3.org/2000/svg" xmlns:bx="https://boxy-svg.com">
  <defs>
    <linearGradient id="b" bx:pinned="true">
      <stop offset="0" stop-color="#fbb03b"/>
      <stop offset="1" stop-color="#f05a24"/>
    </linearGradient>
    <linearGradient id="a" bx:pinned="true">
      <stop offset="0" stop-color="#5f2583"/>
      <stop offset="1" stop-color="#ed1e79"/>
    </linearGradient>
    <radialGradient gradientUnits="userSpaceOnUse" cx="235.242" cy="188.021" r="31.243" id="gradient-2" gradientTransform="matrix(0.994627, 0, 0, 1.019909, -110.599968, -4.385226)">
      <stop offset="0" style="stop-color: rgb(252, 50, 0);"/>
      <stop offset="1" style="stop-color: rgb(242, 246, 0);"/>
    </radialGradient>
    <radialGradient gradientUnits="userSpaceOnUse" cx="235.242" cy="188.021" r="31.243" id="gradient-1" gradientTransform="matrix(0.994627, 0, 0, 1.019909, 0.384529, -4.334196)">
      <stop offset="0" style="stop-color: rgb(252, 50, 0);"/>
      <stop offset="1" style="stop-color: rgb(242, 246, 0);"/>
    </radialGradient>
    <radialGradient gradientUnits="userSpaceOnUse" cx="180.526" cy="180.5" r="180.5" id="gradient-0">
      <stop offset="0" style="stop-color: #bada55"/>
      <stop offset="1" style="stop-color: #758d29"/>
    </radialGradient>
  </defs>
  <ellipse style="fill: url(#gradient-0);" cx="180.526" cy="180.5" rx="180.5" ry="180.5"/>
  <path style="stroke: rgb(0, 0, 0); stroke-width: 0px; fill: rgb(51, 51, 51);" d="M 141.482 217.444 L 219.17 217.444 C 227.454 217.444 234.17 224.16 234.17 232.444 L 234.17 263.693 C 234.17 274.739 225.216 283.693 214.17 283.693 L 141.482 283.693 C 133.198 283.693 126.482 276.977 126.482 268.693 L 126.482 232.444 C 126.482 224.16 133.198 217.444 141.482 217.444 Z M 179.024 17.441 C 192.582 17.441 203.574 28.724 203.574 42.644 C 203.574 51.968 198.665 60.158 191.3 64.442 L 191.3 80.445 L 203.574 80.445 C 251.029 80.445 289.5 119.937 289.5 168.653 L 301.773 168.653 C 308.552 168.653 314.049 174.294 314.049 181.252 L 314.049 219.056 C 314.049 226.016 308.552 231.658 301.773 231.658 L 289.5 231.658 L 289.5 244.259 C 289.5 258.176 278.507 269.461 264.95 269.461 L 93.1 269.461 C 79.54 269.461 68.551 258.176 68.551 244.259 L 68.551 231.658 L 56.275 231.658 C 49.495 231.658 44 226.016 44 219.056 L 44 181.252 C 44 174.294 49.495 168.653 56.275 168.653 L 68.551 168.653 C 68.551 119.937 107.02 80.445 154.475 80.445 L 166.749 80.445 L 166.749 64.442 C 159.384 60.158 154.475 51.968 154.475 42.644 C 154.475 28.724 165.465 17.441 179.024 17.441 M 123.788 156.051 C 106.839 156.051 93.1 170.155 93.1 187.554 C 93.1 204.952 106.839 219.056 123.788 219.056 C 140.735 219.056 154.475 204.952 154.475 187.554 C 154.475 170.155 140.735 156.051 123.788 156.051 M 234.261 156.051 C 217.313 156.051 203.574 170.155 203.574 187.554 C 203.574 204.952 217.313 219.056 234.261 219.056 C 251.211 219.056 264.95 204.952 264.95 187.554 C 264.95 170.155 251.211 156.051 234.261 156.051 Z"/>
  <g transform="matrix(1, 0, 0, 1, -287.45224, -8.763936)">
    <rect x="435.597" y="236.208" width="64.756" height="12.783" style="stroke: rgb(0, 0, 0); fill: rgb(255, 255, 255);"/>
    <line style="fill: rgb(216, 216, 216); stroke: rgb(0, 0, 0);" x1="451.754" y1="236.522" x2="451.758" y2="248.991"/>
    <line style="fill: rgb(216, 216, 216); stroke: rgb(0, 0, 0);" x1="467.819" y1="236.306" x2="467.823" y2="248.775"/>
    <line style="fill: rgb(216, 216, 216); stroke: rgb(0, 0, 0);" x1="483.848" y1="236.516" x2="483.852" y2="248.985"/>
    <rect x="435.597" y="248.985" width="64.756" height="12.783" style="stroke: rgb(0, 0, 0); fill: rgb(255, 255, 255);"/>
    <line style="fill: rgb(216, 216, 216); stroke: rgb(0, 0, 0);" x1="451.75" y1="249.509" x2="451.754" y2="261.978"/>
    <line style="fill: rgb(216, 216, 216); stroke: rgb(0, 0, 0);" x1="467.823" y1="249.299" x2="467.827" y2="261.768"/>
    <line style="fill: rgb(216, 216, 216); stroke: rgb(0, 0, 0);" x1="483.852" y1="249.509" x2="483.856" y2="261.978"/>
  </g>
  <ellipse style="stroke-width: 0px; fill: url(#gradient-2);" cx="123.378" cy="187.379" rx="31.075" ry="31.865"/>
  <ellipse style="stroke-width: 0px; fill: url(#gradient-1);" cx="234.362" cy="187.43" rx="31.075" ry="31.865"/>
  <path d="M 235.351 174.815 L 237.98 179.813 L 243.046 177.315 L 242.235 182.904 L 247.801 183.861 L 243.86 187.906 L 247.801 191.951 L 242.235 192.908 L 243.046 198.497 L 237.98 195.999 L 235.351 200.997 L 232.722 195.999 L 227.656 198.497 L 228.467 192.908 L 222.901 191.951 L 226.842 187.906 L 222.901 183.861 L 228.467 182.904 L 227.656 177.315 L 232.722 179.813 Z" style="fill: rgb(247, 2, 231); stroke-width: 2px; stroke: rgb(186, 218, 85);" bx:shape="star 235.351 187.906 13.091 13.091 0.65 10 1@3151fe22"/>
  <path d="M 123.381 174.815 L 126.01 179.813 L 131.076 177.315 L 130.265 182.904 L 135.831 183.861 L 131.89 187.906 L 135.831 191.951 L 130.265 192.908 L 131.076 198.497 L 126.01 195.999 L 123.381 200.997 L 120.752 195.999 L 115.686 198.497 L 116.497 192.908 L 110.931 191.951 L 114.872 187.906 L 110.931 183.861 L 116.497 182.904 L 115.686 177.315 L 120.752 179.813 Z" style="fill: rgb(247, 2, 231); stroke-width: 2px; stroke: rgb(186, 218, 85);" bx:shape="star 123.381 187.906 13.091 13.091 0.65 10 1@4820dc15"/>
</svg>