<?xml version="1.0" encoding="utf-8"?>
<svg viewBox="0 0 361 361" xmlns="http://www.w3.org/2000/svg" xmlns:xlink="http://www.w3.org/1999/xlink" xmlns:bx="https://boxy-svg.com">
  <defs>
    <linearGradient id="b" bx:pinned="true">
      <stop offset="0" stop-color="#fbb03b"/>
      <stop offset="1" stop-color="#f05a24"/>
    </linearGradient>
    <linearGradient id="a" bx:pinned="true">
      <stop offset="0" stop-color="#5f2583"/>
      <stop offset="1" stop-color="#ed1e79"/>
    </linearGradient>
    <linearGradient id="d" x1="973.216" x2="973.216" y1="100.665" y2="388.077" gradientTransform="matrix(.97413 -.22842 .31045 1.35247 -95.3 85.515)" gradientUnits="userSpaceOnUse" xlink:href="#a"/>
    <linearGradient id="c" x1="188.919" x2="188.919" y1="1.638" y2="361.638" gradientTransform="matrix(-1 .0016 -.00202 -1.25907 376.78 357.265)" gradientUnits="userSpaceOnUse" xlink:href="#b"/>
  </defs>
  <g transform="translate(-69.987 -69.986)">
    <path fill="url(#c)" d="M8.919 181.638a180 180 0 1 0 360 0 180 180 0 1 0-360 0Zm80 0a100 100 0 0 1 200 0 100 100 0 0 1-200 0Z" transform="translate(61.094 68.348)"/>
    <path fill="url(#d)" d="M958.327 100.665a175.433 175.433 0 0 1 0 287.412l-45.03-64.31a96.924 96.924 0 0 0 0-158.791Z" paint-order="stroke" transform="matrix(1.03173 0 0 1.0208 -634.597 .545)"/>
    <circle cx="250" cy="250" r="100" style="fill: rgb(51, 51, 51);"/>
  </g>
  <path style="stroke: rgb(0, 0, 0); fill: rgb(51, 51, 51); stroke-width: 0px;" d="M 141.482 217.444 H 219.17 A 15 15 0 0 1 234.17 232.444 V 263.693 A 20 20 0 0 1 214.17 283.693 H 141.482 A 15 15 0 0 1 126.482 268.693 V 232.444 A 15 15 0 0 1 141.482 217.444 Z" bx:shape="rect 126.482 217.444 107.688 66.249 15 15 20 15 1@5179be3d"/>
  <path d="M 179.024 17.441 C 192.582 17.441 203.574 28.724 203.574 42.644 C 203.574 51.968 198.665 60.158 191.3 64.442 L 191.3 80.445 L 203.574 80.445 C 251.029 80.445 289.5 119.937 289.5 168.653 L 301.773 168.653 C 308.552 168.653 314.049 174.294 314.049 181.252 L 314.049 219.056 C 314.049 226.016 308.552 231.658 301.773 231.658 L 289.5 231.658 L 289.5 244.259 C 289.5 258.176 278.507 269.461 264.95 269.461 L 93.1 269.461 C 79.54 269.461 68.551 258.176 68.551 244.259 L 68.551 231.658 L 56.275 231.658 C 49.495 231.658 44 226.016 44 219.056 L 44 181.252 C 44 174.294 49.495 168.653 56.275 168.653 L 68.551 168.653 C 68.551 119.937 107.02 80.445 154.475 80.445 L 166.749 80.445 L 166.749 64.442 C 159.384 60.158 154.475 51.968 154.475 42.644 C 154.475 28.724 165.465 17.441 179.024 17.441 M 123.788 156.051 C 106.839 156.051 93.1 170.155 93.1 187.554 C 93.1 204.952 106.839 219.056 123.788 219.056 C 140.735 219.056 154.475 204.952 154.475 187.554 C 154.475 170.155 140.735 156.051 123.788 156.051 M 234.261 156.051 C 217.313 156.051 203.574 170.155 203.574 187.554 C 203.574 204.952 217.313 219.056 234.261 219.056 C 251.211 219.056 264.95 204.952 264.95 187.554 C 264.95 170.155 251.211 156.051 234.261 156.051 Z" style="fill: rgb(51, 51, 51);"/>
  <circle cx="233.844" cy="185.5" r="29.2" style="fill: rgb(255, 255, 255);"/>
  <rect x="232.17" y="173.025" width="15.579" height="15.579" style="stroke: rgb(0, 0, 0); fill: rgb(25, 25, 25);"/>
  <g style="" transform="matrix(0.563922, 0, 0, 0.482176, -153.072754, 207.215179)">
    <path d="M 569.4048333333334 37.5385 C 580.8816666666667 37.223 603.8353333333333 36.592 620.3271666666666 39.897166666666664 C 636.819 43.202333333333335 646.849 50.44366666666667 653.8560000000001 58.068000000000005 C 660.8629999999999 65.69233333333334 664.8470000000001 73.69966666666666 666.5588333333334 81.67216666666666 C 668.2706666666667 89.64466666666665 667.7103333333333 97.58233333333332 664.8083333333333 104.36766666666666 C 661.9063333333334 111.153 656.6626666666666 116.786 649.0665 119.94566666666667 C 641.4703333333333 123.10533333333332 631.5216666666666 123.79166666666667 622.7139999999999 121.58516666666667 C 613.9063333333334 119.37866666666666 606.2396666666667 114.27933333333334 600.9836666666666 108.49916666666667 C 595.7276666666667 102.71900000000001 592.8823333333333 96.258 590.8845 89.10416666666667 C 588.8866666666667 81.95033333333333 587.7363333333334 74.10366666666667 584.9428333333334 67.46000000000001 C 582.1493333333333 60.81633333333334 577.7126666666667 55.37566666666667 572.9363333333332 50.64183333333333 C 568.16 45.907999999999994 563.044 41.881 560.486 39.8675 C 557.928 37.854 557.928 37.854 557.928 37.85399999999999 C 557.928 37.854 557.928 37.854 569.4048333333334 37.5385" style="fill: rgb(249, 1, 158);" bx:d="M 557.928 37.854 U 626.789 35.961 U 656.879 57.685 U 668.831 81.707 U 667.15 105.52 U 651.419 122.419 U 621.573 124.478 U 598.573 109.18 U 590.037 89.797 U 586.586 66.257 U 573.276 49.935 U 557.928 37.854 U 557.928 37.854 Z 1@abed8ab8"/>
    <path style="fill: none; stroke: rgb(175, 22, 119); stroke-width: 5px;" d="M 608.801 53.124 C 624.101 54.519 639.488 67.965 645.823 81.77 C 648.28 87.124 648.605 93.269 650.463 98.834"/>
  </g>
  <line x1="110.88" y1="180.673" x2="159.555" y2="181.366" style="fill: rgb(51, 51, 51); stroke: rgb(255, 255, 255); stroke-width: 6px;"/>
</svg>