<?xml version="1.0" encoding="utf-8"?>
<svg viewBox="0 0 361 361" xmlns="http://www.w3.org/2000/svg" xmlns:xlink="http://www.w3.org/1999/xlink" xmlns:bx="https://boxy-svg.com">
  <defs>
    <linearGradient id="b" bx:pinned="true">
      <stop offset="0" stop-color="#fbb03b"/>
      <stop offset="1" stop-color="#f05a24"/>
    </linearGradient>
    <linearGradient id="a" bx:pinned="true">
      <stop offset="0" stop-color="#5f2583"/>
      <stop offset="1" stop-color="#ed1e79"/>
    </linearGradient>
    <linearGradient id="d" x1="973.216" x2="973.216" y1="100.665" y2="388.077" gradientTransform="matrix(.97413 -.22842 .31045 1.35247 -95.3 85.515)" gradientUnits="userSpaceOnUse" xlink:href="#a"/>
    <linearGradient id="c" x1="188.919" x2="188.919" y1="1.638" y2="361.638" gradientTransform="matrix(-1 .0016 -.00202 -1.25907 376.78 357.265)" gradientUnits="userSpaceOnUse" xlink:href="#b"/>
    <filter id="drop-shadow-filter-0" color-interpolation-filters="sRGB" x="-50%" y="-50%" width="200%" height="200%" bx:preset="drop-shadow 1 50 50 13 0.49 #00000087">
      <feGaussianBlur in="SourceAlpha" stdDeviation="13"/>
      <feOffset dx="50" dy="50"/>
      <feComponentTransfer result="offsetblur">
        <feFuncA id="spread-ctrl" type="linear" slope="0.98"/>
      </feComponentTransfer>
      <feFlood flood-color="#00000087"/>
      <feComposite in2="offsetblur" operator="in"/>
      <feMerge>
        <feMergeNode/>
        <feMergeNode in="SourceGraphic"/>
      </feMerge>
    </filter>
  </defs>
  <g transform="translate(-69.987 -69.986)">
    <path fill="url(#c)" d="M8.919 181.638a180 180 0 1 0 360 0 180 180 0 1 0-360 0Zm80 0a100 100 0 0 1 200 0 100 100 0 0 1-200 0Z" transform="translate(61.094 68.348)"/>
    <path fill="url(#d)" d="M958.327 100.665a175.433 175.433 0 0 1 0 287.412l-45.03-64.31a96.924 96.924 0 0 0 0-158.791Z" paint-order="stroke" transform="matrix(1.03173 0 0 1.0208 -634.597 .545)"/>
    <circle cx="250" cy="250" r="100" style="fill: rgb(51, 51, 51);"/>
  </g>
  <g transform="matrix(0.226253, 0, 0, 0.226253, 26.914322, 23.334671)" style="filter: url('#drop-shadow-filter-0');">
    <path d="m651.19 111.56c112.25 0.9125 225.21 13.802 333.97 41.309 86.132 35.721 117.07 134.85 133.78 218.83 28.71 173.55 13.974 352.97-27.238 523.3-20.091 70.395-42.276 142.26-93.401 197.61-70.368 76.19-143.68 150.64-233.46 204.85-37.571 22.688-104.18 42.225-155.04 28.912-107.43-28.124-176.51-136.24-255.57-213.71-102.95-95.02-128.08-241.38-144.26-374.01-14.674-160.44-12.703-325.55 30.684-481.67 9.4896-59.734 55.893-92.426 114.01-103.7 97.841-18.982 196.29-41.635 296.51-41.723z" fill="#dee3db"/>
    <path d="m610.38988,588.06158c-.33229-.33229-.56864.25834-.52522,1.3125 .048,1.16495.28494,1.4019.60416.60417 .28887-.72188.25335-1.58438-.0789-1.91667z" fill="#dfb4aa"/>
    <g transform="translate(-2283.6 968)">
      <path d="m2938.4 362.07c-12.142-12.932-14.391-18.493-20.168-49.853-1.3679-7.425-4.0726-21.869-6.0106-32.098-6.4154-33.862-8.2686-66.802-5.0546-89.846 0.8448-6.057 3.5813-19.01 6.0811-28.784 3.9203-15.328 4.4722-18.713 4.0143-24.616-0.8316-10.722-7.208-22.711-20.028-37.656-3.0667-3.575-5.582-6.8375-5.5897-7.25s23.836-0.75 52.986-0.75 53 0.23706 53 0.52679-3.2928 4.483-7.3173 9.3185c-13.018 15.641-18.683 27.221-18.683 38.192 0 3.4215 1.634 12.108 4.0619 21.593 2.2341 8.7281 4.9237 21.494 5.977 28.369 3.8237 24.958 1.9055 57.687-5.5387 94.5-0.7785 3.85-2.1426 11.05-3.0314 16-5.5417 30.864-7.9736 40.718-11.992 48.587-2.7318 5.3501-11.68 15.959-14.845 17.599-2.8378 1.471-2.9199 1.431-7.8629-3.8339z"/>
      <path d="m2881.1 19.266c-35.677-2.7866-49.5-5.3004-49.5-9.0016 0-1.0447 1.1857-2.8322 2.6349-3.9721 2.629-2.068 2.874-2.0726 111.87-2.0726s109.24 5e-3 111.87 2.0726c1.4492 1.1399 2.6349 2.6788 2.6349 3.4196 0 2.7861-16.885 6.5659-41 9.1779-23.027 2.4942-108.41 2.7261-138.5 0.37616z"/>
      <path d="m2708.6-5.2509c-20.829-5.4064-31.605-11.077-41.838-22.016-7.8742-8.4176-10.289-12.073-20.16-30.514-4.5632-8.525-17.905-32.915-29.649-54.201s-21.352-39.222-21.352-39.858c0-0.7261 0.9044-0.93065 2.4262-0.54872 4.89 1.2273 21.354 2.5737 31.679 2.5906l10.606 0.0173 24.394 43.057c13.417 23.681 25.799 44.722 27.516 46.758 5.8788 6.9723 10.064 8.2328 30.651 9.2318 52.248 2.5356 90.285-0.19214 105.33-7.5535 8.8984-4.3536 40.142-36.772 52.276-54.243 1.2415-1.7875 2.8383-3.25 3.5484-3.25s4.6171 1.5368 8.6824 3.415c27.497 12.704 66.887 12.357 102.29-0.90129 5.1597-1.9325 9.6371-3.5137 9.9498-3.5137s6.0879 7.3125 12.834 16.25c15.138 20.055 30.056 35.425 37.821 38.965 7.4178 3.3822 11.694 4.306 31 6.6968 42.109 5.2147 83.22 5.6535 92.156 0.98371 0.9108-0.47598 17.984-21.208 37.94-46.071s37.04-45.961 37.963-46.884c1.3895-1.3895 4.583-1.7722 18.56-2.224 9.2847-0.30018 17.894-0.86176 19.131-1.248 1.6578-0.51736 2.25-0.30013 2.25 0.82535 0 0.84014-8.3819 14.505-18.626 30.367s-22.957 35.735-28.25 44.163c-18.186 28.958-37.212 52.741-50.162 62.706-3.3742 2.5964-9.136 5.6499-14.034 7.4376l-8.3099 3.0328h-164.82l-3.15-3.2791c-1.7325-1.8035-5.9414-7.316-9.3532-12.25-7.7393-11.192-33.437-43.439-41.191-51.689-5.7925-6.1626-5.8023-6.1679-12.291-6.581l-6.4936-0.41348-6.9524 8.8563c-3.8239 4.871-12.3 16.223-18.837 25.227-14.584 20.089-21.557 28.503-29.064 35.073l-5.7791 5.0571-78.094-0.11285-78.094-0.11285-12.5-3.2445z"/>
      <path d="m3014-126.18c-0.8841-2.304 1.4192-9.0916 3.837-11.307 5.1323-4.7029 19.521-10.298 26.484-10.298 6.2294 0 8.2777 1.3506 8.2777 5.4583 0 6.1017-8.9023 12.648-21.716 15.968-7.7179 1.9999-16.149 2.089-16.882 0.17847z"/>
      <path d="m2856.9-130.33c-12.872-2.867-23.247-10.171-23.247-16.364 0-7.523 10.62-7.5352 26.785-0.0309 7.6182 3.5366 8.4481 4.2152 10.314 8.4343 1.1163 2.5236 1.8881 5.5829 1.7152 6.7986-0.2666 1.875-0.9969 2.2364-4.8143 2.3825-2.475 0.0947-7.3137-0.45447-10.753-1.2204z"/>
      <path d="m3181-478.88c-10.759 0.0136-21.801 0.5324-29.375 1.5938-32.255 4.5198-62.59 14.73-83.156 28-10.392 6.7054-21.285 18.056-25.031 26.062-3.094 6.6116-4.6479 16.021-3.4376 20.844 1.573 6.2674 18.759 21.148 32.313 27.969 18.038 9.0772 45.09 16.262 70.312 18.719 6.3251 0.61595 11.677 1.3184 11.906 1.5312 1.0717 0.99522 36.059 0.20012 48.25-1.0938 21.986-2.3334 45.052-8.6086 60.969-16.594 14.797-7.4234 21.652-9.3602 32.875-9.2812 17.035 0.11983 39.155 7.9493 59.281 20.969 3.939 2.5481 6.5205 3.8659 5.75 2.9375-2.7999-3.3737-17.826-13.933-30.281-21.281-12.49-7.369-14.692-9.5385-10.875-10.75 5.008-1.5894 20.425 2.6835 30.969 8.5938 2.9431 1.6497 5.5476 2.7961 5.8125 2.5312 0.7055-0.70552-13.3-10.422-19.375-13.438-2.8692-1.4242-5.4604-3.2139-5.75-3.9688-0.3046-0.79377 1.3855-3.1206 4-5.5 4.5477-4.1388 11.33-13.655 15.312-21.469 3.262-6.4002 2.6103-6.2056-2.7188 0.8125-9.6585 12.72-18.871 19.489-27.969 20.562-12.753 1.5054-22.33-5.5134-47.375-34.719-26.249-30.609-35.873-36.779-64.781-41.5-6.3912-1.0437-16.866-1.5448-27.625-1.5312zm-5.375 9.8438c9.2652-9e-3 18.338 0.53546 24.063 1.625 26.909 5.1216 48.946 18.787 62.875 39.031 4.3611 6.3386 11.985 22.424 12.687 26.75 0.5584 3.4407 0.3249 3.8164-4.8437 7.7188-12.925 9.7584-28.877 14.62-61.281 18.688-41.942 5.2647-85.925 3.6889-113-4.0312-13.06-3.7239-25.939-10.367-32.281-16.656-6.8572-6.8-5.7139-8.6891 2.5312-4.1562 25.293 13.905 96.689 19.403 145.25 11.188 27.395-4.6345 50-13.998 50-20.688 0-3.5442-8.261-12.253-17.406-18.375-36.206-24.238-83.604-32.049-123.78-20.406-15.637 4.5314-41.455 16.994-55.563 26.844-3.986 2.783-7.4915 4.821-7.8124 4.5-2.1915-2.1914 11.75-16.734 23.062-24.031 18.977-12.242 45.432-22.17 70.219-26.344 6.5395-1.1011 16.016-1.6475 25.281-1.6562z"/>
      <path d="m2707.6-483.38c-25.895 0.16536-49.485 4.8227-61.719 13.094-6.9971 4.7306-17.394 15.147-31.406 31.5-20.168 23.537-27.128 29.568-37.75 32.656-4.9972 1.4528-5.9203 1.4489-11.469-0.0937-9.1943-2.5562-17.817-9.8201-26.562-22.375-3.6103-5.1832-3.6714-2.8804-0.094 3.5312 4.356 7.8068 10.462 15.996 15.25 20.5 2.1694 2.0409 3.6393 4.1705 3.2812 4.75s-2.5435 2.0229-4.8437 3.1875c-4.9646 2.5137-18.103 11.453-19.75 13.438-0.6365 0.7669 2.8441-0.61121 7.7187-3.0312s11.728-5.1284 15.219-6.0312c13.406-3.4666 20.093-0.0679 9.9688 5.0625-8.1899 4.1501-20.49 11.951-29.563 18.75-9.2002 6.8942-11.086 9.4332-3 4.0312 13.081-8.7392 35.956-18.243 49.094-20.375 14.85-2.4104 23.862-0.69545 41.781 7.875 21.332 10.203 46.072 16.385 71.969 18.031 18.408 1.1704 20.385 1.1932 37.062 0.0625 25.644-1.7385 52.259-7.0102 70-13.875 20.168-7.8039 33.492-16.649 42.938-28.438 3.4901-4.3556 3.9062-5.4038 3.9062-10.562 0-29.762-40.341-57.026-100.75-68.125-13.536-2.4869-27.717-3.6491-41.281-3.5625zm6.5312 10.25c15.322 0.028 19.866 0.42829 30.656 2.625 32.569 6.6304 63.319 21.038 79.531 37.25 5.373 5.3731 7.851 9.4688 5.7187 9.4688-0.318 0-4.955-2.7077-10.312-6-11.519-7.0789-33.74-17.795-43.594-21.031-14.578-4.7888-22.5-6.1056-40-6.6562-19.655-0.61842-33.871 1.259-51.094 6.75-24.63 7.8525-49.096 22.978-54.875 33.938-2.9166 5.5315 2.1929 9.9502 18.062 15.625 18.875 6.7494 36.163 9.8851 62.469 11.312 40.529 2.1992 87.642-3.2272 109.72-12.625 4.5671-1.9441 8.6171-3.2338 9-2.8438 1.0196 1.0387-8.8841 9.858-15.031 13.375-11.538 6.6015-33.293 12.231-54.25 14.031-26.581 2.2836-51.072 2.0175-73-0.78125-24.657-3.147-31.908-4.3169-40.375-6.5938-16.021-4.3083-33.125-14.138-33.125-19.031 0-3.6661 7.43-19.742 12.844-27.75 10.359-15.324 27.556-28.601 45.031-34.781 14.139-5.0007 22.966-6.3172 42.625-6.2812z"/>
      <path d="m2502.5-388.05c-6.9428-4.6381-8.5367-13.215-3.7143-19.988 7.7215-10.844 24.824-5.0706 24.813 8.3759-0.01 11.228-11.888 17.765-21.098 11.612z"/>
      <path d="m3380.1-386.75c-2.7194-1.1001-7.2549-6.5316-8.0288-9.6148-1.7513-6.9778 3.8158-15.614 10.925-16.948 5.0434-0.94616 8.1653 0.0276 12.333 3.8468 8.981 8.2305 2.8663 23.819-9.2654 23.621-2.1351-0.0349-4.8187-0.44232-5.9636-0.90546z"/>
      <path d="m2849.1-529.8c-6.9806-1.3974-13.806-4.6039-23.257-10.925-46.646-31.201-103.33-56.643-144.78-64.987-55.071-11.085-95.076-2.3986-125.94 27.345-9.2299 8.8961-8.4523 5.0605 2.3137-11.412 7.4881-11.458 25.175-29.171 36.377-36.433 15.279-9.9048 30.776-15.865 49.781-19.148 13.026-2.2498 41.637-1.4991 58.5 1.5349 37.274 6.7064 75.667 22.723 110.63 46.152 19.046 12.764 40.334 31.402 51.619 45.196 5.2016 6.3579 5.7533 7.4856 5.7533 11.76 0 9.4308-7.9035 13.54-21 10.918z"/>
      <path d="m3021.1-530.59c-4.4241-2.0768-6.4796-5.4517-6.4796-10.639 0-4.6587 6.2151-12.635 20.785-26.675 38.36-36.966 92.594-65.359 143.72-75.24 24.319-4.7004 54.169-4.8252 72-0.30115 30.71 7.7919 55.916 24.874 73.909 50.089 5.6641 7.9376 12.017 19.483 11.181 20.319-0.3557 0.35569-3.6715-2.2913-7.3684-5.8821-11.617-11.283-19.969-16.787-34.17-22.513-22.615-9.1195-45.677-11.129-77.262-6.7317-44.216 6.1554-101.4 30.303-155.79 65.792-14.091 9.1938-21.233 12.285-30.272 13.105-4.8781 0.44221-7.0993 0.15552-10.248-1.3227z"/>
    </g>
    <path d="m654.77 1330.1c-12.142-12.932-14.391-18.493-20.168-49.853-1.3679-7.425-4.0726-21.869-6.0106-32.098-6.4154-33.862-8.2686-66.802-5.0546-89.846 0.8448-6.057 3.5813-19.01 6.0811-28.784 3.9203-15.328 4.4722-18.713 4.0143-24.616-0.8316-10.722-7.208-22.711-20.028-37.656-3.0667-3.575-5.582-6.8375-5.5897-7.25s23.836-0.75 52.986-0.75 53 0.2371 53 0.5268-3.2928 4.4831-7.3173 9.3185c-13.018 15.641-18.683 27.221-18.683 38.192 0 3.4215 1.634 12.108 4.0619 21.593 2.2341 8.7281 4.9237 21.494 5.977 28.369 3.8237 24.958 1.9055 57.687-5.5387 94.5-0.7785 3.85-2.1426 11.05-3.0314 16-5.5417 30.864-7.9736 40.718-11.992 48.587-2.7318 5.3501-11.68 15.959-14.845 17.599-2.8378 1.471-2.9199 1.431-7.8629-3.8339z"/>
    <path d="m597.5 987.26c-35.677-2.7866-49.5-5.3004-49.5-9.0016 0-1.0447 1.1857-2.8322 2.6349-3.9721 2.629-2.068 2.874-2.0726 111.87-2.0726s109.24 5e-3 111.87 2.0726c1.4492 1.1399 2.6349 2.6788 2.6349 3.4196 0 2.7861-16.885 6.5659-41 9.1779-23.027 2.4942-108.41 2.7261-138.5 0.37616z"/>
    <path d="m425 962.75c-20.829-5.4064-31.605-11.077-41.838-22.016-7.8742-8.4176-10.289-12.073-20.16-30.514-4.5632-8.525-17.905-32.915-29.649-54.201s-21.352-39.222-21.352-39.858c0-0.7261 0.9044-0.93065 2.4262-0.54872 4.89 1.2273 21.354 2.5737 31.679 2.5906l10.606 0.0173 24.394 43.057c13.417 23.681 25.799 44.722 27.516 46.758 5.8788 6.9723 10.064 8.2328 30.651 9.2318 52.248 2.5356 90.285-0.19214 105.33-7.5535 8.8984-4.3536 40.142-36.772 52.276-54.243 1.2415-1.7875 2.8383-3.25 3.5484-3.25s4.6171 1.5368 8.6824 3.415c27.497 12.704 66.887 12.357 102.29-0.90129 5.1597-1.9325 9.6371-3.5137 9.9498-3.5137s6.0879 7.3125 12.834 16.25c15.138 20.055 30.056 35.425 37.821 38.965 7.4178 3.3822 11.694 4.306 31 6.6968 42.109 5.2147 83.22 5.6535 92.156 0.98371 0.9108-0.47598 17.984-21.208 37.94-46.071s37.04-45.961 37.963-46.884c1.3895-1.3895 4.583-1.7722 18.56-2.224 9.2847-0.30018 17.894-0.86176 19.131-1.248 1.6578-0.51736 2.25-0.30013 2.25 0.82535 0 0.84014-8.3819 14.505-18.626 30.367s-22.957 35.735-28.25 44.163c-18.186 28.958-37.212 52.741-50.162 62.706-3.3742 2.5964-9.136 5.6499-14.034 7.4376l-8.3099 3.0328h-164.82l-3.15-3.2791c-1.7325-1.8035-5.9414-7.316-9.3532-12.25-7.7393-11.192-33.437-43.439-41.191-51.689-5.7925-6.1626-5.8023-6.1679-12.291-6.581l-6.4936-0.41348-6.9524 8.8563c-3.8239 4.871-12.3 16.223-18.837 25.227-14.584 20.089-21.557 28.503-29.064 35.073l-5.7791 5.0571-78.094-0.11285-78.094-0.11285-12.5-3.2445z"/>
    <path d="m730.41 841.82c-0.8841-2.304 1.4192-9.0916 3.837-11.307 5.1323-4.7029 19.521-10.298 26.484-10.298 6.2294 0 8.2777 1.3506 8.2777 5.4583 0 6.1017-8.9023 12.648-21.716 15.968-7.7179 1.9999-16.149 2.089-16.882 0.17847z"/>
    <path d="m573.25 837.67c-12.872-2.867-23.247-10.171-23.247-16.364 0-7.523 10.62-7.5352 26.785-0.0309 7.6182 3.5366 8.4481 4.2152 10.314 8.4343 1.1163 2.5236 1.8881 5.5829 1.7152 6.7986-0.2666 1.875-0.9969 2.2364-4.8143 2.3825-2.475 0.0947-7.3137-0.45447-10.753-1.2204z"/>
    <path d="m897.39 489.12c-10.759 0.0136-21.801 0.5324-29.375 1.5938-32.255 4.5198-62.59 14.73-83.156 28-10.392 6.7054-21.285 18.056-25.031 26.062-3.094 6.6116-4.6479 16.021-3.4376 20.844 1.573 6.2674 18.759 21.148 32.313 27.969 18.038 9.0772 45.09 16.262 70.312 18.719 6.3251 0.61595 11.677 1.3184 11.906 1.5312 1.0717 0.99522 36.059 0.20012 48.25-1.0938 21.986-2.3334 45.052-8.6086 60.969-16.594 14.797-7.4234 21.652-9.3602 32.875-9.2812 17.035 0.11983 39.155 7.9493 59.281 20.969 3.939 2.5481 6.5205 3.8659 5.75 2.9375-2.7999-3.3737-17.826-13.933-30.281-21.281-12.49-7.369-14.692-9.5385-10.875-10.75 5.008-1.5894 20.425 2.6835 30.969 8.5938 2.9431 1.6497 5.5476 2.7961 5.8125 2.5312 0.7055-0.70552-13.3-10.422-19.375-13.438-2.8692-1.4242-5.4604-3.2139-5.75-3.9688-0.3046-0.79377 1.3855-3.1206 4-5.5 4.5477-4.1388 11.33-13.655 15.312-21.469 3.262-6.4002 2.6103-6.2056-2.7188 0.8125-9.6585 12.72-18.871 19.489-27.969 20.562-12.753 1.5054-22.33-5.5134-47.375-34.719-26.249-30.609-35.873-36.779-64.781-41.5-6.3912-1.0437-16.866-1.5448-27.625-1.5312zm-5.375 9.8438c9.2652-9e-3 18.338 0.53546 24.063 1.625 26.909 5.1216 48.946 18.787 62.875 39.031 4.3611 6.3386 11.985 22.424 12.687 26.75 0.5584 3.4407 0.3249 3.8164-4.8437 7.7188-12.925 9.7584-28.877 14.62-61.281 18.688-41.942 5.2647-85.925 3.6889-113-4.0312-13.06-3.7239-25.939-10.367-32.281-16.656-6.8572-6.8-5.7139-8.6891 2.5312-4.1562 25.293 13.905 96.689 19.403 145.25 11.188 27.395-4.6345 50-13.998 50-20.688 0-3.5442-8.261-12.253-17.406-18.375-36.206-24.238-83.604-32.049-123.78-20.406-15.637 4.5314-41.455 16.994-55.563 26.844-3.986 2.783-7.4915 4.821-7.8124 4.5-2.1915-2.1914 11.75-16.734 23.062-24.031 18.977-12.242 45.432-22.17 70.219-26.344 6.5395-1.1011 16.016-1.6475 25.281-1.6562z"/>
    <path d="m423.99 484.62c-25.895 0.16536-49.485 4.8227-61.719 13.094-6.9971 4.7306-17.394 15.147-31.406 31.5-20.168 23.537-27.128 29.568-37.75 32.656-4.9972 1.4528-5.9203 1.4489-11.469-0.0937-9.1943-2.5562-17.817-9.8201-26.562-22.375-3.6103-5.1832-3.6714-2.8804-0.094 3.5312 4.356 7.8068 10.462 15.996 15.25 20.5 2.1694 2.0409 3.6393 4.1705 3.2812 4.75s-2.5435 2.0229-4.8437 3.1875c-4.9646 2.5137-18.103 11.453-19.75 13.438-0.6365 0.7669 2.8441-0.61121 7.7187-3.0312s11.728-5.1284 15.219-6.0312c13.406-3.4666 20.093-0.0679 9.9688 5.0625-8.1899 4.1501-20.49 11.951-29.563 18.75-9.2002 6.8942-11.086 9.4332-3 4.0312 13.081-8.7392 35.956-18.243 49.094-20.375 14.85-2.4104 23.862-0.69545 41.781 7.875 21.332 10.203 46.072 16.385 71.969 18.031 18.408 1.1704 20.385 1.1932 37.062 0.0625 25.644-1.7385 52.259-7.0102 70-13.875 20.168-7.8039 33.492-16.649 42.938-28.438 3.4901-4.3556 3.9062-5.4038 3.9062-10.562 0-29.762-40.341-57.026-100.75-68.125-13.536-2.4869-27.717-3.6491-41.281-3.5625zm6.5312 10.25c15.322 0.028 19.866 0.42829 30.656 2.625 32.569 6.6304 63.319 21.038 79.531 37.25 5.373 5.3731 7.851 9.4688 5.7187 9.4688-0.318 0-4.955-2.7077-10.312-6-11.519-7.0789-33.74-17.795-43.594-21.031-14.578-4.7888-22.5-6.1056-40-6.6562-19.655-0.61842-33.871 1.259-51.094 6.75-24.63 7.8525-49.096 22.978-54.875 33.938-2.9166 5.5315 2.1929 9.9502 18.062 15.625 18.875 6.7494 36.163 9.8851 62.469 11.312 40.529 2.1992 87.642-3.2272 109.72-12.625 4.5671-1.9441 8.6171-3.2338 9-2.8438 1.0196 1.0387-8.8841 9.858-15.031 13.375-11.538 6.6015-33.293 12.231-54.25 14.031-26.581 2.2836-51.072 2.0175-73-0.78125-24.657-3.147-31.908-4.3169-40.375-6.5938-16.021-4.3083-33.125-14.138-33.125-19.031 0-3.6661 7.43-19.742 12.844-27.75 10.359-15.324 27.556-28.601 45.031-34.781 14.139-5.0007 22.966-6.3172 42.625-6.2812z"/>
    <path d="m218.9 579.95c-6.9428-4.6381-8.5367-13.215-3.7143-19.988 7.7215-10.844 24.824-5.0706 24.813 8.3759-0.01 11.228-11.888 17.765-21.098 11.612z"/>
    <path d="m1096.4 581.25c-2.7194-1.1001-7.2549-6.5316-8.0288-9.6148-1.7513-6.9778 3.8158-15.614 10.925-16.948 5.0434-0.94616 8.1653 0.0276 12.333 3.8468 8.981 8.2305 2.8663 23.819-9.2654 23.621-2.1351-0.0349-4.8187-0.44232-5.9636-0.90546z"/>
    <path d="m565.5 438.2c-6.9806-1.3974-13.806-4.6039-23.257-10.925-46.646-31.201-103.33-56.643-144.78-64.987-55.071-11.085-95.076-2.3986-125.94 27.345-9.2299 8.8961-8.4523 5.0605 2.3137-11.412 7.4881-11.458 25.175-29.171 36.377-36.433 15.279-9.9048 30.776-15.865 49.781-19.148 13.026-2.2498 41.637-1.4991 58.5 1.5349 37.274 6.7064 75.667 22.723 110.63 46.152 19.046 12.764 40.334 31.402 51.619 45.196 5.2016 6.3579 5.7533 7.4856 5.7533 11.76 0 9.4308-7.9035 13.54-21 10.918z"/>
    <path d="m927.34 286.72c-12.676 4e-3 -27.456 1.1852-37.188 3.25-15.783 3.3487-35.046 9.602-49.969 16.219-11.91 5.2809-31.735 15.511-38.531 19.875-13.261 8.5152-21.047 13.89-20.656 14.281 0.2507 0.2507 3.6744-0.7112 7.5938-2.125 16.037-5.7848 51.4-13.307 77.812-16.562l16-1.9688c13.952-1.7369 48.971-2.4423 53.969 1.5938 11.803 0.0895 22.785 1.1653 31.125 3.2812 30.71 7.7919 55.913 24.847 73.906 50.062 5.6641 7.9376 12.024 19.508 11.188 20.344-0.3558 0.35569-3.6781-2.3154-7.375-5.9062-11.617-11.283-19.955-16.773-34.156-22.5-22.615-9.1195-45.696-11.116-77.281-6.7188-44.216 6.1554-101.39 30.292-155.78 65.781-4.5717 2.9828-8.4017 5.296-11.812 7.125-1.1502 2.8754-4.6209 10.326-7.0312 15.719-2.9964 6.7045-6.7949 15.9-8.4375 20.438s-4.1302 11.316-5.5312 15.062c-2.5235 6.747-12.531 43.031-12.531 45.438-2e-3 2.5309 1.6428 0.86925 8.6562-8.5938 17.374-23.442 44.91-52.954 67.625-72.5 37.429-32.207 79.323-53.713 122.72-63.031 10.796-2.3181 32.001-4.638 42.469-4.625 25.99 0.0309 64.938 7.589 75.5 14.656 6.5202 4.3629 6.579 2.8544 0.4375-10.344-14.292-30.714-21.203-42.586-32.406-55.781-20.006-23.565-46.123-38.114-75-41.719-4.2179-0.52647-9.5504-0.75191-15.312-0.75z" fill="#a5a075"/>
    <path d="m393.59 286.75c-11.409 0.10404-23.352 1.1156-30.625 2.7812-29.607 6.7804-52.203 22.792-72.812 51.625-3.5383 4.95-8.199 12.6-10.375 17-10.021 20.263-18.326 38.643-17.719 39.25 0.367 0.367 1.6625 0.0207 2.875-0.75 8.1557-5.184 25.813-10.372 46.219-13.625 19.459-3.1025 55.295-2.0398 75 2.25 47.875 10.422 94.362 36.315 136.41 75.969 18.172 17.138 43.641 46.048 57 64.656 3.0377 4.2308 5.0938 5.8746 5.0938 4.125 0-1.3759-8.0787-31.432-10.312-38.375-3.9618-12.315-12.613-34.824-17.406-45.312-1.596-3.4924-4.5469-9.7646-6.4375-14-2.5571-1.4195-5.2539-3.0584-8.25-5.0625-46.646-31.201-103.33-56.656-144.78-65-55.071-11.085-95.078-2.3994-125.94 27.344-9.2299 8.8961-8.4535 5.0667 2.3125-11.406 7.4881-11.458 25.173-29.176 36.375-36.438 15.279-9.9048 30.776-15.874 49.781-19.156 4.022-0.69466 9.5298-1.1063 15.719-1.25 2.8036-1.2516 7.0165-2.9692 9.4375-3.7188 2.3563-0.72945 3.6199-1 7.3125-1 7.919 0 39.935 2.5078 49.781 3.9062l21.906 3.125c19.168 2.7387 48.146 9.1596 61 13.531 5.5 1.8707 10.384 3.4062 10.875 3.4062s-1.0834-1.4466-3.5-3.25c-15.459-11.536-49.52-29.516-70.375-37.125-16.498-6.0191-36.705-11.171-49.75-12.688-5.319-0.61838-11.967-0.87493-18.812-0.8125z" fill="#a5a075"/>
    <path d="m488 752.66c-0.8602 0-3.2146 1.2908-5.2188 2.875-10.981 8.6797-37.701 23.436-54.625 30.156-22.907 9.0962-36.554 13.071-57 16.562-18.416 3.1447-32.219 3.868-47.5 2.5312-27.94-2.4442-48.104-11.162-64.75-28-5.7263-5.7924-8.251-7.7891-8.25-6.5 2e-3 2.1322 7.077 27.555 12.531 45.031 5.7819 18.526 11.711 33.693 18.938 48.344 3.6626 7.425 8.0972 16.425 9.8438 20 3.6309 7.432 16.571 31.35 22.188 41 13.434 23.082 40.63 63.035 64.344 94.5 22.763 30.203 61.67 76.962 76.969 92.5l8.375 8.5-7.7812-11.5c-4.2828-6.3246-9.6474-14.2-11.906-17.5-15.703-22.942-38.596-59.822-58.688-94.5-11.311-19.523-12.812-22.418-12.812-24.469 0-2.6633 1.5738-1.7606 11.188 6.2188 19.116 15.866 33.974 25.73 52.188 34.688 9.7216 4.7811 31.42 13.08 32.188 12.312 0.1511-0.1507-3.636-2.0661-8.4062-4.25-19.04-8.7163-42.597-23.428-57.656-36-13.229-11.043-32.616-29.739-41.906-40.406-8.1977-9.4129-9.5954-11.724-22.469-37.312-7.5511-15.009-18.173-36.956-23.594-48.781s-12.473-27.207-15.688-34.188c-8.0422-17.462-7.959-18.035 2.7188-14.344l6.9375 2.375 0.0312 0.0312c3.9104 0.73419 8.0696 1.4753 13.031 2.2188 11.549 1.7304 16.312 1.8872 32.531 1.3125 2.5084-0.0889 4.4826-0.1604 6.4688-0.25 0.5407-0.0914 1.1132-0.15625 1.7188-0.15625 5.4846-0.0124 31.67-3.8332 44.219-6.4375 52.004-10.793 91.5-30.373 91.5-45.375 0-2.7942-0.8399-4.2782-4.0625-7.3438-2.2231-2.1149-4.7336-3.8438-5.5938-3.8438zm349.69 1.75c-0.60207 0.0407-1.1729 0.28959-1.9375 0.6875-8.0212 4.1742-9.8119 11.6-4.4375 18.375 3.9469 4.9753 17.756 14.013 29.156 19.094 24.026 10.707 60.29 19.78 95.344 23.938h0.0937c4.517 0.41485 9.3836 0.75244 15.25 1.0312 11.664 0.55429 16.422 0.24228 32.5-1.9688 6.5593-0.90203 11.092-1.5708 14.75-2.2812v0.0937c1.7933-0.53579 3.7759-1.1114 6.5-1.9688 4.7052-1.4805 7.0852-1.821 7.8126-1.0938 0.9963 0.9967-0.3869 4.3268-17.531 41.844-6.6691 14.594-7.735 16.817-21.125 44-12.166 24.7-14.116 27.98-22.594 38.5-10.43 12.943-32.789 35.612-46.531 47.188-16.32 13.746-33.113 24.996-52.781 35.281-6.05 3.1639-11.185 5.9169-11.406 6.125s3.3786-1.0129 8-2.6875c25.028-9.0695 52.247-26.222 76.656-48.313 7.8279-7.0842 12.017-10.171 12.781-9.4062 0.6788 0.6788-2.329 8.8911-3.9375 10.75-0.7376 0.8523-4.704 7.6375-8.8125 15.062s-9.8622 17.55-12.781 22.5-7.4022 12.6-9.9688 17-7.3987 12.275-10.75 17.5c-20.716 32.298-28.932 44.739-38.125 57.813-5.6796 8.0766-10.761 15.456-11.281 16.406-3.0528 5.571 7.9966-5.8794 26.125-27.125 28.07-32.897 46.701-56.188 67.312-84.094 5.4842-7.425 11.132-15.077 12.562-17 6.0582-8.1437 24.43-35.739 34.469-51.781 10.868-17.367 25.952-44.566 32.844-59.219 3.2326-6.875 7.868-16.325 10.281-21 6.634-12.852 14.832-36.323 23.969-68.5 6.3557-22.386 6.3147-22.66-3.1876-13.125-13.266 13.314-25.302 19.98-45.75 25.312-8.5842 2.2387-12.694 2.6703-29 3.0625-16.225 0.3902-20.972 0.14285-32.5-1.7188-17.975-2.9028-26.952-5.0954-42.5-10.375-28.584-9.7065-53.193-21.938-72.906-36.281-3.7909-2.7582-5.238-3.7146-6.5625-3.625z" fill="#a5a075"/>
    <path d="m661.31 99.344c-76.935 2.7256-150.14 9.5949-225.44 25.719-41.255 8.8339-74.929 16.676-115.47 26.625-50.162 12.31-77.149 58.69-91.656 100.03-14.533 54.78-24.437 107.39-30.906 164.75-1.176 44.307-9.5855 90.714-6.9062 137-1.2648 96.662 4.2535 192.12 21.125 287.09 7.5686 28.404 12.926 62.444 22.844 92.219 11.415 35.085 26.601 76.956 47.75 110.53 18.363 29.152 47.823 58.239 72.312 84.75 17.256 18.681 46.961 49.796 60.156 63.938 48.626 52.111 101.29 108.2 167.06 135.22 38.892 15.977 98.177 13.012 144.56-2.9063 42.108-14.451 78.373-42.294 114.25-69.281 31.388-23.611 74.69-63.921 105.59-94.375 86.443-77.252 138.99-163.75 164.19-302.12 17.586-96.566 34.51-196.61 34.438-278.84-0.076-86.731-1.0487-175.53-26.875-261.97-9.5761-32.051-22.462-65.673-38.313-95.938-28.316-51.24-80.795-87.867-139.53-92.656-43.753-6.609-80.066-13.43-125.38-19.438-51.161-5.572-102.8-7.949-153.81-10.344zm-10.125 12.219c112.25 0.9125 225.21 13.806 333.97 41.312 86.132 35.721 117.08 134.86 133.78 218.84 28.71 173.55 13.962 352.95-27.25 523.28-20.091 70.395-42.251 142.27-93.375 197.62-70.368 76.19-143.7 150.63-233.47 204.84-37.571 22.688-104.18 42.22-155.03 28.906-107.43-28.124-176.51-136.24-255.56-213.72-102.95-95.02-128.07-241.37-144.25-374-14.674-160.44-12.7-325.54 30.688-481.66 9.4896-59.734 55.885-92.444 114-103.72 97.841-18.982 196.28-41.631 296.5-41.719zm63.469 400.09c-0.48255 0.0316-1.0312 1.362-1.6875 3.875-5.1321 19.652-8.2742 100.52-6.1875 159.25 1.626 45.766 3.0492 63.026 7.6562 91.781 5.7479 35.876 2.2521 47.96-15.812 54.656-14.334 5.313-25.819 7.9562-36.25 8.3125-9.219 0.315-11.14 8e-3 -24.281-3.7188-7.8398-2.2236-16.24-4.9745-18.688-6.125-5.6774-2.6687-12.091-9.5991-13.469-14.562-1.8114-6.5235-1.2482-22.518 1.375-38.656 4.3513-26.771 5.9502-44.728 7.5312-85.188 1.8037-46.152 0.80885-100.42-2.5312-138-2.1608-24.31-3.9092-33.372-6.0625-31.219-0.404 0.404-1.085 10.514-1.5 22.469-1.4903 42.931-8.3537 80.709-20.5 112.75-8.8125 23.247-24.301 49.802-42.875 73.5-4.4 5.6136-10.797 13.762-14.188 18.094-21.578 27.567-24.285 45.361-10.812 70.688 4.899 9.2091 11.105 18.219 12.562 18.219 1.2737 0 1.2814-0.0541-2.0312-7.4375-12.778-28.479-9.5187-45.612 13.062-68.594 14.036-14.284 40.906-39.436 42.938-40.188 5.2002-1.9236 6.0564 4.7082 3.4062 26.219-4.8922 39.709-4.6162 57.295 1.1875 73.625 3.2242 9.0718 8.8894 15.606 19.656 22.719 12.457 8.229 23.554 12.516 38.719 14.969 6.17 0.998 24.178 0.54385 31-0.78125 11.687-2.2701 17.634-4.285 29.5-10.031 17.535-8.4914 24.225-15.716 29.656-32 2.1624-6.4836 2.32-8.5489 2.25-28-0.056-15.642-0.6302-25.082-2.25-37-2.6277-19.333-2.7726-26.759-0.59375-28.938 0.8643-0.8643 1.9845-1.5625 2.5-1.5625 1.5095 0 21.874 18.892 40.312 37.406 18.244 18.319 23.865 28.378 23.875 42.688 3e-3 9.6764-1.5541 16.166-6.5 27.219-6.428 14.365-2.6404 12.356 7.1562-3.8125 9.4966-15.673 12.703-29.904 9.6562-42.875-2.8417-12.096-6.0922-17.239-32.531-51.25-18.769-24.144-31.803-46.195-41.062-69.438-12.726-31.944-20.089-70.056-21.531-111.44-0.67102-19.253-1.4231-27.706-2.6562-27.625z" fill="#ccccb1"/>
  </g>
</svg>