<?xml version="1.0" encoding="utf-8"?>
<svg viewBox="0 0 113 122" xmlns="http://www.w3.org/2000/svg">
  <defs/>
  <g transform="matrix(0.468588, 0, 0, 0.468588, -0.000089, 3.571553)">
    <g id="layer1" transform="translate(5.4981904,-643.73796)">
      <path style="fill-opacity: 1; fill-rule: nonzero; stroke: none; fill: rgb(103, 59, 183);" d="M -5.498 636.116 L -5.498 824.764 L 115.006 896.457 L 235.447 824.764 L 235.447 636.116 L 114.864 703.369 L -5.498 636.116 Z" id="path4371"/>
      <path style="fill-opacity: 1; fill-rule: nonzero; stroke: rgb(255, 211, 5); stroke-width: 0.177165; stroke-miterlimit: 4; stroke-opacity: 1; stroke-dasharray: none; fill: rgb(254, 192, 0);" d="M 220.99 723.238 L 114.959 784.269 L 8.959 723.238 L 8.959 760.082 L 114.959 821.113 L 220.99 760.082 L 220.99 723.238 Z" id="path3373-9"/>
      <path style="fill-opacity: 1; fill-rule: nonzero; stroke: rgb(255, 211, 5); stroke-width: 0.177165; stroke-miterlimit: 4; stroke-opacity: 1; stroke-dasharray: none; fill: rgb(254, 192, 0);" d="M 220.99 780.34 L 114.959 841.371 L 8.959 780.34 L 8.959 817.184 L 114.959 878.215 L 220.99 817.184 L 220.99 780.34 Z" id="path3373"/>
      <path style="fill-opacity: 1; fill-rule: nonzero; stroke: rgb(255, 211, 5); stroke-width: 0.177165; stroke-miterlimit: 4; stroke-opacity: 1; stroke-dasharray: none; fill: rgb(254, 192, 0);" d="M 220.99 663.486 L 114.959 724.517 L 8.959 663.486 L 8.959 700.33 L 114.959 761.361 L 220.99 700.33 L 220.99 663.486 Z" id="path-1"/>
    </g>
  </g>
</svg>