<svg xmlns="http://www.w3.org/2000/svg" width="400" height="400" fill="none">
  <rect width="400" height="400" fill="#3B00B9" rx="200"/>
  <path fill="url(#a)" fill-rule="evenodd" d="M44.887 211.516c5.617 76.714 66.877 137.975 143.592 143.592v17.324c-86.263-5.678-155.238-74.653-160.916-160.916h17.324Z" clip-rule="evenodd"/>
  <path fill="#29ABE2" fill-rule="evenodd" d="M188.396 44.808C111.682 50.425 50.421 111.686 44.804 188.4H27.48c5.678-86.263 74.653-155.238 160.916-160.916v17.324Z" clip-rule="evenodd"/>
  <path fill="url(#b)" fill-rule="evenodd" d="M355.113 188.312c-5.617-76.714-66.877-137.975-143.592-143.592V27.397c86.264 5.677 155.238 74.652 160.916 160.915h-17.324Z" clip-rule="evenodd"/>
  <path fill="#29ABE2" fill-rule="evenodd" d="M211.604 355.02c76.714-5.617 137.975-66.878 143.592-143.592h17.323c-5.677 86.263-74.652 155.238-160.915 160.916V355.02Z" clip-rule="evenodd"/>
  <path fill="#fff" d="M273.484 177.316c3.267-21.837-13.361-33.577-36.099-41.408l7.376-29.582-18.009-4.488-7.181 28.803c-4.734-1.18-9.597-2.293-14.428-3.396l7.232-28.992-17.999-4.487-7.38 29.571c-3.919-.892-7.766-1.774-11.5-2.702l.02-.093-24.835-6.2-4.791 19.232s13.362 3.062 13.08 3.252c7.293 1.82 8.612 6.646 8.391 10.472-6.739 27.032-13.465 54.002-20.209 81.038-.893 2.216-3.154 5.539-8.253 4.277.18.262-13.09-3.267-13.09-3.267l-8.94 20.612 23.435 5.842c4.36 1.092 8.633 2.236 12.839 3.313l-7.453 29.92 17.988 4.488 7.381-29.603a680.913 680.913 0 0 0 14.352 3.724l-7.356 29.464 18.009 4.487 7.453-29.864c30.708 5.811 53.8 3.467 63.52-24.304 7.832-22.361-.39-35.26-16.547-43.671 11.766-2.713 20.63-10.452 22.994-26.438Zm-41.146 57.692c-5.565 22.361-43.219 10.273-55.426 7.242l9.889-39.639c12.207 3.046 51.353 9.077 45.537 32.397Zm5.57-58.015c-5.078 20.34-36.417 10.006-46.583 7.473l8.966-35.952c10.166 2.533 42.905 7.262 37.617 28.479Z"/>
  <defs>
    <linearGradient id="a" x1="146.503" x2="38.455" y1="336.405" y2="245.415" gradientUnits="userSpaceOnUse">
      <stop offset=".21" stop-color="#ED1E79"/>
      <stop offset="1" stop-color="#522785"/>
    </linearGradient>
    <linearGradient id="b" x1="330.549" x2="222.502" y1="152.334" y2="61.346" gradientUnits="userSpaceOnUse">
      <stop offset=".21" stop-color="#F15A24"/>
      <stop offset=".684" stop-color="#FBB03B"/>
    </linearGradient>
  </defs>
</svg>
