<?xml version="1.0" encoding="utf-8"?>
<svg viewBox="0 0 500 500" xmlns="http://www.w3.org/2000/svg">
  <line style="fill: none; stroke: rgb(255,255,255); stroke-opacity: 0.7; stroke-linejoin: round; stroke-linecap: round;" x1="0" y1="0" x2="500" y2="0"/>
  <line style="fill: none; stroke: rgb(255,255,255);  stroke-opacity: 0.7; stroke-linejoin: round; stroke-linecap: round;" x1="500" y1="0" x2="500" y2="500"/>
  <line style="fill: none; stroke: rgb(255,255,255); stroke-opacity: 0.7;" x1="0" y1="500" x2="500" y2="0"/>
  <line style="fill: none; stroke: rgb(255,255,255);stroke-opacity: 0.7;" x1="0" y1="166.66" x2="500" y2="0"/>
  <line style="fill: none; stroke: rgb(255,255,255); stroke-opacity: 0.7;" x1="0" y1="333.333" x2="500" y2="0"/>
  <line style="fill: none; stroke: rgb(255,255,255); stroke-opacity: 0.7;" x1="166.7" y1="500" x2="500" y2="0"/>
  <line style="fill: none; stroke: rgb(255,255,255); stroke-opacity: 0.7;" x1="333.3" y1="500" x2="500" y2="0"/>
  <path style="stroke: rgb(255,255,255); fill: none; stroke-opacity: 0.7;" d="M 350.551 0.062 C 369.524 1.614 373.076 47.209 360.337 46.167"/>
  <path style="stroke: rgb(255,255,255); fill: none; stroke-opacity: 0.7;" d="M 500.175 128.896 C 501.004 116.501 459.42 113.843 458.7 124.613 C 465.139 116.953 435.77 99.807 426.179 111.216 C 435.229 101.91 405.553 94.026 398.662 101.112 C 409.445 90.099 388.011 71.43 379.8 79.816 C 391.482 73.889 372.363 40.544 360.681 46.471"/>
  <path style="stroke: rgb(255,255,255); fill: none; stroke-opacity: 0.7;" d="M 265.947 0.418 C 285.134 -2.793 299.272 69.782 281.41 72.771 C 300.393 66.018 324.717 121.492 308.223 127.359 C 324.604 118.762 351.226 155.34 336.993 162.81 C 351.883 151.261 384.512 175.246 374.419 188.71 C 382.891 174.829 435.557 203.223 428.196 215.284 C 427.937 200.235 499.521 203.295 499.907 225.708"/>
  <path style="stroke: rgb(255,255,255); fill: none; stroke-opacity: 0.7;" d="M 177.748 0.471 C 203.139 -6.935 215.9 95.572 192.261 102.467 C 218.683 96.032 236.277 182.721 219.59 186.785 C 239.521 171.385 276.572 227.469 258.016 241.806 C 280.029 228.154 320.289 277.744 304.963 291.922 C 319.438 269.692 399.55 311.604 386.504 340.158 C 392.099 312.96 501.656 331.471 500.019 369.525"/>
  <path style="stroke: rgb(255,255,255); fill: none; stroke-opacity: 0.7;" d="M 56.204 0.028 C 80.628 -1.549 97.241 140.287 75.281 141.705 C 93.819 130.801 131.508 247.396 112.97 258.3 C 126.737 248.035 179.02 324.944 163.175 336.758 C 184.266 318.731 245.646 394.665 226.011 411.447 C 235.472 389.672 357.731 432.196 345.702 459.883 C 347.112 440.884 502.3 459.254 500.327 485.842"/>
</svg>