<?xml version="1.0" encoding="utf-8"?>
<svg viewBox="0 0 361 361" xmlns="http://www.w3.org/2000/svg" xmlns:xlink="http://www.w3.org/1999/xlink" xmlns:bx="https://boxy-svg.com">
  <defs>
    <linearGradient id="b" bx:pinned="true">
      <stop offset="0" stop-color="#fbb03b"/>
      <stop offset="1" stop-color="#f05a24"/>
    </linearGradient>
    <linearGradient id="a" bx:pinned="true">
      <stop offset="0" stop-color="#5f2583"/>
      <stop offset="1" stop-color="#ed1e79"/>
    </linearGradient>
    <linearGradient id="d" x1="973.216" x2="973.216" y1="100.665" y2="388.077" gradientTransform="matrix(.97413 -.22842 .31045 1.35247 -95.3 85.515)" gradientUnits="userSpaceOnUse" xlink:href="#a"/>
    <linearGradient id="c" x1="188.919" x2="188.919" y1="1.638" y2="361.638" gradientTransform="matrix(-1 .0016 -.00202 -1.25907 376.78 357.265)" gradientUnits="userSpaceOnUse" xlink:href="#b"/>
  </defs>
  <g transform="translate(-69.987 -69.986)">
    <path fill="url(#c)" d="M8.919 181.638a180 180 0 1 0 360 0 180 180 0 1 0-360 0Zm80 0a100 100 0 0 1 200 0 100 100 0 0 1-200 0Z" transform="translate(61.094 68.348)"/>
    <path fill="url(#d)" d="M958.327 100.665a175.433 175.433 0 0 1 0 287.412l-45.03-64.31a96.924 96.924 0 0 0 0-158.791Z" paint-order="stroke" transform="matrix(1.03173 0 0 1.0208 -634.597 .545)"/>
    <circle cx="250" cy="250" r="100" style="fill: rgb(51, 51, 51);"/>
  </g>
  <path style="stroke: rgb(0, 0, 0); fill: rgb(51, 51, 51); stroke-width: 0px;" d="M 141.482 217.444 H 219.17 A 15 15 0 0 1 234.17 232.444 V 263.693 A 20 20 0 0 1 214.17 283.693 H 141.482 A 15 15 0 0 1 126.482 268.693 V 232.444 A 15 15 0 0 1 141.482 217.444 Z" transform="matrix(0.975379, 0.220535, -0.220535, 0.975379, 43.613056, -28.774082)" bx:shape="rect 126.482 217.444 107.688 66.249 15 15 20 15 1@5179be3d"/>
  <path d="M 187.594 18.616 C 201.152 18.616 212.144 29.899 212.144 43.819 C 212.144 53.143 207.235 61.333 199.87 65.617 L 199.87 81.62 L 212.144 81.62 C 259.599 81.62 298.07 121.112 298.07 169.828 L 310.343 169.828 C 317.122 169.828 322.619 175.469 322.619 182.427 L 322.619 220.231 C 322.619 227.191 317.122 232.833 310.343 232.833 L 298.07 232.833 L 298.07 245.434 C 298.07 259.351 287.077 270.636 273.52 270.636 L 101.669 270.636 C 88.109 270.636 77.12 259.351 77.12 245.434 L 77.12 232.833 L 64.844 232.833 C 58.064 232.833 52.569 227.191 52.569 220.231 L 52.569 182.427 C 52.569 175.469 58.064 169.828 64.844 169.828 L 77.12 169.828 C 77.12 121.112 115.589 81.62 163.044 81.62 L 175.319 81.62 L 175.319 65.617 C 167.954 61.333 163.044 53.143 163.044 43.819 C 163.044 29.899 174.035 18.616 187.594 18.616 M 132.357 157.226 C 115.408 157.226 101.669 171.33 101.669 188.729 C 101.669 206.127 115.408 220.231 132.357 220.231 C 149.304 220.231 163.044 206.127 163.044 188.729 C 163.044 171.33 149.304 157.226 132.357 157.226 M 242.831 157.226 C 225.883 157.226 212.144 171.33 212.144 188.729 C 212.144 206.127 225.883 220.231 242.831 220.231 C 259.781 220.231 273.52 206.127 273.52 188.729 C 273.52 171.33 259.781 157.226 242.831 157.226 Z" style="fill: rgb(51, 51, 51);" transform="matrix(0.975379, 0.220535, -0.220535, 0.975379, 36.51379, -37.810177)"/>
  <line x1="113.381" y1="142.708" x2="151.607" y2="180.559" style="fill: rgb(51, 51, 51); stroke-width: 11px; stroke: rgb(255, 255, 255);" transform="matrix(0.975379, 0.220535, -0.220535, 0.975379, 38.907925, -25.239972)"/>
  <line x1="113.486" y1="180.545" x2="151.586" y2="142.735" style="fill: rgb(51, 51, 51); stroke-width: 11px; stroke: rgb(255, 255, 255);" transform="matrix(0.975379, 0.220535, -0.220535, 0.975379, 38.910393, -25.249076)"/>
  <line x1="212.676" y1="166.054" x2="250.902" y2="203.906" style="fill: rgb(51, 51, 51); stroke-width: 11px; stroke: rgb(255, 255, 255);" transform="matrix(0.975379, 0.220535, -0.220535, 0.975379, 46.501372, -46.56316)"/>
  <line x1="212.781" y1="203.892" x2="250.881" y2="166.082" style="fill: rgb(51, 51, 51); stroke-width: 11px; stroke: rgb(255, 255, 255);" transform="matrix(0.975379, 0.220535, -0.220535, 0.975379, 46.503949, -46.572252)"/>
  <g style="" transform="matrix(0.550038, 0.124365, -0.106337, 0.470305, -149.032837, 127.184853)">
    <path d="M 569.4048333333334 37.5385 C 580.8816666666667 37.223 603.8353333333333 36.592 620.3271666666666 39.897166666666664 C 636.819 43.202333333333335 646.849 50.44366666666667 653.8560000000001 58.068000000000005 C 660.8629999999999 65.69233333333334 664.8470000000001 73.69966666666666 666.5588333333334 81.67216666666666 C 668.2706666666667 89.64466666666665 667.7103333333333 97.58233333333332 664.8083333333333 104.36766666666666 C 661.9063333333334 111.153 656.6626666666666 116.786 649.0665 119.94566666666667 C 641.4703333333333 123.10533333333332 631.5216666666666 123.79166666666667 622.7139999999999 121.58516666666667 C 613.9063333333334 119.37866666666666 606.2396666666667 114.27933333333334 600.9836666666666 108.49916666666667 C 595.7276666666667 102.71900000000001 592.8823333333333 96.258 590.8845 89.10416666666667 C 588.8866666666667 81.95033333333333 587.7363333333334 74.10366666666667 584.9428333333334 67.46000000000001 C 582.1493333333333 60.81633333333334 577.7126666666667 55.37566666666667 572.9363333333332 50.64183333333333 C 568.16 45.907999999999994 563.044 41.881 560.486 39.8675 C 557.928 37.854 557.928 37.854 557.928 37.85399999999999 C 557.928 37.854 557.928 37.854 569.4048333333334 37.5385" style="fill: rgb(249, 1, 158);" bx:d="M 557.928 37.854 U 626.789 35.961 U 656.879 57.685 U 668.831 81.707 U 667.15 105.52 U 651.419 122.419 U 621.573 124.478 U 598.573 109.18 U 590.037 89.797 U 586.586 66.257 U 573.276 49.935 U 557.928 37.854 U 557.928 37.854 Z 1@abed8ab8"/>
    <path style="fill: none; stroke: rgb(175, 22, 119); stroke-width: 5px;" d="M 608.801 53.124 C 624.101 54.519 639.488 67.965 645.823 81.77 C 648.28 87.124 648.605 93.269 650.463 98.834"/>
  </g>
</svg>