<svg width="51" height="24" viewBox="0 0 51 24" fill="none" xmlns="http://www.w3.org/2000/svg">
<path d="M38.4769 0C35.6353 0 32.5345 1.4592 29.2609 4.32C27.7057 5.6832 26.3713 7.1328 25.3633 8.304C25.3633 8.304 26.9473 10.032 28.7041 11.8848C29.6449 10.7616 31.0081 9.2352 32.5729 7.8624C35.4817 5.3088 37.3825 4.7712 38.4673 4.7712C42.5569 4.7712 45.8689 8.0064 45.8689 11.9904C45.8689 15.9744 42.5377 19.1808 38.4673 19.2096C38.2849 19.2096 38.0449 19.1808 37.7473 19.1232C38.9377 19.632 40.2145 20.0064 41.4337 20.0064C48.9121 20.0064 50.3809 15.1296 50.4769 14.7744C50.6977 13.8816 50.8129 12.9504 50.8129 11.9904C50.8129 5.3856 45.2737 0.0096 38.4673 0.0096L38.4769 0Z" fill="url(#paint0_linear_1670_14265)"/>
<path d="M12.3456 24.0004C15.1872 24.0004 18.288 22.5412 21.5616 19.6804C23.1168 18.3172 24.4512 16.8676 25.4592 15.6964C25.4592 15.6964 23.8752 13.9684 22.1184 12.1156C21.1776 13.2388 19.8144 14.7652 18.2496 16.138C15.3408 18.6916 13.44 19.2292 12.3552 19.2292C8.2656 19.2292 4.9536 15.9844 4.9536 12.0004C4.9536 8.01638 8.2848 4.80997 12.3552 4.78117C12.5376 4.78117 12.7776 4.80998 13.0752 4.86758C11.8848 4.35878 10.608 3.98438 9.3888 3.98438C1.9008 3.98438 0.4416 8.87078 0.336 9.21638C0.1152 10.1188 0 11.0404 0 12.0004C0 18.6148 5.5392 24.0004 12.3456 24.0004Z" fill="url(#paint1_linear_1670_14265)"/>
<path d="M41.4239 19.9008C37.5935 19.8048 33.6191 16.7904 32.8031 16.032C30.7007 14.0928 25.8623 8.8416 25.4783 8.4288C21.9359 4.4448 17.1263 0 12.3455 0H12.3263C6.51834 0.0288 1.64154 3.9648 0.335938 9.216C0.431938 8.8704 2.35194 3.8976 9.36954 4.0704C13.1999 4.1664 17.1935 7.2288 18.0191 7.9776C20.1215 9.9168 24.9599 15.168 25.3439 15.5808C28.8863 19.5552 33.6959 24 38.4863 24H38.5055C44.3135 23.9712 49.1999 20.0352 50.4959 14.784C50.3903 15.1296 48.4703 20.064 41.4335 19.8912L41.4239 19.9008Z" fill="#29ABE2"/>
<defs>
<linearGradient id="paint0_linear_1670_14265" x1="32.0545" y1="1.5744" x2="48.8353" y2="18.96" gradientUnits="userSpaceOnUse">
<stop offset="0.21" stop-color="#F15A24"/>
<stop offset="0.68" stop-color="#FBB03B"/>
</linearGradient>
<linearGradient id="paint1_linear_1670_14265" x1="18.768" y1="22.4164" x2="1.9872" y2="5.04038" gradientUnits="userSpaceOnUse">
<stop offset="0.21" stop-color="#ED1E79"/>
<stop offset="0.89" stop-color="#522785"/>
</linearGradient>
</defs>
</svg>
