<svg class="h-24 transition-transform" xmlns="http://www.w3.org/2000/svg" fill="none" viewBox="0 0 42 71"><path fill="#F47421" d="M13.4 4.3s-1 10.1.5 11.8c1.6 1.6 11 5.4 12.9 8.4 1.8 3.1.4 8.5 12 18.2 4.2 3.6 2 20.3-1.2 23.5C33.9 69.9 16 73.6 8 68.5c-6.3-4-8.2-14.3-8-17.3.3-3.1 9.4-17 12-20.7 2.5-3.8-4-5.9-4.5-8.5-.6-2.7 1-13.8 5.9-17.7ZM36.3 31.2c-1.6 1.1-4.9-2.6-4.9-4.8 0-2.3 3.7-5.3 3-11 0 0 5.4 13.4 1.9 15.8ZM22.6 15.5c-2.5-1.7-4.2-4.5-3.8-7 .4-2.3 3.5-7.1 3.4-8.5 0 0-.8 7.9.4 10 1.2 2.2 2 6.8 0 5.5Z"></path><path fill="#F47421" d="M4.7 35.9s4.3-4.5 2.3-8c-2-3.3-2.9-6.4-2.8-8.7 0 0-4 13.7.5 16.7Z"></path><path fill="#fff" d="m28.4 45.3-5.8.7-2.4 3.4-3.2-2.8-5.7.7L9 50.7l.6 5.9 12.6 9 10.1-11.7-.7-5.8-3.1-2.8Z"></path></svg>