<svg width="24" height="24" viewBox="0 0 24 24" fill="none" xmlns="http://www.w3.org/2000/svg">
    <circle cx="12" cy="12" r="12" fill="#F4F1FA"/>
    <path d="M16.628 7.52734C15.6218 7.52734 14.5249 8.04296 13.3656 9.05858C12.8156 9.53982 12.3406 10.0554 11.9844 10.4679C11.9844 10.4679 11.9844 10.4679 11.9875 10.4711V10.4679C11.9875 10.4679 12.5499 11.0804 13.1718 11.7367C13.5062 11.3398 13.9875 10.7992 14.5405 10.3117C15.5718 9.40858 16.2436 9.21795 16.628 9.21795C18.0749 9.21795 19.2499 10.3648 19.2499 11.7742C19.2499 13.1742 18.0718 14.321 16.628 14.3304C16.5624 14.3304 16.478 14.321 16.3718 14.2991C16.7937 14.4804 17.2468 14.6116 17.6781 14.6116C20.328 14.6116 20.8467 12.8835 20.8811 12.7585C20.9592 12.4429 20.9999 12.1117 20.9999 11.7711C20.9999 9.43357 19.0374 7.52734 16.628 7.52734Z" fill="url(#paint0_linear_35_9454)"/>
    <path d="M7.37183 16.0289C8.37807 16.0289 9.47494 15.5132 10.6343 14.4976C11.1843 14.0164 11.6593 13.5007 12.0155 13.0882C12.0155 13.0882 12.0155 13.0882 12.0124 13.0851V13.0882C12.0124 13.0882 11.4499 12.4757 10.828 11.8195C10.4937 12.2164 10.0124 12.757 9.45931 13.2445C8.42807 14.1476 7.7562 14.3382 7.37183 14.3382C5.92497 14.3351 4.74998 13.1882 4.74998 11.7789C4.74998 10.3789 5.92809 9.23203 7.37183 9.22266C7.43746 9.22266 7.52182 9.23203 7.62808 9.25391C7.20621 9.07266 6.75308 8.94141 6.32184 8.94141C3.67187 8.94141 3.15625 10.6695 3.11875 10.7914C3.04062 11.1101 3 11.4383 3 11.7789C3 14.1226 4.96248 16.0289 7.37183 16.0289Z" fill="url(#paint1_linear_35_9454)"/>
    <path d="M17.6716 14.5741C16.3154 14.5398 14.906 13.471 14.6185 13.2054C13.8748 12.5179 12.1591 10.6586 12.0248 10.5117C10.7686 9.10233 9.06546 7.52734 7.37173 7.52734H7.36861H7.36548C5.30925 7.53672 3.58115 8.93045 3.11865 10.7898C3.15303 10.6679 3.83115 8.90545 6.31862 8.96796C7.67485 9.00233 9.09046 10.0867 9.38109 10.3523C10.1248 11.0398 11.8405 12.8992 11.9748 13.046C13.2311 14.4523 14.9341 16.0273 16.6279 16.0273H16.631H16.6341C18.6903 16.0179 20.4216 14.6241 20.881 12.7648C20.8435 12.8867 20.1622 14.6335 17.6716 14.5741Z" fill="#2CBAF7"/>
    <defs>
        <linearGradient id="paint0_linear_35_9454" x1="14.3523" y1="8.08779" x2="20.2963" y2="14.243" gradientUnits="userSpaceOnUse">
            <stop offset="0.21" stop-color="#FF591E"/>
            <stop offset="0.6841" stop-color="#FBB03B"/>
        </linearGradient>
        <linearGradient id="paint1_linear_35_9454" x1="9.6476" y1="15.4684" x2="3.70359" y2="9.31318" gradientUnits="userSpaceOnUse">
            <stop offset="0.21" stop-color="#ED1E79"/>
            <stop offset="0.8929" stop-color="#8134DC"/>
        </linearGradient>
    </defs>
</svg>