<?xml version="1.0" encoding="utf-8"?>
<!-- Generator: Adobe Illustrator 26.0.1, SVG Export Plug-In . SVG Version: 6.00 Build 0)  -->
<svg version="1.1" id="Layer_1" xmlns="http://www.w3.org/2000/svg" xmlns:xlink="http://www.w3.org/1999/xlink" x="0px" y="0px"
	 viewBox="0 0 389.2 133.2" style="enable-background:new 0 0 389.2 133.2;" xml:space="preserve">
<style type="text/css">
	.st0{opacity:0.65;}
	.st1{fill:#424242;}
	.st2{fill:#FFFFFF;}
</style>
<g class="st0">
	<g>
		<path class="st1" d="M381.6,49.3l-13.7-13.1c-1.5-1.4-3.4-2.2-5.5-2.2c-2.1,0-4,0.8-5.5,2.2l-20.3,19.4l-20.3-19.4
			c-1.5-1.4-3.4-2.2-5.5-2.2c-2.1,0-4,0.8-5.5,2.2l-13.7,13.1c-0.9,0.9-1.6,2-1.9,3.1c-7.2-9.6-18.9-15.8-30.9-15.8
			c-0.8,0-2.4,0-3,0l-31.2,0c-2.9,0-5.4,1.5-6.8,3.8c-1.3-2.2-3.9-3.8-6.8-3.8h-19.4c-4.3,0-7.8,3.3-7.8,7.4v59.3
			c-1.4-1.6-3.6-2.6-5.9-2.6h-30.6c-0.1,0-0.1-0.1-0.1-0.1V44c0-4.1-3.5-7.4-7.8-7.4h-19.4c-4.3,0-7.8,3.3-7.8,7.4v77.6L86.1,83.2
			l24.6-38.6c1.1-1.8,1.2-4.1,0.1-5.9c-1.1-1.8-3.1-3-5.3-3H105l-16.3,3.5C76.2,42,71.3,48.6,65.1,57c-0.8,1-1.6,2.1-2.4,3.2v-14
			c0.3,0.1,0.6,0.1,0.9,0.1h0c0.9,0,1.8-0.3,2.5-0.7L79.7,37L67,30.5L62.1,25C60.1,22.7,41.5,2.5,27.5,2.5c-4.3,0-7.8,1.8-10.4,5.2
			L17,7.8c-0.3,0.5-3.2,5-1.3,9.6c0.2,0.6,0.6,1.2,1.1,1.9C11.4,22,5.1,26.9,5.4,34.9c0.1,4.5,4,8.1,8.7,8.1c0,0,0,0,0,0
			c0.8,0,1.7-0.1,2.5-0.3c-1.1,5.5-1.3,12.7,1.5,19.9l0.9,2.3h2.6c0.2,0,0.5,0,0.7-0.1c-0.4,3.3-0.5,6.7-0.5,10v50
			c0,3.2,2.7,5.8,6.1,5.8h28.6c3.4,0,6.1-2.6,6.1-5.8v-16.2l6.8,18.8l0.2,0.3c1.1,1.7,3.1,2.8,5.2,2.8c0,0,32.2,0,32.2,0
			c2.3,0,4.3-1.2,5.4-3.1c0.2-0.4,0.4-0.8,0.5-1.2c1.3,2.4,3.9,4,6.9,4h57.9c3,0,5.5-1.6,6.9-3.9c1.3,2.3,3.9,3.9,6.9,3.9h19.4
			c2.9,0,5.4-1.5,6.8-3.8c1.3,2.2,3.9,3.8,6.8,3.8h19.4c4.3,0,7.8-3.3,7.8-7.4v-18.4c2.9,0.6,5.9,0.9,8.7,0.9c0,0,0,0,0,0
			c9.6,0,18-3.4,25.1-10.1c9.8-9.3,13.2-21,9.6-32.4L319,86v37.1c0,4.1,3.5,7.4,7.8,7.4h19.4c4.3,0,7.8-3.3,7.8-7.4V86l27.6-26.3
			C384.6,56.9,384.6,52.2,381.6,49.3z M263.2,75.3c-1.5,1-3.1,1.5-4.6,1.5c-2.3,0-4.5-1.2-5.5-3.2c-0.7-1.3-1.5-3.9,0.9-7.1
			c1.5-1,3.1-1.5,4.6-1.5c2.3,0,4.5,1.2,5.5,3.2C264.8,69.5,265.6,72.1,263.2,75.3z"/>
	</g>
	<g>
		<g>
			<path class="st2" d="M210.8,126.9h-19c-2.3,0-4.2-1.9-4.2-4.2V44.4c0-2.3,1.9-4.2,4.2-4.2h19c2.3,0,4.2,1.9,4.2,4.2v78.4
				C214.9,125.1,213,126.9,210.8,126.9z"/>
			<path class="st2" d="M143.3,100.5V44c0-2.1-1.8-3.8-4-3.8h-19.4c-2.2,0-4,1.7-4,3.8v60.3v18.9c0,2.1,1.8,3.8,4,3.8h23.4h34.5
				c2.2,0,4-1.7,4-3.8V108c0-2.1-1.8-3.8-4-3.8h-30.6C145.1,104.3,143.3,102.6,143.3,100.5z"/>
			<path class="st2" d="M258.6,40.2c-1,0-3.2,0-3.2,0l-9.6,0h-21.4c-2.2,0-4,1.7-4,3.8v79.1c0,2.1,1.8,3.8,4,3.8h19.4
				c2.2,0,4-1.7,4-3.8l0-21.7c0-0.7,0.7-1.2,1.3-1c9.8,2.7,22.6,3,33.5-7.4C306,70.7,283.9,40.2,258.6,40.2z M265.4,78.3
				c-10.4,7-21.9-3.9-14.5-13.8c0.2-0.3,0.5-0.6,0.9-0.8c10.4-7,21.9,3.9,14.5,13.8C266.1,77.8,265.8,78.1,265.4,78.3z"/>
			<path class="st2" d="M378.9,51.8l-13.7-13.1c-1.5-1.5-4-1.5-5.6,0l-21.9,20.9c-0.6,0.6-1.6,0.6-2.2,0l-21.9-20.9
				c-1.5-1.5-4-1.5-5.6,0l-13.7,13.1c-1.5,1.5-1.5,3.9,0,5.3L322.4,84c0.3,0.3,0.5,0.7,0.5,1.1v38c0,2.1,1.8,3.8,4,3.8h19.4
				c2.2,0,4-1.7,4-3.8v-38c0-0.4,0.2-0.8,0.5-1.1l28.2-26.9C380.4,55.7,380.4,53.3,378.9,51.8z"/>
			<g>
				<g>
					<g>
						<path class="st2" d="M109.1,123.7L82.4,84.4c-0.5-0.7-0.5-1.6,0-2.3l25.1-39.3c0.9-1.5-0.2-3.4-2-3.4l-15.9,3.4
							C77,45.5,73.3,52.5,65.7,62.5c-1.5,2-2.4,3.3-2.4,3.3c-1.2,2-4.3,1.2-4.3-1V32.3c-9.6,0-14.6,3.3-18.6,6.4
							c-12,9.5-14.7,21.2-14.7,36.1v50c0,1.2,1,2.2,2.3,2.2h28.6c1.3,0,2.3-1,2.3-2.2v-25c0-2.2,3.1-3,4.3-1.1L73,126
							c0.4,0.7,1.2,1.1,2,1.1h32.2C109,127.1,110.1,125.2,109.1,123.7z M52.4,43.8c-1.7,0-3.1-1.3-3.1-3s1.4-3,3.1-3
							c1.7,0,3.1,1.3,3.1,3S54.1,43.8,52.4,43.8z"/>
					</g>
					<path class="st2" d="M21.7,61.2c0.3,0.6,2.5-33.5,37.6-33.8c0,0-28.5-31.8-39-17.6c0,0-5.2,7.8,4.9,10.2c0,0-16.2,4-15.9,14.8
						c0.1,3.4,3.7,5.5,6.9,4.2c1.9-0.8,4.3-2.3,7.3-5C23.4,33.9,16.3,47.6,21.7,61.2z"/>
				</g>
				<path class="st2" d="M62.8,33.7V42c0,0.6,0.7,0.9,1.2,0.6l8.3-5.3L64,33.1C63.5,32.8,62.8,33.1,62.8,33.7z"/>
			</g>
		</g>
		<path class="st2" d="M210.8,126.9h-19c-2.3,0-4.2-1.9-4.2-4.2V44.4c0-2.3,1.9-4.2,4.2-4.2h19c2.3,0,4.2,1.9,4.2,4.2v78.4
			C214.9,125.1,213,126.9,210.8,126.9z"/>
		<path class="st2" d="M143.3,100.5V44c0-2.1-1.8-3.8-4-3.8h-19.4c-2.2,0-4,1.7-4,3.8v60.3v18.9c0,2.1,1.8,3.8,4,3.8h23.4h34.5
			c2.2,0,4-1.7,4-3.8V108c0-2.1-1.8-3.8-4-3.8h-30.6C145.1,104.3,143.3,102.6,143.3,100.5z"/>
		<path class="st2" d="M258.6,40.2c-1,0-3.2,0-3.2,0l-9.6,0h-21.4c-2.2,0-4,1.7-4,3.8v79.1c0,2.1,1.8,3.8,4,3.8h19.4
			c2.2,0,4-1.7,4-3.8l0-21.7c0-0.7,0.7-1.2,1.3-1c9.8,2.7,22.6,3,33.5-7.4C306,70.7,283.9,40.2,258.6,40.2z M265.4,78.3
			c-10.4,7-21.9-3.9-14.5-13.8c0.2-0.3,0.5-0.6,0.9-0.8c10.4-7,21.9,3.9,14.5,13.8C266.1,77.8,265.8,78.1,265.4,78.3z"/>
		<path class="st2" d="M378.9,51.8l-13.7-13.1c-1.5-1.5-4-1.5-5.6,0l-21.9,20.9c-0.6,0.6-1.6,0.6-2.2,0l-21.9-20.9
			c-1.5-1.5-4-1.5-5.6,0l-13.7,13.1c-1.5,1.5-1.5,3.9,0,5.3L322.4,84c0.3,0.3,0.5,0.7,0.5,1.1v38c0,2.1,1.8,3.8,4,3.8h19.4
			c2.2,0,4-1.7,4-3.8v-38c0-0.4,0.2-0.8,0.5-1.1l28.2-26.9C380.4,55.7,380.4,53.3,378.9,51.8z"/>
		<g>
			<path class="st2" d="M109.1,123.7L82.4,84.4c-0.5-0.7-0.5-1.6,0-2.3l25.1-39.3c0.9-1.5-0.2-3.4-2-3.4l-15.9,3.4
				C77,45.5,73.3,52.5,65.7,62.5c-1.5,2-2.4,3.3-2.4,3.3c-1.2,2-4.3,1.2-4.3-1V32.3c-9.6,0-14.6,3.3-18.6,6.4
				c-12,9.5-14.7,21.2-14.7,36.1v50c0,1.2,1,2.2,2.3,2.2h28.6c1.3,0,2.3-1,2.3-2.2v-25c0-2.2,3.1-3,4.3-1.1L73,126
				c0.4,0.7,1.2,1.1,2,1.1h32.2C109,127.1,110.1,125.2,109.1,123.7z M52.4,43.8c-1.7,0-3.1-1.3-3.1-3s1.4-3,3.1-3
				c1.7,0,3.1,1.3,3.1,3S54.1,43.8,52.4,43.8z"/>
			<path class="st2" d="M21.7,61.2c0.3,0.6,2.5-33.5,37.6-33.8c0,0-28.5-31.8-39-17.6c0,0-5.2,7.8,4.9,10.2c0,0-16.2,4-15.9,14.8
				c0.1,3.4,3.7,5.5,6.9,4.2c1.9-0.8,4.3-2.3,7.3-5C23.4,33.9,16.3,47.6,21.7,61.2z"/>
		</g>
		<path class="st2" d="M62.8,33.7V42c0,0.6,0.7,0.9,1.2,0.6l8.3-5.3L64,33.1C63.5,32.8,62.8,33.1,62.8,33.7z"/>
	</g>
</g>
</svg>
