<svg xmlns="http://www.w3.org/2000/svg" width="412" height="390" fill="none" viewBox="0 0 412 390"><g clip-path="url(#a)"><path fill="#1c1d26" d="M0 0h412v390H0z"/><path fill="#000" fill-opacity=".2" d="M0 0h412v390H0z"/><g opacity=".5"><mask id="b" width="412" height="770" x="0" y="0" maskUnits="userSpaceOnUse" style="mask-type:alpha"><path fill="#e41e79" d="M0 0h412v770H0z"/></mask><g mask="url(#b)"><g filter="url(#c)"><ellipse cx="408" cy="378.783" fill="url(#d)" rx="196" ry="129.809"/></g><g filter="url(#e)"><ellipse cx="408" cy="68.783" fill="url(#f)" rx="196" ry="129.809"/></g><g filter="url(#g)"><ellipse cx="217.217" cy="90.188" fill="#13151d" rx="168.791" ry="118.672"/></g><g filter="url(#h)"><ellipse cx="-2.5" cy="225.444" fill="url(#i)" rx="178.5" ry="125.672"/></g><g filter="url(#j)"><ellipse cx="147.217" cy="430.188" fill="#13151d" rx="168.791" ry="118.672"/></g></g></g><rect width="48" height="48" x="16" y="64" fill="#1c1d26" rx="24"/><path fill="#50535d" fill-rule="evenodd" d="M47.2 83.2a7.2 7.2 0 1 1-14.4 0 7.2 7.2 0 0 1 14.4 0m-2.4 0a4.8 4.8 0 1 1-9.6 0 4.8 4.8 0 0 1 9.6 0" clip-rule="evenodd"/><path fill="#50535d" d="M40 94c-7.769 0-14.389 4.594-16.91 11.03q.922.916 1.938 1.728C26.906 100.849 32.796 96.4 40 96.4s13.095 4.449 14.972 10.358a24 24 0 0 0 1.939-1.728C54.389 98.594 47.77 94 40 94"/><path fill="#50535d" d="M40 96c7.347 0 13.736 3.74 17 9.244C53.05 109.357 46.903 112 40 112s-13.05-2.644-17-6.756C26.264 99.74 32.653 96 40 96"/><circle cx="40" cy="83" r="5" fill="#50535d"/><path fill="#1c1d26" d="M72 68a4 4 0 0 1 4-4h240c8.837 0 16 7.163 16 16v76c0 8.837-7.163 16-16 16H88c-8.837 0-16-7.163-16-16z"/><path fill="#a7a9ae" d="M86 84a6 6 0 0 1 6-6h28a6 6 0 1 1 0 12H92a6 6 0 0 1-6-6"/><path fill="url(#k)" fill-rule="evenodd" d="M101.007 106c9.389 0 17 7.611 17 17s-7.611 17-17 17-17-7.611-17-17 7.611-17 17-17m0 7.555a9.444 9.444 0 1 0 0 18.889 9.444 9.444 0 0 0 9.444-9.444c0-5.216-4.228-9.445-9.444-9.445" clip-rule="evenodd"/><path fill="url(#l)" d="M110.81 109.11c4.354 3.078 7.197 8.152 7.197 13.89s-2.844 10.813-7.198 13.891l-4.421-6.129a9.43 9.43 0 0 0 4.063-7.762 9.43 9.43 0 0 0-4.105-7.791z"/><path fill="#fff" d="M138.359 136.495q-3.564 0-6.105-1.551-2.541-1.567-3.911-4.356-1.353-2.788-1.353-6.468t1.353-6.468q1.37-2.789 3.911-4.34 2.541-1.567 6.105-1.567t6.105 1.567q2.557 1.551 3.91 4.34 1.37 2.788 1.37 6.468t-1.37 6.468q-1.353 2.789-3.91 4.356-2.541 1.551-6.105 1.551m0-3.746q2.392.016 3.976-1.056 1.6-1.072 2.393-3.019.808-1.947.808-4.554t-.808-4.521q-.792-1.93-2.393-3.003-1.584-1.073-3.976-1.106-2.393-.017-3.977 1.056t-2.392 3.02q-.792 1.947-.792 4.554t.792 4.537q.792 1.914 2.376 2.987 1.6 1.072 3.993 1.105m23.232 3.746q-2.607 0-4.372-1.238-1.766-1.238-2.657-3.366-.891-2.145-.891-4.801 0-2.69.891-4.818.891-2.129 2.607-3.35 1.733-1.237 4.274-1.237 2.524 0 4.372 1.237 1.865 1.221 2.888 3.35 1.023 2.112 1.023 4.818 0 2.673-1.007 4.801t-2.838 3.366q-1.832 1.238-4.29 1.238m-8.596 7.425v-25.74h3.514v12.507h.495v13.233zm7.986-10.989q1.55 0 2.557-.776 1.006-.775 1.485-2.095.495-1.337.495-2.97 0-1.617-.495-2.937-.495-1.337-1.534-2.112-1.04-.792-2.64-.792-1.518 0-2.475.742-.957.726-1.419 2.046-.446 1.304-.446 3.053 0 1.732.446 3.052.462 1.32 1.435 2.063.99.726 2.591.726m20.483 3.564q-2.706 0-4.752-1.172a8.34 8.34 0 0 1-3.201-3.25q-1.138-2.079-1.138-4.785 0-2.92 1.122-5.066 1.122-2.161 3.118-3.349t4.62-1.188q2.772 0 4.703 1.303 1.947 1.287 2.887 3.647t.71 5.56h-3.944v-1.452q-.017-2.904-1.023-4.24t-3.168-1.337q-2.442 0-3.63 1.518-1.188 1.502-1.188 4.406 0 2.706 1.188 4.191t3.465 1.485q1.469 0 2.525-.644 1.072-.66 1.65-1.897l3.927 1.188q-1.023 2.409-3.168 3.745-2.129 1.337-4.703 1.337m-6.138-8.3v-3.003h12.26v3.003zm29.73 7.805v-8.58q0-.842-.115-1.865a6.4 6.4 0 0 0-.545-1.963 3.7 3.7 0 0 0-1.254-1.568q-.825-.61-2.244-.61-.759 0-1.501.247a3.45 3.45 0 0 0-1.353.858q-.594.594-.957 1.65-.363 1.04-.363 2.673l-2.36-1.006q0-2.277.875-4.125a7 7 0 0 1 2.607-2.937q1.716-1.106 4.224-1.106 1.98 0 3.267.66t2.046 1.683 1.122 2.178.462 2.195q.115 1.023.115 1.666V136zm-12.358 0v-17.82h3.547v5.527h.479V136zm30.739.495q-3.564 0-6.105-1.551-2.541-1.567-3.911-4.356-1.353-2.788-1.353-6.468t1.353-6.468q1.37-2.789 3.911-4.34 2.541-1.567 6.105-1.567 4.108 0 6.847 2.062 2.74 2.046 3.845 5.528l-4.01 1.105q-.693-2.326-2.359-3.63-1.666-1.32-4.323-1.32-2.392 0-3.993 1.073-1.584 1.072-2.393 3.019-.792 1.93-.808 4.538 0 2.607.792 4.554.809 1.93 2.409 3.003 1.6 1.072 3.993 1.072 2.656 0 4.323-1.32 1.666-1.32 2.359-3.63l4.01 1.106q-1.106 3.482-3.845 5.544-2.739 2.046-6.847 2.046m26.64-.495v-8.58q0-.842-.116-1.865a6.4 6.4 0 0 0-.544-1.963 3.7 3.7 0 0 0-1.254-1.568q-.825-.61-2.244-.61-.76 0-1.502.247a3.45 3.45 0 0 0-1.353.858q-.594.594-.957 1.65-.363 1.04-.363 2.673l-2.359-1.006q0-2.277.874-4.125a7 7 0 0 1 2.607-2.937q1.716-1.106 4.224-1.106 1.98 0 3.267.66t2.046 1.683 1.122 2.178.462 2.195q.116 1.023.116 1.666V136zm-12.359 0v-23.76h3.548v12.507h.478V136zm25.674.495q-1.93 0-3.267-.726-1.337-.743-2.03-1.964a5.45 5.45 0 0 1-.676-2.689q0-1.287.429-2.31a4.56 4.56 0 0 1 1.32-1.782q.891-.76 2.31-1.238a22 22 0 0 1 2.508-.627 59 59 0 0 1 3.135-.511 596 596 0 0 0 3.547-.528l-1.419.808q.017-1.848-.825-2.722-.841-.875-2.838-.875-1.204 0-2.326.561t-1.568 1.931l-3.63-1.139q.66-2.26 2.508-3.63 1.864-1.37 5.016-1.369 2.376 0 4.175.775a5.18 5.18 0 0 1 2.689 2.541q.479.94.578 1.931.099.973.099 2.128V136h-3.482v-3.861l.578.627q-1.205 1.93-2.822 2.838-1.6.891-4.009.891m.792-3.168q1.353 0 2.31-.479.957-.478 1.518-1.171.577-.693.775-1.304.314-.759.347-1.732.05-.99.049-1.601l1.221.363q-1.798.28-3.085.495t-2.211.413q-.924.181-1.634.412a5 5 0 0 0-1.171.578 2.6 2.6 0 0 0-.743.759 2 2 0 0 0-.247 1.006q0 .66.33 1.172.33.495.957.792.644.297 1.584.297M287.867 136q-1.766.33-3.465.281-1.683-.033-3.02-.611a4.2 4.2 0 0 1-2.029-1.865q-.61-1.155-.644-2.359a100 100 0 0 1-.033-2.723V113.23h3.96v15.262q0 1.073.017 1.881.033.809.346 1.32.594.99 1.898 1.106 1.303.115 2.97-.132zm-12.425-14.702v-3.118h12.425v3.118z"/><path fill="#a7a9ae" d="M296 154a6 6 0 0 1 6-6h12a6 6 0 1 1 0 12h-12a6 6 0 0 1-6-6"/><path fill="#dc3954" d="M130 204c0-8.837 7.163-16 16-16h230a4 4 0 0 1 4 4v64c0 8.837-7.163 16-16 16H146c-8.837 0-16-7.163-16-16z"/><path stroke="#b2e2ff" stroke-linecap="round" stroke-width="3" d="M146 207q2-8 4 0t4 0 4 0 4 0 4 0 4 0 4 0 4 0 4 0 4 0 4 0 4 0 4 0 4 0 4 0"/><path stroke="#feb3bf" stroke-linecap="round" stroke-width="3" d="M216 207q2-8 4 0t4 0 4 0 4 0 4 0 4 0 4 0 4 0 4 0 4 0"/><path stroke="#184967" stroke-linecap="round" stroke-width="3" d="M266 207q2-8 4 0t4 0 4 0 4 0 4 0"/><path stroke="#feb3bf" stroke-linecap="round" stroke-width="3" d="M296 207q2-8 4 0t4 0 4 0 4 0 4 0 4 0 4 0 4 0 4 0 4 0M346 207q2-8 4 0t4 0 4 0 4 0 4 0M146 229q2-8 4 0t4 0 4 0 4 0 4 0"/><path stroke="#f4a5c9" stroke-linecap="round" stroke-width="3" d="M176 229q2-8 4 0t4 0 4 0 4 0 4 0 4 0 4 0 4 0 4 0 4 0 4 0 4 0 4 0 4 0 4 0"/><path stroke="#feb3bf" stroke-linecap="round" stroke-width="3" d="M246 229q2-8 4 0t4 0 4 0 4 0 4 0 4 0 4 0 4 0 4 0 4 0"/><path stroke="#4c1f42" stroke-linecap="round" stroke-width="3" d="M296 229q2-8 4 0t4 0 4 0 4 0 4 0"/><path stroke="#feb3bf" stroke-linecap="round" stroke-width="3" d="M326 229q2-8 4 0t4 0 4 0 4 0 4 0 4 0 4 0 4 0 4 0 4 0"/><path fill="#feb3bf" d="M312 252a6 6 0 0 1 6-6h12a6 6 0 1 1 0 12h-12a6 6 0 0 1-6-6"/><g clip-path="url(#m)"><rect width="16" height="16" x="340" y="244" fill="#feb3bf" rx="8"/><path fill="#ff5672" d="m351.75 249.917-5 5-2.292-2.292.588-.588 1.704 1.7 4.412-4.408z"/><rect width="17" height="17" x="351.5" y="243.5" fill="#feb3bf" rx="8.5"/><rect width="17" height="17" x="351.5" y="243.5" stroke="#dc3954" rx="8.5"/><path fill="#ff5672" d="m363.75 249.917-5 5-2.292-2.292.588-.588 1.704 1.7 4.412-4.408z"/></g><rect width="48" height="48" x="16" y="288" fill="#1c1d26" rx="24"/><path fill="#50535d" fill-rule="evenodd" d="M47.2 307.2a7.2 7.2 0 1 1-14.4 0 7.2 7.2 0 0 1 14.4 0m-2.4 0a4.8 4.8 0 1 1-9.6 0 4.8 4.8 0 0 1 9.6 0" clip-rule="evenodd"/><path fill="#50535d" d="M40 318c-7.769 0-14.389 4.594-16.91 11.03q.922.916 1.938 1.728C26.906 324.849 32.796 320.4 40 320.4s13.095 4.449 14.972 10.358a24 24 0 0 0 1.939-1.728C54.389 322.594 47.77 318 40 318"/><path fill="#50535d" d="M40 320c7.347 0 13.736 3.74 17 9.244C53.05 333.357 46.903 336 40 336s-13.05-2.644-17-6.756C26.264 323.74 32.653 320 40 320"/><circle cx="40" cy="307" r="5" fill="#50535d"/><path fill="#1c1d26" d="M72 292a4 4 0 0 1 4-4h240c8.837 0 16 7.163 16 16v70c0 8.837-7.163 16-16 16H88c-8.837 0-16-7.163-16-16z"/><path fill="#a7a9ae" d="M86 308a6 6 0 0 1 6-6h28a6 6 0 1 1 0 12H92a6 6 0 0 1-6-6"/><path stroke="#23a2ee" stroke-linecap="round" stroke-width="3" d="M86 333q2-8 4 0t4 0 4 0 4 0 4 0 4 0 4 0 4 0 4 0 4 0 4 0 4 0 4 0 4 0 4 0"/><path stroke="#50535d" stroke-linecap="round" stroke-width="3" d="M156 333q2-8 4 0t4 0 4 0 4 0 4 0 4 0 4 0 4 0 4 0 4 0"/><path stroke="#ff5672" stroke-linecap="round" stroke-width="3" d="M206 333q2-8 4 0t4 0 4 0 4 0 4 0"/><path stroke="#50535d" stroke-linecap="round" stroke-width="3" d="M236 333q2-8 4 0t4 0 4 0 4 0 4 0 4 0 4 0 4 0 4 0 4 0M286 333q2-8 4 0t4 0 4 0 4 0 4 0M86 355q2-8 4 0t4 0 4 0 4 0 4 0"/><path stroke="#e41e79" stroke-linecap="round" stroke-width="3" d="M116 355q2-8 4 0t4 0 4 0 4 0 4 0 4 0 4 0 4 0 4 0 4 0 4 0 4 0 4 0 4 0 4 0"/><path stroke="#50535d" stroke-linecap="round" stroke-width="3" d="M186 355q2-8 4 0t4 0 4 0 4 0 4 0 4 0 4 0 4 0 4 0 4 0"/><path stroke="#f36d28" stroke-linecap="round" stroke-width="3" d="M236 355q2-8 4 0t4 0 4 0 4 0 4 0"/><path stroke="#50535d" stroke-linecap="round" stroke-width="3" d="M266 355q2-8 4 0t4 0 4 0 4 0 4 0 4 0 4 0 4 0 4 0 4 0"/><path fill="#a7a9ae" d="M296 372a6 6 0 0 1 6-6h12a6 6 0 1 1 0 12h-12a6 6 0 0 1-6-6"/><path fill="#13151d" d="M0 390c0-13.255 10.745-24 24-24h388v24zM412 366h-48c26.51 0 48-21.49 48-48z"/></g><defs><linearGradient id="d" x1="212" x2="604" y1="378.783" y2="378.783" gradientUnits="userSpaceOnUse"><stop stop-color="#f36d28"/><stop offset=".3" stop-color="#ff5672"/><stop offset=".7" stop-color="#ff5672"/><stop offset="1" stop-color="#e41e79"/></linearGradient><linearGradient id="f" x1="212" x2="604" y1="68.783" y2="68.783" gradientUnits="userSpaceOnUse"><stop stop-color="#f36d28"/><stop offset=".3" stop-color="#ff5672"/><stop offset=".7" stop-color="#ff5672"/><stop offset="1" stop-color="#e41e79"/></linearGradient><linearGradient id="i" x1="-181" x2="176" y1="225.444" y2="225.444" gradientUnits="userSpaceOnUse"><stop stop-color="#f36d28"/><stop offset=".3" stop-color="#ff5672"/><stop offset=".7" stop-color="#ff5672"/><stop offset="1" stop-color="#e41e79"/></linearGradient><linearGradient id="k" x1="101.007" x2="101.007" y1="106" y2="140" gradientUnits="userSpaceOnUse"><stop stop-color="#fbb03b"/><stop offset="1" stop-color="#f05a24"/></linearGradient><linearGradient id="l" x1="101.007" x2="101.007" y1="106" y2="140" gradientUnits="userSpaceOnUse"><stop stop-color="#ed1e79"/><stop offset="1" stop-color="#5f2583"/></linearGradient><filter id="c" width="660" height="527.618" x="78" y="114.974" color-interpolation-filters="sRGB" filterUnits="userSpaceOnUse"><feFlood flood-opacity="0" result="BackgroundImageFix"/><feBlend in="SourceGraphic" in2="BackgroundImageFix" result="shape"/><feGaussianBlur result="effect1_foregroundBlur_4895_14876" stdDeviation="67"/></filter><filter id="e" width="660" height="527.618" x="78" y="-195.026" color-interpolation-filters="sRGB" filterUnits="userSpaceOnUse"><feFlood flood-opacity="0" result="BackgroundImageFix"/><feBlend in="SourceGraphic" in2="BackgroundImageFix" result="shape"/><feGaussianBlur result="effect1_foregroundBlur_4895_14876" stdDeviation="67"/></filter><filter id="g" width="605.581" height="505.344" x="-85.573" y="-162.484" color-interpolation-filters="sRGB" filterUnits="userSpaceOnUse"><feFlood flood-opacity="0" result="BackgroundImageFix"/><feBlend in="SourceGraphic" in2="BackgroundImageFix" result="shape"/><feGaussianBlur result="effect1_foregroundBlur_4895_14876" stdDeviation="67"/></filter><filter id="h" width="625" height="519.343" x="-315" y="-34.227" color-interpolation-filters="sRGB" filterUnits="userSpaceOnUse"><feFlood flood-opacity="0" result="BackgroundImageFix"/><feBlend in="SourceGraphic" in2="BackgroundImageFix" result="shape"/><feGaussianBlur result="effect1_foregroundBlur_4895_14876" stdDeviation="67"/></filter><filter id="j" width="605.581" height="505.344" x="-155.573" y="177.516" color-interpolation-filters="sRGB" filterUnits="userSpaceOnUse"><feFlood flood-opacity="0" result="BackgroundImageFix"/><feBlend in="SourceGraphic" in2="BackgroundImageFix" result="shape"/><feGaussianBlur result="effect1_foregroundBlur_4895_14876" stdDeviation="67"/></filter><clipPath id="a"><path fill="#fff" d="M0 0h412v390H0z"/></clipPath><clipPath id="m"><path fill="#fff" d="M340 244h28v16h-28z"/></clipPath></defs></svg>