<?xml version="1.0" encoding="utf-8"?>
<!-- Generator: Adobe Illustrator 27.7.0, SVG Export Plug-In . SVG Version: 6.00 Build 0)  -->
<svg version="1.1" id="Layer_1" xmlns="http://www.w3.org/2000/svg" xmlns:xlink="http://www.w3.org/1999/xlink" x="0px" y="0px"
	 viewBox="0 0 107.8 124.2" style="enable-background:new 0 0 107.8 124.2;" xml:space="preserve">
<style type="text/css">
	.st0{fill:rgba(255,255,255,0.3);}
</style>
<path class="st0" d="M107.8,0L0,39.7v84.5l69.6-23.4v21.9l21.1-29l17.1-5.8V0z M65.3,91.4l-14.8,4.8V47.8l-0.2,0.1l-7.2,50.7
	l-10.7,3.5l-7-45.3l-0.2,0.1v47.6l-14.1,4.6V45.5l22.2-8.1l4.4,36.2l0.2-0.1l4-39.2l23.4-8.6L65.3,91.4L65.3,91.4z M100,26.5
	L87.5,31v12.2l10.7-3.8v13l-10.7,3.7v28.1L69.6,90V24L100,12.9V26.5z"/>
</svg>
