<svg enable-background="new 0 0 128 128" viewBox="0 0 128 128" xmlns="http://www.w3.org/2000/svg" xmlns:xlink="http://www.w3.org/1999/xlink"><radialGradient id="a" cx="63.6" cy="-2088.8999" gradientTransform="matrix(1 0 0 -1 0 -2026)" gradientUnits="userSpaceOnUse" r="56.9597"><stop offset=".5" stop-color="#fde030"/><stop offset=".9188" stop-color="#f7c02b"/><stop offset="1" stop-color="#f4a223"/></radialGradient><path d="m63.6 118.8c-27.9 0-58-17.5-58-55.9s30.1-55.9 58-55.9c15.5 0 29.8 5.1 40.4 14.4 11.5 10.2 17.6 24.6 17.6 41.5s-6.1 31.2-17.6 41.4c-10.6 9.3-25 14.5-40.4 14.5z" fill="url(#a)"/><path d="m111.49 29.67c5.33 8.6 8.11 18.84 8.11 30.23 0 16.9-6.1 31.2-17.6 41.4-10.6 9.3-25 14.5-40.4 14.5-18.06 0-37.04-7.35-48.18-22.94 10.76 17.66 30.99 25.94 50.18 25.94 15.4 0 29.8-5.2 40.4-14.5 11.5-10.2 17.6-24.5 17.6-41.4 0-12.74-3.47-24.06-10.11-33.23z" fill="#eb8f00"/><path d="m62.67 80.42c-12.72 0-24.54-1.07-34.41-2.89-2.45-.45-4.61 1.7-4.11 4.14 3.28 16.04 19.07 29.21 38.51 29.21 21.27 0 35.59-13.6 38.56-29.27.46-2.42-1.7-4.53-4.12-4.08-9.88 1.82-21.71 2.89-34.43 2.89z" fill="#422b0d"/><path d="m89.58 57.31c-.3-.74-.75-1.4-1.32-1.96-.58-.57-1.28-1.06-2.11-1.48-.66-.33-1.4-.64-2.2-.92v-8.41c.15.05.31.09.45.16.51.25.94.61 1.29 1.06s.62.99.8 1.61c.07.25.13.5.17.76.12.73.72 1.29 1.46 1.29h.04c.96 0 1.67-.85 1.53-1.79-.21-1.44-.69-2.63-1.43-3.57-1.02-1.3-2.46-2.08-4.31-2.34v-2.21c0-.8-.65-1.45-1.45-1.45-.8 0-1.45.65-1.45 1.45v2.28c-.74.12-1.43.31-2.05.6-.74.34-1.36.79-1.88 1.35-.51.56-.91 1.22-1.2 1.97-.28.75-.42 1.59-.42 2.53 0 .99.16 1.86.48 2.61s.78 1.42 1.37 2 1.3 1.08 2.14 1.5c.48.24 1.01.47 1.56.68v8.67s0 0-.01.01c-.73-.13-1.36-.42-1.91-.88-.44-.37-.79-.86-1.07-1.47-.14-.31-.24-.65-.31-1.04-.13-.72-.71-1.28-1.45-1.28h-.15c-.91 0-1.6.82-1.45 1.71.09.55.23 1.05.42 1.51.37.9.85 1.64 1.46 2.23s1.31 1.04 2.1 1.35c.75.3 1.54.48 2.36.58v1.74c0 .8.65 1.45 1.45 1.45.8 0 1.45-.65 1.45-1.45v-1.79c.84-.11 1.62-.3 2.32-.59.79-.33 1.46-.77 2.02-1.32.55-.55.98-1.2 1.29-1.97.3-.76.46-1.63.46-2.59.01-.98-.14-1.85-.45-2.59zm-9.9-6.46c-.38-.35-.66-.75-.84-1.18s-.27-.92-.27-1.48c.01-1.19.36-2.13 1.05-2.83.37-.38.86-.65 1.43-.82v7.23c-.55-.28-1.01-.59-1.37-.92zm6.95 10.72c-.22.48-.52.89-.92 1.23s-.89.6-1.46.77c-.09.03-.19.04-.29.06v-7.51c.79.37 1.43.77 1.89 1.21.75.72 1.12 1.58 1.1 2.59 0 .63-.11 1.17-.32 1.65z" fill="#422b0d" stroke="#422b0d" stroke-miterlimit="10" stroke-width=".5"/><path d="m44.54 87.78v21.15c0 9.51 7.71 17.21 17.21 17.21h3.28c9.51 0 17.21-7.71 17.21-17.21v-21.3c-19.01 3.72-33.17 1.2-37.7.15z" fill="#05e005"/><path d="m62.66 85.03c-6.19 0-12.28-.25-18.12-.74v3.49c4.54 1.05 18.69 3.57 37.71-.15v-3.48c-6.29.57-12.88.88-19.59.88z" fill="#05e005"/><path d="m62.66 85.03c-6.19 0-12.28-.25-18.12-.74v3.49c4.54 1.05 18.69 3.57 37.71-.15v-3.48c-6.29.57-12.88.88-19.59.88z" fill="#ab3f2e" opacity=".3"/><path d="m70.97 108.27c-.3-.74-.75-1.4-1.32-1.96-.58-.57-1.28-1.06-2.11-1.48-.66-.33-1.4-.64-2.2-.92v-8.41c.15.05.31.09.45.16.51.25.94.61 1.29 1.06s.62.99.8 1.61c.07.25.13.5.17.76.12.73.72 1.29 1.46 1.29h.04c.96 0 1.67-.85 1.53-1.79-.21-1.43-.69-2.62-1.43-3.57-1.02-1.3-2.46-2.08-4.31-2.34v-2.21c0-.8-.65-1.45-1.45-1.45-.8 0-1.45.65-1.45 1.45v2.28c-.74.12-1.43.31-2.05.6-.74.34-1.36.79-1.88 1.35-.51.56-.91 1.22-1.2 1.97-.28.75-.42 1.59-.42 2.53 0 .99.16 1.86.48 2.61s.78 1.42 1.37 2 1.3 1.08 2.14 1.5c.48.24 1.01.47 1.56.68v8.67s0 0-.01.01c-.73-.13-1.36-.42-1.91-.88-.44-.37-.79-.86-1.07-1.47-.14-.31-.24-.65-.31-1.04-.14-.72-.72-1.28-1.46-1.28h-.15c-.91 0-1.6.82-1.45 1.71.09.55.23 1.05.42 1.51.37.9.85 1.64 1.46 2.23s1.31 1.04 2.1 1.35c.75.3 1.54.48 2.36.58v1.74c0 .8.65 1.45 1.45 1.45.8 0 1.45-.65 1.45-1.45v-1.79c.84-.11 1.62-.3 2.32-.59.79-.33 1.46-.77 2.02-1.32.55-.55.98-1.2 1.29-1.97.3-.76.46-1.63.46-2.59.01-.98-.14-1.84-.44-2.59zm-9.91-6.46c-.38-.35-.66-.75-.84-1.18s-.27-.92-.27-1.48c.01-1.19.36-2.13 1.05-2.83.37-.38.86-.65 1.43-.82v7.23c-.55-.28-1.01-.59-1.37-.92zm6.95 10.73c-.22.48-.52.89-.92 1.23s-.89.6-1.46.77c-.09.03-.19.04-.29.06v-7.51c.79.37 1.43.77 1.89 1.21.75.72 1.12 1.58 1.1 2.59 0 .62-.11 1.16-.32 1.65z" fill="#404040"/><g fill="#422b0d"><path d="m29.75 32.79c-1.67 1.43-4.15-.63-2.59-2.59 1.16-1.42 2.72-2.77 4.42-3.79 4.58-2.95 10.22-3.9 15.03-2.95 2.45.53 1.7 3.65-.54 3.66-5.67-.08-11.58 1.83-16.32 5.67z"/><path d="m97.52 32.79c1.67 1.43 4.15-.63 2.59-2.59-1.16-1.42-2.72-2.77-4.42-3.79-4.58-2.95-10.22-3.9-15.03-2.95-2.45.53-1.7 3.65.54 3.66 5.67-.08 11.59 1.83 16.32 5.67z"/><path d="m50.69 57.31c-.3-.74-.75-1.4-1.32-1.96-.58-.57-1.28-1.06-2.11-1.48-.66-.33-1.4-.64-2.2-.92v-8.41c.15.05.31.09.45.16.51.25.94.61 1.29 1.06s.62.99.8 1.61c.07.25.13.5.17.76.12.73.72 1.29 1.46 1.29h.04c.96 0 1.67-.85 1.53-1.79-.21-1.43-.69-2.62-1.43-3.57-1.02-1.3-2.46-2.08-4.31-2.34v-2.21c0-.8-.65-1.45-1.45-1.45-.8 0-1.45.65-1.45 1.45v2.28c-.74.12-1.43.31-2.05.6-.74.34-1.36.79-1.88 1.35-.51.56-.91 1.22-1.2 1.97-.28.75-.42 1.59-.42 2.53 0 .99.16 1.86.48 2.61s.78 1.42 1.37 2 1.3 1.08 2.14 1.5c.48.24 1.01.47 1.56.68v8.67s0 0-.01.01c-.73-.13-1.36-.42-1.91-.88-.44-.37-.79-.86-1.07-1.47-.14-.31-.24-.65-.31-1.04-.13-.72-.71-1.28-1.45-1.28h-.15c-.91 0-1.6.82-1.45 1.71.09.55.23 1.05.42 1.51.37.9.85 1.64 1.46 2.23s1.31 1.04 2.1 1.35c.75.3 1.54.48 2.36.58v1.74c0 .8.65 1.45 1.45 1.45.8 0 1.45-.65 1.45-1.45v-1.79c.84-.11 1.62-.3 2.32-.59.79-.33 1.46-.77 2.02-1.32.55-.55.98-1.2 1.29-1.97.3-.76.46-1.63.46-2.59.01-.98-.14-1.85-.45-2.59zm-9.9-6.46c-.38-.35-.66-.75-.84-1.18s-.27-.92-.27-1.48c.01-1.19.36-2.13 1.05-2.83.37-.38.86-.65 1.43-.82v7.23c-.55-.28-1.01-.59-1.37-.92zm6.95 10.72c-.22.48-.52.89-.92 1.23s-.89.6-1.46.77c-.09.03-.19.04-.29.06v-7.51c.79.37 1.43.77 1.89 1.21.75.72 1.12 1.58 1.1 2.59 0 .63-.11 1.17-.32 1.65z" stroke="#422b0d" stroke-miterlimit="10" stroke-width=".5"/></g></svg>