<?xml version="1.0" encoding="utf-8"?>
<svg viewBox="0 0 400 400" xmlns="http://www.w3.org/2000/svg" xmlns:bx="https://boxy-svg.com">
  <defs>
    <linearGradient id="b" bx:pinned="true">
      <stop offset="0" stop-color="#fbb03b"/>
      <stop offset="1" stop-color="#f05a24"/>
    </linearGradient>
    <linearGradient id="a" bx:pinned="true">
      <stop offset="0" stop-color="#5f2583"/>
      <stop offset="1" stop-color="#ed1e79"/>
    </linearGradient>
  </defs>
  <g style="" transform="matrix(1.087686, 0, 0, 1.087686, -21.798931, 28.656155)">
    <g transform="matrix(1, 0, 0, 1, -48.987, -69.986)">
      <circle cx="250" cy="250" r="100" style="fill: rgb(51, 51, 51);"/>
    </g>
    <path style="stroke: rgb(0, 0, 0); fill: rgb(51, 51, 51); stroke-width: 0px;" d="M 162.482 217.444 H 240.17 A 15 15 0 0 1 255.17 232.444 V 263.693 A 20 20 0 0 1 235.17 283.693 H 162.482 A 15 15 0 0 1 147.482 268.693 V 232.444 A 15 15 0 0 1 162.482 217.444 Z" bx:shape="rect 147.482 217.444 107.688 66.249 15 15 20 15 1@3658211a"/>
    <path d="M 200.024 17.441 C 213.582 17.441 224.574 28.724 224.574 42.644 C 224.574 51.968 219.665 60.158 212.3 64.442 L 212.3 80.445 L 224.574 80.445 C 272.029 80.445 310.5 119.937 310.5 168.653 L 322.773 168.653 C 329.552 168.653 335.049 174.294 335.049 181.252 L 335.049 219.056 C 335.049 226.016 329.552 231.658 322.773 231.658 L 310.5 231.658 L 310.5 244.259 C 310.5 258.176 299.507 269.461 285.95 269.461 L 114.1 269.461 C 100.54 269.461 89.551 258.176 89.551 244.259 L 89.551 231.658 L 77.275 231.658 C 70.495 231.658 65 226.016 65 219.056 L 65 181.252 C 65 174.294 70.495 168.653 77.275 168.653 L 89.551 168.653 C 89.551 119.937 128.02 80.445 175.475 80.445 L 187.749 80.445 L 187.749 64.442 C 180.384 60.158 175.475 51.968 175.475 42.644 C 175.475 28.724 186.465 17.441 200.024 17.441 M 144.788 156.051 C 127.839 156.051 114.1 170.155 114.1 187.554 C 114.1 204.952 127.839 219.056 144.788 219.056 C 161.735 219.056 175.475 204.952 175.475 187.554 C 175.475 170.155 161.735 156.051 144.788 156.051 M 255.261 156.051 C 238.313 156.051 224.574 170.155 224.574 187.554 C 224.574 204.952 238.313 219.056 255.261 219.056 C 272.211 219.056 285.95 204.952 285.95 187.554 C 285.95 170.155 272.211 156.051 255.261 156.051 Z" style="fill: rgb(51, 51, 51);"/>
    <circle cx="145.376" cy="185.526" r="29.221" style="fill: rgb(255, 255, 255);"/>
    <circle cx="254.844" cy="185.5" r="29.2" style="fill: rgb(255, 255, 255);"/>
    <g transform="matrix(1, 0, 0, 1, -266.45224, -8.763936)">
      <rect x="435.597" y="236.208" width="64.756" height="12.783" style="stroke: rgb(0, 0, 0); fill: rgb(255, 255, 255);"/>
      <line style="fill: rgb(216, 216, 216); stroke: rgb(0, 0, 0);" x1="451.754" y1="236.522" x2="451.758" y2="248.991"/>
      <line style="fill: rgb(216, 216, 216); stroke: rgb(0, 0, 0);" x1="467.819" y1="236.306" x2="467.823" y2="248.775"/>
      <line style="fill: rgb(216, 216, 216); stroke: rgb(0, 0, 0);" x1="483.848" y1="236.516" x2="483.852" y2="248.985"/>
      <rect x="435.597" y="248.985" width="64.756" height="12.783" style="stroke: rgb(0, 0, 0); fill: rgb(255, 255, 255);"/>
      <line style="fill: rgb(216, 216, 216); stroke: rgb(0, 0, 0);" x1="451.75" y1="249.509" x2="451.754" y2="261.978"/>
      <line style="fill: rgb(216, 216, 216); stroke: rgb(0, 0, 0);" x1="467.823" y1="249.299" x2="467.827" y2="261.768"/>
      <line style="fill: rgb(216, 216, 216); stroke: rgb(0, 0, 0);" x1="483.852" y1="249.509" x2="483.856" y2="261.978"/>
    </g>
    <rect x="247.17" y="163.025" width="15.579" height="15.579" style="stroke: rgb(0, 0, 0); fill: rgb(25, 25, 25);"/>
    <rect x="135.853" y="162.966" width="15.579" height="15.579" style="stroke: rgb(0, 0, 0); fill: rgb(25, 25, 25);"/>
  </g>
</svg>