<?xml version="1.0" encoding="utf-8"?>
<svg viewBox="0 0 400 420" xmlns="http://www.w3.org/2000/svg" xmlns:bx="https://boxy-svg.com">
  <defs>
    <linearGradient id="b" bx:pinned="true">
      <stop offset="0" stop-color="#fbb03b"/>
      <stop offset="1" stop-color="#f05a24"/>
    </linearGradient>
    <linearGradient id="a" bx:pinned="true">
      <stop offset="0" stop-color="#5f2583"/>
      <stop offset="1" stop-color="#ed1e79"/>
    </linearGradient>
  </defs>
  <g transform="matrix(1, 0, 0, 1, -48.987, -69.986)">
    <circle cx="250" cy="250" r="100" style="fill: rgb(51, 51, 51);"/>
  </g>
  <path style="stroke: rgb(0, 0, 0); fill: rgb(51, 51, 51); stroke-width: 0px;" d="M 162.482 217.444 H 240.17 A 15 15 0 0 1 255.17 232.444 V 263.693 A 20 20 0 0 1 235.17 283.693 H 162.482 A 15 15 0 0 1 147.482 268.693 V 232.444 A 15 15 0 0 1 162.482 217.444 Z" bx:shape="rect 147.482 217.444 107.688 66.249 15 15 20 15 1@3658211a"/>
  <path d="M 200.024 17.441 C 213.582 17.441 224.574 28.724 224.574 42.644 C 224.574 51.968 219.665 60.158 212.3 64.442 L 212.3 80.445 L 224.574 80.445 C 272.029 80.445 310.5 119.937 310.5 168.653 L 322.773 168.653 C 329.552 168.653 335.049 174.294 335.049 181.252 L 335.049 219.056 C 335.049 226.016 329.552 231.658 322.773 231.658 L 310.5 231.658 L 310.5 244.259 C 310.5 258.176 299.507 269.461 285.95 269.461 L 114.1 269.461 C 100.54 269.461 89.551 258.176 89.551 244.259 L 89.551 231.658 L 77.275 231.658 C 70.495 231.658 65 226.016 65 219.056 L 65 181.252 C 65 174.294 70.495 168.653 77.275 168.653 L 89.551 168.653 C 89.551 119.937 128.02 80.445 175.475 80.445 L 187.749 80.445 L 187.749 64.442 C 180.384 60.158 175.475 51.968 175.475 42.644 C 175.475 28.724 186.465 17.441 200.024 17.441 M 144.788 156.051 C 127.839 156.051 114.1 170.155 114.1 187.554 C 114.1 204.952 127.839 219.056 144.788 219.056 C 161.735 219.056 175.475 204.952 175.475 187.554 C 175.475 170.155 161.735 156.051 144.788 156.051 M 255.261 156.051 C 238.313 156.051 224.574 170.155 224.574 187.554 C 224.574 204.952 238.313 219.056 255.261 219.056 C 272.211 219.056 285.95 204.952 285.95 187.554 C 285.95 170.155 272.211 156.051 255.261 156.051 Z" style="fill: rgb(51, 51, 51);"/>
  <circle cx="145.376" cy="185.526" r="29.221" style="fill: rgb(255, 255, 255);"/>
  <circle cx="254.844" cy="185.5" r="29.2" style="fill: rgb(255, 255, 255);"/>
  <g transform="matrix(1, 0, 0, 1, -266.45224, -8.763936)">
    <rect x="435.597" y="236.208" width="64.756" height="12.783" style="stroke: rgb(0, 0, 0); fill: rgb(255, 255, 255);"/>
    <line style="fill: rgb(216, 216, 216); stroke: rgb(0, 0, 0);" x1="451.754" y1="236.522" x2="451.758" y2="248.991"/>
    <line style="fill: rgb(216, 216, 216); stroke: rgb(0, 0, 0);" x1="467.819" y1="236.306" x2="467.823" y2="248.775"/>
    <line style="fill: rgb(216, 216, 216); stroke: rgb(0, 0, 0);" x1="483.848" y1="236.516" x2="483.852" y2="248.985"/>
    <rect x="435.597" y="248.985" width="64.756" height="12.783" style="stroke: rgb(0, 0, 0); fill: rgb(255, 255, 255);"/>
    <line style="fill: rgb(216, 216, 216); stroke: rgb(0, 0, 0);" x1="451.75" y1="249.509" x2="451.754" y2="261.978"/>
    <line style="fill: rgb(216, 216, 216); stroke: rgb(0, 0, 0);" x1="467.823" y1="249.299" x2="467.827" y2="261.768"/>
    <line style="fill: rgb(216, 216, 216); stroke: rgb(0, 0, 0);" x1="483.852" y1="249.509" x2="483.856" y2="261.978"/>
  </g>
  <rect x="247.17" y="163.025" width="15.579" height="15.579" style="stroke: rgb(0, 0, 0); fill: rgb(25, 25, 25);"/>
  <rect x="135.853" y="162.966" width="15.579" height="15.579" style="stroke: rgb(0, 0, 0); fill: rgb(25, 25, 25);"/>
  <g style="" transform="matrix(1.180075, 0, 0, 1.118274, -14.431217, -30.225529)">
    <path id="hand_1_" style="fill: rgb(51, 51, 51);" d="M 79.335 246.706 C 73.426 242.993 67.897 238.662 62.855 233.735 C 60.279 231.329 55.183 227.364 50.142 227.731 C 49.111 227.8 47.783 228.098 46.509 228.899 C 43.067 225.141 35.124 215.058 31.166 206.165 C 29.567 203.347 26.775 202.889 24.851 203.347 C 21.435 204.195 19.24 207.862 19.755 211.918 C 21.435 225.439 33.959 241.916 38.648 245.789 L 38.566 245.834 C 47.783 255.323 48.651 269.164 48.651 269.302 C 48.704 270.379 49.654 271.273 50.9 271.455 L 76.678 275.099 C 76.841 275.123 76.977 275.123 77.14 275.123 C 78.279 275.123 79.335 274.504 79.688 273.564 C 81.395 269.324 85.353 259.241 85.406 256.95 C 85.569 250.257 80.555 247.325 79.335 246.706 Z"/>
    <path id="hand" style="fill: rgb(51, 51, 51);" d="M 339.017 203.393 C 337.091 202.889 334.219 203.347 332.484 206.396 C 328.607 215.104 320.666 225.164 317.222 228.923 C 315.949 228.12 314.621 227.845 313.59 227.754 C 308.549 227.387 303.452 231.351 300.85 233.781 C 295.836 238.662 290.306 243.016 284.397 246.706 C 283.177 247.325 278.162 250.235 278.325 256.972 C 278.378 259.264 282.336 269.371 284.045 273.587 C 284.423 274.526 285.454 275.145 286.592 275.145 C 286.755 275.145 286.891 275.145 287.053 275.123 L 312.831 271.479 C 314.214 271.295 315.19 270.241 315.081 269.049 C 315.081 268.934 314.159 256.697 325.137 245.881 L 325.057 245.834 C 329.746 241.985 341.863 225.141 343.976 211.986 C 344.627 207.976 342.486 204.264 339.017 203.393 Z"/>
    <g id="shirt" transform="matrix(2.710661, 0, 0, 2.291673, 8.098979, 103.819794)">
      <linearGradient id="SVGID_7_" gradientUnits="userSpaceOnUse" x1="64.065" y1="45.9855" x2="64.065" y2="0.6403" gradientTransform="matrix(1 0 0 -1 0 128)">
        <stop offset="0" style="stop-color:#F78C1F"/>
        <stop offset="0.481" style="stop-color:#F47F12"/>
        <stop offset="0.998" style="stop-color:#EF6C00"/>
      </linearGradient>
      <path style="fill:url(#SVGID_7_);" d="M115.74,111.06c0.14,7.1-5.58,12.94-12.69,12.94c-1.4,0-2.72-0.29-3.9-0.84 c-0.04-0.02-0.08-0.03-0.11-0.05c-0.59-0.26-1.14-0.58-1.65-0.97c-0.71-0.53-1.35-1.16-1.89-1.86c-1.02-1.31-1.69-2.89-1.91-4.59 l-0.02,0.01l-0.01,0.01V124H34.58v-8.41l-0.04-0.02c0,0.02,0,0.03-0.01,0.04v0.01c-0.43,3.23-2.5,6-5.39,7.36h-0.01 c-1.23,0.58-2.59,0.9-4.05,0.9c-7.1,0-12.83-5.83-12.69-12.94l0.11-40.55c0.02-0.8,0.65-1.45,1.45-1.5l12.81-0.75h0.11 c0.78,0,1.45,0.59,1.54,1.38l2.68,18.97c4.18-3.58,9.95-6.21,17.88-6.21c2.62,0,27.59,0.12,30.2,0.12c7.93,0,13.7,2.63,17.88,6.2 l2.67-18.97c0.1-0.79,0.77-1.38,1.55-1.38c0.04,0,0.07,0.01,0.11,0.01l12.81,0.75c0.8,0.05,1.42,0.7,1.45,1.5L115.74,111.06z"/>
      <path style="fill:#DA6727;" d="M99.04,123.11c-0.59-0.26-1.14-0.58-1.65-0.97c-0.71-0.53-1.35-1.16-1.89-1.86 c-1.02-1.31-1.69-2.89-1.91-4.59l-0.02,0.01l-0.38-10.68C93.19,105.02,93.82,114.17,99.04,123.11z"/>
      <path style="fill:#DA6727;" d="M34.91,105.02l-0.38,10.59v0.01c-0.43,3.23-2.5,6-5.39,7.36C34.28,114.08,34.91,105.02,34.91,105.02 z"/>
    </g>
    <g id="neck" transform="matrix(2.710661, 0, 0, 2.291673, 8.098979, 103.819794)">
      <path style="fill: rgb(51, 51, 51);" d="M54.92,78.33v9.98c0,4.51,3.62,8.17,9.08,8.17s9.08-3.66,9.08-8.17v-9.98L54.92,78.33z"/>
    </g>
  </g>
</svg>