<svg width="350" height="350" viewBox="0 0 350 350" fill="none" xmlns="http://www.w3.org/2000/svg">
<path fill-rule="evenodd" clip-rule="evenodd" d="M175.006 0C271.656 0 350.007 78.3499 350.007 174.999C350.007 271.649 271.656 349.999 175.006 349.999C78.3569 349.999 0.00683594 271.649 0.00683594 174.999C0.00694964 78.3501 78.3569 0.000237306 175.006 0ZM175.006 77.7772C121.312 77.7773 77.7842 121.305 77.784 174.999C77.784 228.694 121.312 272.222 175.006 272.222C228.701 272.222 272.229 228.694 272.229 174.999C272.228 121.305 228.7 77.7772 175.006 77.7772Z" fill="url(#paint0_linear_567_2419)"/>
<path d="M275.922 32.0127C320.742 63.7027 350.007 115.933 350.007 174.999C350.007 234.072 320.736 286.306 275.909 317.995L230.405 254.903C255.68 237.346 272.229 208.106 272.229 174.999C272.228 141.705 255.491 112.319 229.972 94.7964L275.922 32.0127Z" fill="url(#paint1_linear_567_2419)"/>
<defs>
<linearGradient id="paint0_linear_567_2419" x1="175.007" y1="0" x2="175.007" y2="349.999" gradientUnits="userSpaceOnUse">
<stop stop-color="#FBB03B"/>
<stop offset="1" stop-color="#F05A24"/>
</linearGradient>
<linearGradient id="paint1_linear_567_2419" x1="175.007" y1="0" x2="175.007" y2="349.999" gradientUnits="userSpaceOnUse">
<stop stop-color="#ED1E79"/>
<stop offset="1" stop-color="#5F2583"/>
</linearGradient>
</defs>
</svg>
