<?xml version="1.0" encoding="utf-8"?>
<svg viewBox="0 0 113 122" xmlns="http://www.w3.org/2000/svg">
  <defs>
    <linearGradient gradientUnits="userSpaceOnUse" x1="114.975" y1="636.116" x2="114.975" y2="896.457" id="gradient-0">
      <stop offset="0" style="stop-color: rgb(34, 167, 242);"/>
      <stop offset="1" style="stop-color: rgb(95, 37, 131);"/>
    </linearGradient>
  </defs>
  <g transform="matrix(0.468588, 0, 0, 0.468588, -0.000089, 3.571553)">
    <g id="layer1" transform="translate(5.4981904,-643.73796)">
      <path style="fill-opacity: 1; fill-rule: nonzero; stroke: none; fill: url('#gradient-0');" d="M -5.498 636.116 L -5.498 824.764 L 115.006 896.457 L 235.447 824.764 L 235.447 636.116 L -5.498 636.116 Z" id="path4371"/>
      <path style="fill-opacity: 1; fill-rule: nonzero; stroke: rgb(255, 211, 5); stroke-width: 0.177165; stroke-miterlimit: 4; stroke-opacity: 1; stroke-dasharray: none; fill: rgb(255, 149, 5);" d="M 220.98987,712.56793 114.95862,773.59918 8.9586284,712.56793 l 0,36.84375 105.9999916,61.03125 106.03125,-61.03125 0,-36.84375 z" id="path3373-9"/>
      <path style="fill-opacity: 1; fill-rule: nonzero; stroke: rgb(255, 211, 5); stroke-width: 0.177165; stroke-miterlimit: 4; stroke-opacity: 1; stroke-dasharray: none; fill: rgb(255, 149, 5);" d="M 220.98987,773.93801 114.95862,834.96926 8.9586284,773.93801 l 0,36.84375 105.9999916,61.03125 106.03125,-61.03125 0,-36.84375 z" id="path3373"/>
      <path style="fill-opacity: 1; fill-rule: nonzero; stroke: rgb(255, 211, 5); stroke-width: 0.177165; stroke-miterlimit: 4; stroke-opacity: 1; stroke-dasharray: none; fill: rgb(255, 149, 5);" d="M 220.99 650.682 L 114.959 711.713 L 8.959 650.682 L 8.959 687.526 L 114.959 748.557 L 220.99 687.526 L 220.99 650.682 Z" id="path-1"/>
    </g>
  </g>
</svg>