<?xml version="1.0" encoding="UTF-8"?>
<svg xmlns="http://www.w3.org/2000/svg" version="1.0" viewBox="0 0 600.000000 600.000000">
  <g transform="translate(0.000000,600.000000) scale(0.100000,-0.100000)">
    <path d="M2525 5622 c-393 -35 -756 -290 -920 -645 -134 -292 -140 -621 -15 -921 66 -158 205 -338 342 -444 389 -299 912 -318 1319 -47 293 195 478 521 496 875 12 234 -40 442 -160 645 -61 104 -224 277 -326 345 -131 88 -297 155 -443 180 -61 10 -233 18 -293 12z" style="&#10;    /* background: green; */&#10;"/>
    <path d="M4581 4235 c-100 -23 -160 -44 -239 -86 -308 -163 -485 -482 -465 -837 15 -275 191 -555 436 -692 53 -30 57 -34 57 -68 0 -21 2 -322 3 -669 l2 -633 188 -187 187 -188 312 313 313 312 -187 187 -188 188 187 187 188 188 -154 154 -154 154 67 32 c136 65 276 190 358 320 92 147 129 282 128 466 0 163 -20 250 -89 389 -109 221 -298 380 -536 450 -113 34 -311 43 -414 20z m250 -377 c51 -15 114 -69 142 -122 30 -57 30 -164 0 -222 -45 -84 -127 -134 -223 -134 -206 0 -321 229 -197 392 64 85 173 118 278 86z"/>
    <path d="M2025 2984 c-560 -86 -1022 -476 -1199 -1011 -62 -188 -68 -238 -73 -620 l-5 -353 1626 0 1626 0 0 685 0 685 -113 113 c-114 113 -192 218 -245 329 -27 56 -28 58 -107 89 -96 38 -234 74 -339 88 -119 17 -1057 13 -1171 -5z"/>
  </g>
</svg>