<svg xmlns="http://www.w3.org/2000/svg" xmlns:xlink="http://www.w3.org/1999/xlink" viewBox="0 0 361 361">
  <defs>
    <linearGradient id="b">
      <stop offset="0" stop-color="#fbb03b"/>
      <stop offset="1" stop-color="#f05a24"/>
    </linearGradient>
    <linearGradient id="a">
      <stop offset="0" stop-color="#5f2583"/>
      <stop offset="1" stop-color="#ed1e79"/>
    </linearGradient>
    <linearGradient xlink:href="#a" id="d" x1="973.216" x2="973.216" y1="100.665" y2="388.077" gradientTransform="matrix(.97413 -.22842 .31045 1.35247 -95.3 85.515)" gradientUnits="userSpaceOnUse"/>
    <linearGradient xlink:href="#b" id="c" x1="188.919" x2="188.919" y1="1.638" y2="361.638" gradientTransform="matrix(-1 .0016 -.00202 -1.25907 376.78 357.265)" gradientUnits="userSpaceOnUse"/>
  </defs>
  <g transform="translate(-69.987 -69.986)">
    <path fill="url(#c)" d="M8.919 181.638a180 180 0 1 0 360 0 180 180 0 1 0-360 0Zm80 0a100 100 0 0 1 200 0 100 100 0 0 1-200 0Z" transform="translate(61.094 68.348)"/>
    <path fill="url(#d)" d="M958.327 100.665a175.433 175.433 0 0 1 0 287.412l-45.03-64.31a96.924 96.924 0 0 0 0-158.791Z" paint-order="stroke" transform="matrix(1.03173 0 0 1.0208 -634.597 .545)"/>
    <circle cx="250" cy="250" r="100" fill="#333"/>
  </g>
  <path fill="#333" d="M141.482 217.444h77.688a15 15 0 0 1 15 15v31.249a20 20 0 0 1-20 20h-72.688a15 15 0 0 1-15-15v-36.249a15 15 0 0 1 15-15Z"/>
  <path fill="#333" d="M179.024 17.441c13.558 0 24.55 11.283 24.55 25.203 0 9.324-4.909 17.514-12.274 21.798v16.003h12.274c47.455 0 85.926 39.492 85.926 88.208h12.273c6.779 0 12.276 5.641 12.276 12.599v37.804c0 6.96-5.497 12.602-12.276 12.602H289.5v12.601c0 13.917-10.993 25.202-24.55 25.202H93.1c-13.56 0-24.549-11.285-24.549-25.202v-12.601H56.275c-6.78 0-12.275-5.642-12.275-12.602v-37.804c0-6.958 5.495-12.599 12.275-12.599h12.276c0-48.716 38.469-88.208 85.924-88.208h12.274V64.442c-7.365-4.284-12.274-12.474-12.274-21.798 0-13.92 10.99-25.203 24.549-25.203m-55.236 138.61c-16.949 0-30.688 14.104-30.688 31.503 0 17.398 13.739 31.502 30.688 31.502 16.947 0 30.687-14.104 30.687-31.502 0-17.399-13.74-31.503-30.687-31.503m110.473 0c-16.948 0-30.687 14.104-30.687 31.503 0 17.398 13.739 31.502 30.687 31.502 16.95 0 30.689-14.104 30.689-31.502 0-17.399-13.739-31.503-30.689-31.503Z"/>
  <circle cx="124.376" cy="185.526" r="29.221" fill="#fff"/>
  <circle cx="233.844" cy="185.5" r="29.2" fill="#fff"/>
  <g stroke="#000">
    <path fill="#fff" d="M148.145 227.444H212.9v12.783h-64.756z"/>
    <path fill="#d8d8d8" d="m164.302 227.758.004 12.47M180.367 227.542l.004 12.47M196.396 227.752l.004 12.47"/>
    <path fill="#fff" d="M148.145 240.221H212.9v12.783h-64.756z"/>
    <path fill="#d8d8d8" d="m164.298 240.745.004 12.47M180.37 240.535l.005 12.47M196.4 240.745l.004 12.47"/>
  </g>
  <path fill="#191919" stroke="#000" d="M232.17 173.025h15.579v15.579H232.17zM120.853 172.966h15.579v15.579h-15.579z"/>

  <path fill="#22A7F2" stroke="#0d8cd4" d="M1 21h4V9H1v12zm22-11c0-1.1-.9-2-2-2h-6.31l.95-4.57.03-.32c0-.41-.17-.79-.44-1.06L14.17 1 7.59 7.59C7.22 7.95 7 8.45 7 9v10c0 1.1.9 2 2 2h9c.83 0 1.54-.5 1.84-1.22l3.02-7.05c.09-.23.14-.47.14-.73v-2z" transform="matrix(4.09872 -1.24947 1.37441 4.50859 57.321 237.958)"/>
  <path fill="hotpink" stroke="#b92f2f" d="M1 21h4V9H1v12zm22-11c0-1.1-.9-2-2-2h-6.31l.95-4.57.03-.32c0-.41-.17-.79-.44-1.06L14.17 1 7.59 7.59C7.22 7.95 7 8.45 7 9v10c0 1.1.9 2 2 2h9c.83 0 1.54-.5 1.84-1.22l3.02-7.05c.09-.23.14-.47.14-.73v-2z" transform="matrix(-4.1852 -.92574 1.01832 -4.60372 286.04 351.918)"/>
</svg>