<?xml version="1.0" encoding="utf-8"?>
<svg viewBox="266.0903 128.6122 117.1008 172.5696" xmlns="http://www.w3.org/2000/svg">
  <defs>
    <clipPath id="clippath0" transform="">
      <path d="M 0 2800 L 1900 2800 L 1900 0 L 0 0 Z" style="fill: none; clip-rule: nonzero;"/>
    </clipPath>
  </defs>
  <g transform="matrix(0.06163199990987778, 0, 0, 0.06163199990987778, 266.09027099609375, 128.6122283935547)">
    <g class="page-1" transform="matrix(1, 0, 0, -1, 0, 2800)">
      <g transform="">
        <path d="M 0 2800 L 1900 2800 L 1900 0 L 0 0 Z" style="fill: none;"/>
      </g>
      <g style="clip-path: url('#clippath0');">
        <g transform="translate(848.6777 1489.9448)">
          <path d="M 0 0 C -0.167 -2.864 0.311 -5.955 -0.602 -8.557 C -7.962 -29.53 -15.328 -50.508 -23.191 -71.296 C -33.388 -98.25 -44.045 -125.032 -54.505 -151.887 C -56.371 -156.678 -58.241 -161.469 -59.687 -165.178 C -58.418 -170.116 -57.306 -174.418 -56.216 -178.727 C -56.116 -179.123 -56.315 -179.653 -56.121 -179.957 C -47.632 -193.207 -46.705 -208.806 -43.187 -223.476 C -35.752 -254.479 -29.656 -285.801 -22.671 -316.917 C -21.248 -323.261 -18.343 -329.274 -16.1 -335.432 C -15.765 -336.35 -15.161 -337.188 -14.932 -338.125 C -12.08 -349.822 -9.231 -361.52 -6.507 -373.247 C -6.141 -374.823 -6.457 -376.557 -6.457 -378.591 C 2.573 -376.642 5.644 -383.138 8.313 -389.493 C 14.652 -404.583 20.701 -419.797 26.748 -435.009 C 34.042 -453.359 45.463 -468.971 58.557 -483.979 C 60.163 -475.505 61.252 -467.363 63.284 -459.463 C 70.922 -429.769 85.867 -404.599 110.907 -386.315 C 150.826 -357.167 203.168 -361.398 238.361 -396.17 C 261.76 -419.289 274.208 -447.528 277.865 -479.94 C 278.173 -482.663 278.522 -485.381 279.03 -489.567 C 286.289 -480.312 292.974 -472.11 299.307 -463.645 C 310.779 -448.309 317.049 -430.366 324.191 -412.881 C 327.101 -405.76 329.751 -398.535 332.633 -391.402 C 333.625 -388.947 334.787 -386.522 336.178 -384.273 C 338.851 -379.946 342.328 -376.966 348.005 -378.768 C 348.408 -368.035 349.346 -357.644 355.127 -348.409 C 354.543 -336.656 363.225 -327.744 364.785 -316.544 C 366.309 -305.613 368.578 -294.763 370.978 -283.98 C 376.084 -261.041 381.471 -238.164 386.777 -215.27 C 388.64 -207.235 390.601 -199.222 392.527 -191.202 C 392.69 -190.522 392.903 -189.85 393.149 -189.195 C 396.019 -181.536 398.898 -173.879 401.828 -166.083 C 394.512 -146.932 387.031 -127.234 379.462 -107.57 C 368.203 -78.325 356.807 -49.133 345.657 -19.847 C 343.778 -14.911 342.754 -9.633 341.553 -4.463 C 341.229 -3.071 341.705 -1.493 341.814 0 L 345.182 0 C 351.979 -5.923 356.639 -13.413 360.151 -21.543 C 374.301 -54.292 388.18 -87.158 402.347 -119.899 C 406.736 -130.042 411.84 -139.875 416.379 -149.956 C 418.196 -153.991 419.295 -158.345 420.898 -162.485 C 421.298 -163.515 422.261 -164.453 423.185 -165.132 C 427.013 -167.953 430.42 -171.768 429.35 -176.339 C 427.609 -183.768 432.229 -190.802 429.842 -197.935 C 427.493 -204.959 424.673 -211.825 422.066 -218.763 C 409.223 -252.947 396.077 -287.022 383.728 -321.383 C 380.124 -331.41 378.791 -342.252 376.418 -352.72 C 376.387 -352.857 376.307 -353.016 376.347 -353.131 C 380.583 -365.356 370.692 -372.691 366.445 -381.994 C 365.74 -383.541 365.184 -385.576 365.575 -387.128 C 367.079 -393.093 365.779 -398.809 363.261 -403.876 C 357.101 -416.27 350.691 -428.583 343.596 -440.458 C 325.518 -470.714 303.135 -497.637 278.533 -522.779 C 277.341 -523.998 276.247 -525.667 275.89 -527.298 C 271.105 -549.125 262.262 -569.02 248.187 -586.482 C 247.857 -586.89 247.645 -587.391 247.494 -587.65 C 251.073 -589.479 254.472 -591.255 257.915 -592.941 C 258.578 -593.265 259.441 -593.421 260.173 -593.333 C 272.114 -591.876 284.059 -590.437 295.983 -588.842 C 302.357 -587.99 308.684 -586.779 315.051 -585.868 C 318.975 -585.306 322.605 -585.971 324.548 -588.529 C 329.746 -586.801 334.542 -585.232 339.316 -583.598 C 340.206 -583.293 341.258 -582.934 341.809 -582.254 C 345.877 -577.234 351.582 -575.951 357.514 -575.322 C 380.825 -572.851 404.199 -572.201 427.635 -572.691 C 442.339 -573 457.065 -573.046 471.762 -572.58 C 478.137 -572.376 484.338 -572.121 490.347 -574.462 C 494.896 -576.235 498.863 -578.667 500.554 -583.738 C 500.852 -584.631 502.32 -585.151 503.273 -585.806 C 506.896 -588.292 510.537 -590.752 514.149 -593.253 C 514.816 -593.715 515.342 -594.377 516.002 -594.851 C 538.188 -610.78 560.698 -626.283 582.427 -642.812 C 591.493 -649.709 599.107 -658.592 606.982 -666.95 C 611.459 -671.702 614.069 -677.721 614.526 -684.361 C 614.83 -688.772 612.82 -690.158 608.889 -687.987 C 605.121 -685.906 601.618 -683.258 598.258 -680.541 C 576.344 -662.817 554.598 -644.883 532.562 -627.313 C 527.119 -622.973 520.803 -619.733 514.904 -615.96 C 512.898 -614.678 510.97 -613.274 508.962 -611.994 C 505.082 -609.52 501.172 -607.096 497.023 -604.495 C 493.32 -610.711 488.666 -609.458 483.947 -608.167 C 470.878 -604.596 457.946 -600.261 444.669 -597.804 C 434.851 -595.987 424.58 -596.375 414.505 -596.25 C 395.15 -596.013 375.792 -596.09 356.437 -596.123 C 355.364 -596.125 353.973 -596.61 353.272 -597.371 C 347.064 -604.12 340.19 -606.829 330.728 -605.833 C 331.94 -609.784 329.463 -611.154 326.354 -611.659 C 321.942 -612.375 317.495 -613.008 313.039 -613.306 C 296.368 -614.422 279.715 -614.804 263.228 -611.228 C 262.232 -611.012 260.757 -610.811 260.149 -611.341 C 252.327 -618.171 242.553 -618.132 233.155 -618.754 C 226.372 -619.203 219.504 -618.355 212.41 -618.075 C 212.41 -620.039 212.157 -622.653 212.54 -625.169 C 212.685 -626.114 214.179 -627.146 215.278 -627.602 C 221.476 -630.167 227.812 -632.406 233.95 -635.098 C 237.004 -636.438 239.911 -638.257 239.979 -642.433 C 239.992 -643.305 241.365 -644.365 242.338 -644.978 C 248.491 -648.855 253.6 -653.546 257.005 -660.215 C 258.535 -663.211 261.628 -665.401 263.979 -667.987 C 266 -670.211 267.873 -671.98 267.289 -675.914 C 266.846 -678.898 268.573 -683.179 270.803 -685.424 C 282.848 -697.553 295.167 -709.426 307.742 -721.007 C 322.312 -734.424 337.976 -746.475 355.13 -756.477 C 359.161 -758.828 362.048 -762.022 363.676 -766.463 C 364.134 -767.713 365.312 -768.917 366.472 -769.651 C 370.254 -772.045 374.323 -774.005 378.004 -776.537 C 380.696 -778.388 383.708 -780.423 382.396 -784.714 C 382.225 -785.276 383.158 -786.406 383.836 -786.96 C 393.174 -794.6 399.847 -804.361 406.863 -814.066 C 421.316 -834.059 436.788 -853.318 451.898 -872.833 C 456.962 -879.373 462.514 -885.552 467.293 -892.286 C 475.274 -903.532 481.231 -915.972 487.828 -928.053 C 495.874 -942.785 505.264 -956.78 514.034 -971.117 C 526.245 -991.078 538.353 -1011.104 546.928 -1032.991 C 548.556 -1037.146 549.754 -1041.483 550.919 -1045.798 C 551.31 -1047.248 550.98 -1048.891 550.98 -1051.544 C 548.721 -1050.01 547.126 -1049.356 546.146 -1048.186 C 542.554 -1043.894 538.791 -1039.673 535.761 -1034.993 C 514.965 -1002.872 494.33 -970.645 473.668 -938.436 C 471.397 -934.898 469.324 -931.235 467.09 -927.672 C 464.569 -923.654 462.864 -919.233 457.051 -918.047 C 453.014 -917.224 451.171 -913.17 451.134 -908.34 C 446.153 -909.8 444.416 -906.482 442.05 -903.05 C 436.167 -894.522 429.734 -886.371 423.449 -878.125 C 404.154 -852.808 384.83 -827.515 365.489 -802.234 C 364.853 -801.402 363.891 -800.161 363.124 -800.192 C 356.519 -800.458 353.168 -795.787 349.5 -791.555 C 348.218 -790.075 346.973 -788.561 345.533 -786.852 C 339.965 -789.081 335.576 -786.705 331.78 -782.703 C 318.077 -768.254 304.639 -753.547 290.669 -739.362 C 278.544 -727.05 266.388 -714.843 257.35 -699.958 C 255.475 -696.87 252.712 -695.094 249.845 -692.959 C 245.723 -689.892 241.122 -686.92 237.777 -682.792 C 236.774 -681.553 236.632 -679.654 235.896 -678.156 C 233.766 -673.828 231.744 -669.423 229.275 -665.292 C 227.431 -662.205 224.969 -660.794 220.653 -661.555 C 217.731 -662.07 214.155 -659.811 211.105 -658.315 C 209.169 -657.366 207.661 -655.541 205.981 -654.125 C 203.167 -656.236 205.255 -657.032 206.612 -658.25 C 212.549 -663.581 218.533 -668.871 224.222 -674.459 C 226.718 -676.912 228.659 -679.945 226.808 -683.926 C 226.504 -684.581 227.294 -685.939 227.867 -686.774 C 231.983 -692.773 234.787 -699.09 235.024 -706.622 C 235.129 -709.951 237.111 -713.222 238.25 -716.517 C 239.17 -719.178 240.2 -721.714 237.867 -724.38 C 237.197 -725.147 237.184 -727.767 237.782 -728.166 C 243.149 -731.742 242.483 -737.52 243.066 -742.607 C 246.079 -768.862 253.936 -793.225 268.028 -815.863 C 278.291 -832.349 286.787 -849.944 295.885 -867.143 C 298.981 -872.998 301.276 -879.196 299.181 -885.874 C 307.618 -891.065 309.611 -894.807 308.558 -903.307 C 313.564 -904.138 314.34 -907.894 314.234 -912.065 C 313.828 -928.186 313.437 -944.308 312.88 -960.424 C 312.157 -981.335 312.678 -1002.133 315.892 -1022.891 C 320.113 -1050.155 323.819 -1077.502 327.449 -1104.853 C 329.254 -1118.456 330.418 -1132.145 331.811 -1145.802 C 332.008 -1147.746 331.911 -1149.726 331.849 -1151.687 C 331.724 -1155.592 330.421 -1158.799 328.124 -1159.569 C 326.181 -1163.964 324.77 -1167.096 323.417 -1170.253 C 323.005 -1171.214 322.472 -1172.248 322.477 -1173.246 C 322.632 -1203.551 323.648 -1233.88 322.779 -1264.155 C 322.17 -1285.381 319.474 -1306.594 316.81 -1327.701 C 314.974 -1342.252 312.218 -1356.766 308.632 -1370.984 C 307.021 -1377.366 302.52 -1383.071 298.985 -1388.874 C 298.228 -1390.117 295.978 -1390.449 294.415 -1391.201 C 293.864 -1389.592 292.668 -1387.897 292.869 -1386.388 C 293.995 -1377.935 295.702 -1369.558 296.757 -1361.098 C 299.041 -1342.767 301.762 -1324.45 303.008 -1306.04 C 304.985 -1276.816 306.073 -1247.527 307.187 -1218.252 C 307.673 -1205.503 307.237 -1192.72 307.348 -1179.954 C 307.37 -1177.341 308.04 -1174.741 308.252 -1172.123 C 308.34 -1171.028 308.1 -1169.879 307.84 -1168.795 C 307.683 -1168.138 306.838 -1167.5 306.925 -1166.953 C 308.096 -1159.542 299.433 -1155.815 300.256 -1148.297 C 301 -1141.496 300.599 -1134.57 300.723 -1127.699 C 300.971 -1113.96 301.273 -1100.223 301.479 -1086.484 C 301.718 -1070.511 297.956 -1055.071 295.129 -1039.505 C 289.27 -1007.25 283.146 -975.02 282.997 -942.061 C 282.954 -932.53 283.364 -922.998 283.474 -913.464 C 283.486 -912.342 283.225 -910.953 282.551 -910.13 C 278.307 -904.956 278.256 -904.998 277.734 -900.125 C 274.435 -896.971 271.279 -895.089 269.747 -892.312 C 258.313 -871.591 246.906 -850.845 236.078 -829.805 C 226.495 -811.185 222.249 -790.884 218.886 -770.358 C 217.623 -762.652 215.499 -755.082 213.636 -747.482 C 212.441 -742.609 210.819 -737.942 212.61 -732.708 C 213.229 -730.901 212.415 -727.559 211.015 -726.309 C 207.486 -723.159 207.127 -719.425 208.117 -715.571 C 209.786 -709.076 208.437 -703.062 206.177 -697.104 C 205.82 -696.165 204.702 -695.227 203.724 -694.87 C 201.3 -693.984 198.754 -693.435 196.826 -692.906 C 193.843 -698.02 190.67 -703.29 187.715 -708.678 C 187.187 -709.64 187.685 -711.116 187.49 -712.319 C 186.676 -717.377 186.083 -722.505 184.731 -727.422 C 184.316 -728.932 181.735 -730.789 180.162 -730.775 C 178.578 -730.76 176.248 -728.931 175.593 -727.341 C 174.021 -723.527 173.239 -719.387 172.07 -715.131 L 165.221 -715.131 C 164.41 -718.683 164.109 -722.417 162.641 -725.613 C 161.628 -727.818 159.133 -730.452 157.05 -730.688 C 155.496 -730.865 152.556 -727.789 151.969 -725.678 C 150.715 -721.169 150.581 -716.348 150.004 -711.654 C 149.871 -710.579 150.14 -709.293 149.641 -708.452 C 146.962 -703.941 144.099 -699.541 140.975 -694.587 C 137.376 -693.771 135.003 -695.814 134.627 -700.198 C 134.203 -705.134 133.726 -710.094 133.807 -715.036 C 133.873 -719.132 134.521 -722.915 130.882 -726.257 C 129.442 -727.581 129.378 -730.722 129.241 -733.068 C 129.048 -736.348 130 -739.785 129.369 -742.935 C 126.433 -757.596 122.889 -772.136 119.996 -786.805 C 115.777 -808.197 107.551 -827.999 97.107 -846.989 C 88.939 -861.843 80.912 -876.777 72.505 -891.494 C 70.782 -894.509 67.646 -896.718 65.486 -898.961 C 63.346 -902.778 61.222 -906.361 59.324 -910.06 C 58.69 -911.295 58.305 -912.841 58.363 -914.222 C 59.309 -936.532 59.41 -958.849 56.15 -980.973 C 52.825 -1003.542 49.389 -1026.133 44.816 -1048.471 C 39.726 -1073.343 39.736 -1098.29 40.814 -1123.4 C 41.192 -1132.217 41.198 -1141.054 41.225 -1149.882 C 41.239 -1154.352 39.653 -1158.098 36.384 -1159.557 C 35.242 -1163.432 34.369 -1166.408 33.485 -1169.381 C 33.333 -1169.89 32.881 -1170.462 33.003 -1170.877 C 36.407 -1182.455 33.701 -1194.266 34.317 -1205.957 C 36.007 -1238.01 37.28 -1270.089 38.421 -1302.169 C 39.351 -1328.307 43.368 -1354.003 48.469 -1379.582 C 48.932 -1381.9 49.098 -1384.336 48.969 -1386.694 C 48.886 -1388.214 48.014 -1389.692 47.495 -1391.189 C 45.921 -1390.465 43.703 -1390.17 42.888 -1388.943 C 39.586 -1383.968 35.593 -1379.042 33.929 -1373.478 C 30.855 -1363.196 28.737 -1352.552 27.127 -1341.922 C 24.275 -1323.093 21.962 -1304.177 19.72 -1285.262 C 18.947 -1278.737 18.787 -1272.106 18.808 -1265.526 C 18.907 -1234.798 19.176 -1204.072 19.332 -1173.344 C 19.337 -1172.337 19.029 -1171.139 18.439 -1170.349 C 15.06 -1165.813 15.016 -1165.846 15.447 -1160.172 C 10.828 -1158.656 9.677 -1154.789 9.951 -1150.538 C 10.474 -1142.437 11.177 -1134.336 12.162 -1126.279 C 15.34 -1100.281 18.584 -1074.29 21.995 -1048.321 C 23.874 -1034.021 26.853 -1019.832 28.03 -1005.485 C 29.221 -990.984 29.123 -976.349 29 -961.777 C 28.859 -944.958 28.039 -928.143 27.599 -911.325 C 27.496 -907.39 28.658 -904.083 33.266 -903.343 C 31.783 -895.163 35.161 -889.672 42.631 -886.101 C 40.512 -878.824 43.088 -872.304 46.432 -866.104 C 56.398 -847.625 66.067 -828.96 76.766 -810.91 C 88.936 -790.378 95.361 -768.211 98.563 -744.831 C 99.372 -738.917 98.209 -732.266 104.2 -727.943 C 104.74 -727.553 104.653 -725.179 104.022 -724.48 C 101.675 -721.874 102.723 -719.363 103.488 -716.625 C 104.828 -711.829 105.604 -706.853 107.215 -702.158 C 108.924 -697.178 111.409 -692.47 113.383 -687.574 C 114.026 -685.974 113.992 -684.115 114.505 -682.447 C 115.297 -679.867 115.645 -676.755 117.325 -674.918 C 122.041 -669.765 127.372 -665.177 132.385 -660.29 C 133.2 -659.495 133.636 -658.309 133.715 -656.921 C 128.564 -660.257 123.873 -663.587 117.511 -661.065 C 117.086 -660.896 116.193 -661.427 115.748 -661.867 C 111.426 -666.128 107.386 -670.609 106.076 -676.809 C 105.018 -681.826 103.517 -686.408 97.419 -687.191 C 95.681 -692.029 89.426 -692.513 87.482 -695.79 C 72.501 -721.044 49.698 -739.374 30.811 -761.128 C 24.292 -768.636 17.129 -775.599 10.073 -782.621 C 4.8 -787.869 3.037 -788.249 -3.764 -787.059 C -6.467 -790.108 -8.976 -793.34 -11.921 -796.108 C -13.688 -797.768 -16.149 -799.756 -18.277 -799.732 C -22.194 -799.686 -23.485 -802.134 -25.34 -804.555 C -48.707 -835.059 -72.131 -865.518 -95.502 -896.019 C -97.455 -898.568 -99.393 -901.196 -100.854 -904.036 C -102.621 -907.469 -104.912 -909.332 -109.148 -908.371 C -109.495 -914.77 -113.057 -918.25 -119.069 -919.643 C -120.095 -919.881 -121.169 -920.896 -121.772 -921.839 C -144.117 -956.793 -166.374 -991.803 -188.74 -1026.744 C -192.814 -1033.11 -197.167 -1039.312 -201.668 -1045.384 C -203.322 -1047.617 -205.776 -1049.255 -207.865 -1051.165 C -208.344 -1050.929 -208.822 -1050.694 -209.301 -1050.458 C -209.22 -1048.793 -209.57 -1046.958 -208.989 -1045.49 C -204.26 -1033.549 -200.488 -1021.046 -194.274 -1009.916 C -181.171 -986.443 -166.663 -963.759 -152.947 -940.624 C -148.672 -933.415 -145.078 -925.801 -141.193 -918.362 C -138.498 -913.197 -135.853 -908.006 -133.151 -902.844 C -132.699 -901.98 -132.127 -901.167 -131.525 -900.397 C -112.876 -876.55 -94.132 -852.78 -75.614 -828.833 C -70.307 -821.969 -65.99 -814.333 -60.601 -807.542 C -55.138 -800.661 -48.947 -794.35 -42.985 -787.874 C -41.692 -786.47 -40.478 -785.668 -40.645 -783.121 C -40.773 -781.174 -38.707 -778.489 -36.875 -777.132 C -33.073 -774.314 -28.729 -772.238 -24.717 -769.684 C -23.552 -768.943 -22.322 -767.773 -21.876 -766.53 C -20.277 -762.07 -17.38 -758.899 -13.377 -756.507 C 8.776 -743.27 28.675 -727.24 46.601 -708.651 C 54.084 -700.891 62.315 -693.857 70.083 -686.365 C 71.233 -685.254 71.829 -683.489 72.467 -681.938 C 74.803 -676.256 74.169 -669.35 80.414 -665.254 C 82.92 -663.611 84.073 -660.039 86.27 -657.756 C 90.498 -653.365 95.075 -649.311 99.404 -645.014 C 100.464 -643.961 101.081 -642.474 101.986 -641.25 C 103.27 -639.515 104.284 -637.187 106.024 -636.263 C 110.695 -633.785 115.591 -631.625 120.592 -629.907 C 124.179 -628.675 125.972 -626.971 125.27 -623.049 C 125.007 -621.583 125.227 -620.032 125.227 -618.3 C 113.91 -619.549 102.782 -619.198 91.842 -616.433 C 89.17 -615.758 86.102 -614.98 84.234 -613.187 C 81.502 -610.566 78.888 -611.017 75.865 -611.607 C 56.229 -615.44 36.535 -614.471 16.867 -612.01 C 13.957 -611.646 9.884 -611.284 11.214 -606.015 C 2.041 -606.731 -5.881 -604.316 -11.805 -596.854 C -12.269 -596.27 -13.515 -596.087 -14.397 -596.087 C -34.736 -596.095 -55.087 -596.62 -75.41 -596.079 C -97.78 -595.482 -119.085 -599.887 -139.938 -607.415 C -141.639 -608.029 -143.396 -608.562 -145.171 -608.88 C -150.332 -609.805 -151.359 -609.396 -155.459 -604.639 C -159.661 -607.311 -164.055 -609.991 -168.329 -612.847 C -178.921 -619.926 -189.923 -626.495 -199.918 -634.34 C -219.108 -649.401 -237.695 -665.228 -256.582 -680.677 C -259.609 -683.154 -262.707 -685.668 -266.134 -687.481 C -267.946 -688.44 -270.538 -687.924 -272.778 -688.075 L -272.778 -680.495 C -270.24 -675.921 -268.499 -670.589 -265.01 -666.92 C -255.465 -656.885 -245.958 -646.54 -235.026 -638.159 C -215.257 -623.004 -194.46 -609.192 -174.103 -594.804 C -173.441 -594.337 -172.941 -593.64 -172.278 -593.176 C -168.789 -590.739 -165.275 -588.333 -161.759 -585.934 C -160.793 -585.274 -159.203 -584.88 -158.894 -584.01 C -156.513 -577.311 -151.005 -574.539 -144.809 -573.448 C -139.663 -572.542 -134.287 -572.82 -129.011 -572.791 C -114.445 -572.71 -99.87 -572.433 -85.312 -572.804 C -62.078 -573.396 -38.851 -574.338 -15.632 -575.383 C -9.694 -575.651 -4.002 -577.263 0.046 -582.304 C 0.589 -582.979 1.668 -583.298 2.56 -583.604 C 7.324 -585.24 12.107 -586.82 17.262 -588.545 C 19.272 -585.962 22.891 -585.312 26.817 -585.878 C 30.413 -586.397 33.956 -587.287 37.554 -587.77 C 52.378 -589.758 67.214 -591.66 82.049 -593.561 C 82.542 -593.625 83.148 -593.455 83.586 -593.198 C 86.05 -591.752 88.479 -590.248 90.923 -588.761 C 74.762 -565.79 67.843 -554.829 64.537 -537.587 C 61.893 -523.795 55.233 -513.592 45.858 -503.721 C 20.416 -476.934 0.145 -446.345 -17.157 -413.777 C -20.903 -406.725 -25.208 -399.191 -23.966 -391.215 C -22.979 -384.875 -25.317 -380.786 -28.198 -376.163 C -30.194 -372.958 -32.17 -369.691 -33.67 -366.241 C -34.814 -363.609 -36.409 -360.274 -35.681 -357.904 C -33.779 -351.714 -35.579 -345.844 -36.826 -340.282 C -39.262 -329.413 -42.644 -318.679 -46.547 -308.23 C -59.614 -273.247 -73.13 -238.431 -86.353 -203.505 C -88.651 -197.433 -90.218 -191.158 -86.733 -184.827 C -86.365 -184.159 -86.683 -182.989 -86.931 -182.123 C -89.008 -174.879 -87.246 -169.578 -81.329 -165.108 C -80.416 -164.419 -79.481 -163.47 -79.084 -162.439 C -77.591 -158.556 -76.61 -154.457 -74.903 -150.679 C -70.238 -140.351 -65.022 -130.266 -60.523 -119.87 C -46.36 -87.136 -32.498 -54.272 -18.349 -21.532 C -14.838 -13.406 -10.164 -5.921 -3.368 0 Z" style="fill: rgb(255,255,255); fill-opacity: 0.8;"/>
        </g>
      </g>
      <g style="clip-path: url('#clippath0');">
        <g transform="">
          <path d="M 1024.043 1064.794 L 1016.94 1064.794 L 1016.94 2734.024 L 1024.043 2734.024 Z" style="fill: rgb(255,255,255); fill-opacity: 0.8;"/>
        </g>
      </g>
    </g>
  </g>
</svg>