<?xml version="1.0" encoding="utf-8"?>
<svg viewBox="0 0 361 361" xmlns="http://www.w3.org/2000/svg" xmlns:xlink="http://www.w3.org/1999/xlink" xmlns:bx="https://boxy-svg.com">
  <defs>
    <linearGradient id="b" bx:pinned="true">
      <stop offset="0" stop-color="#fbb03b"/>
      <stop offset="1" stop-color="#f05a24"/>
    </linearGradient>
    <linearGradient id="a" bx:pinned="true">
      <stop offset="0" stop-color="#5f2583"/>
      <stop offset="1" stop-color="#ed1e79"/>
    </linearGradient>
    <linearGradient id="d" x1="973.216" x2="973.216" y1="100.665" y2="388.077" gradientTransform="matrix(.97413 -.22842 .31045 1.35247 -95.3 85.515)" gradientUnits="userSpaceOnUse" xlink:href="#a"/>
    <linearGradient id="c" x1="188.919" x2="188.919" y1="1.638" y2="361.638" gradientTransform="matrix(-1 .0016 -.00202 -1.25907 376.78 357.265)" gradientUnits="userSpaceOnUse" xlink:href="#b"/>
  </defs>
  <g transform="translate(-69.987 -69.986)">
    <path fill="url(#c)" d="M8.919 181.638a180 180 0 1 0 360 0 180 180 0 1 0-360 0Zm80 0a100 100 0 0 1 200 0 100 100 0 0 1-200 0Z" transform="translate(61.094 68.348)"/>
    <path fill="url(#d)" d="M958.327 100.665a175.433 175.433 0 0 1 0 287.412l-45.03-64.31a96.924 96.924 0 0 0 0-158.791Z" paint-order="stroke" transform="matrix(1.03173 0 0 1.0208 -634.597 .545)"/>
    <circle cx="250" cy="250" r="100" style="fill: rgb(51, 51, 51);"/>
  </g>
  <path fill="#fff" d="M 617.247 50.83 C 611.988 53.161 605.329 55.35 599.361 56.077 C 605.43 52.476 615.058 44.976 617.247 38.191 C 611.577 41.524 601.322 45.083 594.633 46.37 C 589.291 40.707 581.672 38.191 573.229 38.191 C 557.013 38.191 545.703 51.934 545.703 68.001 L 545.703 79.925 C 521.855 79.925 498.604 61.759 484.134 44.153 C 481.588 48.451 480.158 53.483 480.158 58.801 C 480.158 69.646 490.12 80.652 498.008 85.886 C 493.196 85.737 484.086 82.065 480.122 79.925 C 480.122 80.02 480.122 80.139 480.122 80.264 C 480.122 94.376 490.024 103.957 503.445 106.628 C 500.994 107.302 498.008 109.735 486.513 109.735 C 490.245 121.271 509.007 127.37 521.855 127.62 C 511.803 135.413 493.882 139.545 480.122 139.545 C 477.743 139.545 476.455 139.676 474.16 139.407 C 487.144 147.635 505.281 151.468 521.855 151.468 C 575.853 151.468 605.323 110.223 605.323 71.757 C 605.323 70.493 605.281 66.26 605.215 65.02 C 610.987 60.953 613.324 56.697 617.247 50.83" style="transform-box: fill-box; transform-origin: 50% 50%;"/>
  <g transform="matrix(5.970124, 0, 0, 5.970124, 108.430817, 108.591446)" style="">
    <path d="M 17.504 3.857 L 20.255 3.857 L 14.246 10.725 L 21.315 20.07 L 15.78 20.07 L 11.445 14.402 L 6.485 20.07 L 3.733 20.07 L 10.16 12.724 L 3.378 3.857 L 9.054 3.857 L 12.972 9.037 L 17.504 3.857 Z M 16.539 18.424 L 18.063 18.424 L 8.226 5.416 L 6.59 5.416 L 16.539 18.424 Z" style="fill: rgb(255, 255, 255); transform-origin: 11.9879px 11.9635px;"/>
  </g>
</svg>