<?xml version="1.0" encoding="utf-8"?>
<svg viewBox="0 0 361 361" xmlns="http://www.w3.org/2000/svg" xmlns:xlink="http://www.w3.org/1999/xlink" xmlns:bx="https://boxy-svg.com">
  <defs>
    <linearGradient id="b" bx:pinned="true">
      <stop offset="0" stop-color="#fbb03b"/>
      <stop offset="1" stop-color="#f05a24"/>
    </linearGradient>
    <linearGradient id="a" bx:pinned="true">
      <stop offset="0" stop-color="#5f2583"/>
      <stop offset="1" stop-color="#ed1e79"/>
    </linearGradient>
    <linearGradient id="d" x1="973.216" x2="973.216" y1="100.665" y2="388.077" gradientTransform="matrix(.97413 -.22842 .31045 1.35247 -95.3 85.515)" gradientUnits="userSpaceOnUse" xlink:href="#a"/>
    <linearGradient id="c" x1="188.919" x2="188.919" y1="1.638" y2="361.638" gradientTransform="matrix(-1 .0016 -.00202 -1.25907 376.78 357.265)" gradientUnits="userSpaceOnUse" xlink:href="#b"/>
  </defs>
  <g transform="translate(-69.987 -69.986)">
    <path fill="url(#c)" d="M8.919 181.638a180 180 0 1 0 360 0 180 180 0 1 0-360 0Zm80 0a100 100 0 0 1 200 0 100 100 0 0 1-200 0Z" transform="translate(61.094 68.348)"/>
    <path fill="url(#d)" d="M958.327 100.665a175.433 175.433 0 0 1 0 287.412l-45.03-64.31a96.924 96.924 0 0 0 0-158.791Z" paint-order="stroke" transform="matrix(1.03173 0 0 1.0208 -634.597 .545)"/>
    <circle cx="250" cy="250" r="100" style="fill: rgb(51, 51, 51);"/>
  </g>
  <path style="stroke: rgb(0, 0, 0); fill: rgb(51, 51, 51); stroke-width: 0px;" d="M 141.482 217.444 H 219.17 A 15 15 0 0 1 234.17 232.444 V 263.693 A 20 20 0 0 1 214.17 283.693 H 141.482 A 15 15 0 0 1 126.482 268.693 V 232.444 A 15 15 0 0 1 141.482 217.444 Z" bx:shape="rect 126.482 217.444 107.688 66.249 15 15 20 15 1@5179be3d"/>
  <path d="M 179.024 17.441 C 192.582 17.441 203.574 28.724 203.574 42.644 C 203.574 51.968 198.665 60.158 191.3 64.442 L 191.3 80.445 L 203.574 80.445 C 251.029 80.445 289.5 119.937 289.5 168.653 L 301.773 168.653 C 308.552 168.653 314.049 174.294 314.049 181.252 L 314.049 219.056 C 314.049 226.016 308.552 231.658 301.773 231.658 L 289.5 231.658 L 289.5 244.259 C 289.5 258.176 278.507 269.461 264.95 269.461 L 93.1 269.461 C 79.54 269.461 68.551 258.176 68.551 244.259 L 68.551 231.658 L 56.275 231.658 C 49.495 231.658 44 226.016 44 219.056 L 44 181.252 C 44 174.294 49.495 168.653 56.275 168.653 L 68.551 168.653 C 68.551 119.937 107.02 80.445 154.475 80.445 L 166.749 80.445 L 166.749 64.442 C 159.384 60.158 154.475 51.968 154.475 42.644 C 154.475 28.724 165.465 17.441 179.024 17.441 M 123.788 156.051 C 106.839 156.051 93.1 170.155 93.1 187.554 C 93.1 204.952 106.839 219.056 123.788 219.056 C 140.735 219.056 154.475 204.952 154.475 187.554 C 154.475 170.155 140.735 156.051 123.788 156.051 M 234.261 156.051 C 217.313 156.051 203.574 170.155 203.574 187.554 C 203.574 204.952 217.313 219.056 234.261 219.056 C 251.211 219.056 264.95 204.952 264.95 187.554 C 264.95 170.155 251.211 156.051 234.261 156.051 Z" style="fill: rgb(51, 51, 51);"/>
  <path style="fill: rgb(234, 2, 251); stroke: rgb(240, 249, 3); stroke-width: 5.80333px;" transform="matrix(0.68926, 0, 0, 0.68926, -388.818115, 9.670789)" d="M 738.456 162.279 L 752.622 162.279 L 755.612 183.915 A 37.631 37.631 0 0 1 764.055 187.412 L 781.468 174.227 L 791.485 184.244 L 778.3 201.657 A 37.631 37.631 0 0 1 781.798 210.101 L 803.434 213.09 L 803.434 227.256 L 781.798 230.245 A 37.631 37.631 0 0 1 778.3 238.689 L 791.485 256.102 L 781.468 266.119 L 764.055 252.934 A 37.631 37.631 0 0 1 755.612 256.431 L 752.622 278.067 L 738.456 278.067 L 735.467 256.431 A 37.631 37.631 0 0 1 727.023 252.934 L 709.61 266.119 L 699.593 256.102 L 712.779 238.689 A 37.631 37.631 0 0 1 709.281 230.245 L 687.645 227.256 L 687.645 213.09 L 709.281 210.101 A 37.631 37.631 0 0 1 712.779 201.657 L 699.593 184.244 L 709.61 174.227 L 727.023 187.412 A 37.631 37.631 0 0 1 735.467 183.915 Z M 745.539 202.805 A 17.368 17.368 0 0 0 745.539 237.541 A 17.368 17.368 0 0 0 745.539 202.805" bx:shape="cog 745.539 220.173 17.368 37.631 57.894 0.38 8 1@4643c432"/>
  <path style="fill: rgb(234, 2, 251); stroke: rgb(240, 249, 3); stroke-width: 5.80333px;" transform="matrix(0.68926, 0, 0, 0.68926, -279.363495, 9.670789)" d="M 738.456 162.279 L 752.622 162.279 L 755.612 183.915 A 37.631 37.631 0 0 1 764.055 187.412 L 781.468 174.227 L 791.485 184.244 L 778.3 201.657 A 37.631 37.631 0 0 1 781.798 210.101 L 803.434 213.09 L 803.434 227.256 L 781.798 230.245 A 37.631 37.631 0 0 1 778.3 238.689 L 791.485 256.102 L 781.468 266.119 L 764.055 252.934 A 37.631 37.631 0 0 1 755.612 256.431 L 752.622 278.067 L 738.456 278.067 L 735.467 256.431 A 37.631 37.631 0 0 1 727.023 252.934 L 709.61 266.119 L 699.593 256.102 L 712.779 238.689 A 37.631 37.631 0 0 1 709.281 230.245 L 687.645 227.256 L 687.645 213.09 L 709.281 210.101 A 37.631 37.631 0 0 1 712.779 201.657 L 699.593 184.244 L 709.61 174.227 L 727.023 187.412 A 37.631 37.631 0 0 1 735.467 183.915 Z M 745.539 202.805 A 17.368 17.368 0 0 0 745.539 237.541 A 17.368 17.368 0 0 0 745.539 202.805" bx:shape="cog 745.539 220.173 17.368 37.631 57.894 0.38 8 1@4643c432"/>
  <path style="fill: rgb(234, 0, 252); stroke: rgb(240, 249, 4); stroke-width: 5.97147px;" transform="matrix(0, -0.68926, 0.650443, 0, 9.626322, 884.668335)" d="M 913.597 188.88 A 74.452 74.452 0 0 1 913.597 337.58 A 94.28 94.28 0 0 0 913.597 188.88 Z" bx:shape="crescent 909.701 263.23 74.452 174 0.77 1@0c645d80"/>
</svg>