<?xml version="1.0" encoding="utf-8"?>
<svg viewBox="0 0 361 361" xmlns="http://www.w3.org/2000/svg" xmlns:xlink="http://www.w3.org/1999/xlink" xmlns:bx="https://boxy-svg.com">
  <defs>
    <linearGradient id="b" bx:pinned="true">
      <stop offset="0" stop-color="#fbb03b"/>
      <stop offset="1" stop-color="#f05a24"/>
    </linearGradient>
    <linearGradient id="a" bx:pinned="true">
      <stop offset="0" stop-color="#5f2583"/>
      <stop offset="1" stop-color="#ed1e79"/>
    </linearGradient>
    <linearGradient id="d" x1="973.216" x2="973.216" y1="100.665" y2="388.077" gradientTransform="matrix(.97413 -.22842 .31045 1.35247 -95.3 85.515)" gradientUnits="userSpaceOnUse" xlink:href="#a"/>
    <linearGradient id="c" x1="188.919" x2="188.919" y1="1.638" y2="361.638" gradientTransform="matrix(-1 .0016 -.00202 -1.25907 376.78 357.265)" gradientUnits="userSpaceOnUse" xlink:href="#b"/>
  </defs>
  <g transform="translate(-69.987 -69.986)">
    <path fill="url(#c)" d="M8.919 181.638a180 180 0 1 0 360 0 180 180 0 1 0-360 0Zm80 0a100 100 0 0 1 200 0 100 100 0 0 1-200 0Z" transform="translate(61.094 68.348)"/>
    <path fill="url(#d)" d="M958.327 100.665a175.433 175.433 0 0 1 0 287.412l-45.03-64.31a96.924 96.924 0 0 0 0-158.791Z" paint-order="stroke" transform="matrix(1.03173 0 0 1.0208 -634.597 .545)"/>
    <circle cx="250" cy="250" r="100" style="fill: rgb(51, 51, 51);"/>
  </g>
  <path d="M 179.024 17.441 C 192.582 17.441 203.574 28.724 203.574 42.644 C 203.574 51.968 198.665 60.158 191.3 64.442 L 191.3 80.445 L 203.574 80.445 C 251.029 80.445 289.5 119.937 289.5 168.653 L 301.773 168.653 C 308.552 168.653 314.049 174.294 314.049 181.252 L 314.049 219.056 C 314.049 226.016 308.552 231.658 301.773 231.658 L 289.5 231.658 L 289.5 244.259 C 289.5 258.176 278.507 269.461 264.95 269.461 L 93.1 269.461 C 79.54 269.461 68.551 258.176 68.551 244.259 L 68.551 231.658 L 56.275 231.658 C 49.495 231.658 44 226.016 44 219.056 L 44 181.252 C 44 174.294 49.495 168.653 56.275 168.653 L 68.551 168.653 C 68.551 119.937 107.02 80.445 154.475 80.445 L 166.749 80.445 L 166.749 64.442 C 159.384 60.158 154.475 51.968 154.475 42.644 C 154.475 28.724 165.465 17.441 179.024 17.441 M 123.788 156.051 C 106.839 156.051 93.1 170.155 93.1 187.554 C 93.1 204.952 106.839 219.056 123.788 219.056 C 140.735 219.056 154.475 204.952 154.475 187.554 C 154.475 170.155 140.735 156.051 123.788 156.051 M 234.261 156.051 C 217.313 156.051 203.574 170.155 203.574 187.554 C 203.574 204.952 217.313 219.056 234.261 219.056 C 251.211 219.056 264.95 204.952 264.95 187.554 C 264.95 170.155 251.211 156.051 234.261 156.051 Z" style="fill: rgb(51, 51, 51);"/>
  <path style="stroke: rgb(0, 0, 0); fill: rgb(0, 255, 255);" d="M 230.8036666666667 180.27966666666666 C 242.66066666666666 174.97766666666666 254.43433333333337 162.1783333333333 261.8475 164.7678333333333 C 269.2606666666667 167.35733333333334 272.31333333333333 185.33566666666664 266.66816666666665 197.40016666666668 C 261.02299999999997 209.46466666666666 246.67999999999998 215.61533333333333 234.91366666666667 216.25016666666667 C 223.14733333333334 216.885 213.95766666666668 212.004 207.69516666666667 206.55416666666667 C 201.43266666666668 201.10433333333333 198.09733333333335 195.0856666666667 196.48033333333333 190.7636666666667 C 194.86333333333334 186.4416666666667 194.96466666666666 183.81633333333335 200.9855 183.60133333333332 C 207.00633333333334 183.38633333333334 218.9466666666667 185.58166666666668 230.8036666666667 180.27966666666666" bx:d="M 230.887 187.777 U 266.208 149.379 U 275.366 203.314 U 232.337 221.766 U 204.768 207.123 U 194.762 189.067 U 195.066 181.191 Z 1@bed104d7"/>
  <path style="stroke: rgb(0, 0, 0); fill: rgb(0, 255, 255);" d="M 126.47766666666666 200.45233333333337 C 138.33466666666666 205.75433333333334 150.10833333333335 218.5536666666667 157.5215 215.96416666666664 C 164.93466666666666 213.37466666666668 167.98733333333334 195.39633333333336 162.34216666666666 183.33183333333332 C 156.697 171.26733333333334 142.354 165.11666666666667 130.58766666666665 164.48183333333336 C 118.82133333333333 163.847 109.63166666666666 168.728 103.36916666666667 174.17783333333333 C 97.10666666666667 179.62766666666667 93.77133333333335 185.64633333333333 92.15433333333334 189.96833333333333 C 90.53733333333334 194.29033333333334 90.63866666666667 196.91566666666665 96.6595 197.13066666666666 C 102.68033333333334 197.3456666666667 114.62066666666668 195.15033333333335 126.47766666666666 200.45233333333337" transform="matrix(-1, 0, 0, -1, 256.525604, 380.732117)" bx:d="M 126.561 192.955 U 161.882 231.353 U 171.04 177.418 U 128.011 158.966 U 100.442 173.609 U 90.436 191.665 U 90.74 199.541 Z 1@1dd70f4c"/>
  <ellipse style="stroke: rgb(0, 0, 0);" cx="228.411" cy="187.983" rx="10.116" ry="10.116"/>
  <ellipse style="stroke: rgb(0, 0, 0);" cx="133.506" cy="187.307" rx="10.116" ry="10.116"/>
</svg>