<?xml version="1.0" encoding="utf-8"?>
<svg viewBox="0 0 361 361" xmlns="http://www.w3.org/2000/svg" xmlns:xlink="http://www.w3.org/1999/xlink" xmlns:bx="https://boxy-svg.com">
  <defs>
    <linearGradient id="b" bx:pinned="true">
      <stop offset="0" stop-color="#fbb03b"/>
      <stop offset="1" stop-color="#f05a24"/>
    </linearGradient>
    <linearGradient id="a" bx:pinned="true">
      <stop offset="0" stop-color="#5f2583"/>
      <stop offset="1" stop-color="#ed1e79"/>
    </linearGradient>
    <linearGradient id="d" x1="973.216" x2="973.216" y1="100.665" y2="388.077" gradientTransform="matrix(.97413 -.22842 .31045 1.35247 -95.3 85.515)" gradientUnits="userSpaceOnUse" xlink:href="#a"/>
    <linearGradient id="c" x1="188.919" x2="188.919" y1="1.638" y2="361.638" gradientTransform="matrix(-1 .0016 -.00202 -1.25907 376.78 357.265)" gradientUnits="userSpaceOnUse" xlink:href="#b"/>
  </defs>
  <g transform="translate(-69.987 -69.986)">
    <path fill="url(#c)" d="M8.919 181.638a180 180 0 1 0 360 0 180 180 0 1 0-360 0Zm80 0a100 100 0 0 1 200 0 100 100 0 0 1-200 0Z" transform="translate(61.094 68.348)"/>
    <path fill="url(#d)" d="M958.327 100.665a175.433 175.433 0 0 1 0 287.412l-45.03-64.31a96.924 96.924 0 0 0 0-158.791Z" paint-order="stroke" transform="matrix(1.03173 0 0 1.0208 -634.597 .545)"/>
    <circle cx="250" cy="250" r="100" style="fill: rgb(51, 51, 51);"/>
  </g>
  <path style="stroke: rgb(0, 0, 0); fill: rgb(51, 51, 51); stroke-width: 0px;" d="M 141.482 217.444 H 219.17 A 15 15 0 0 1 234.17 232.444 V 263.693 A 20 20 0 0 1 214.17 283.693 H 141.482 A 15 15 0 0 1 126.482 268.693 V 232.444 A 15 15 0 0 1 141.482 217.444 Z" bx:shape="rect 126.482 217.444 107.688 66.249 15 15 20 15 1@5179be3d"/>
  <path d="M 179.024 17.441 C 192.582 17.441 203.574 28.724 203.574 42.644 C 203.574 51.968 198.665 60.158 191.3 64.442 L 191.3 80.445 L 203.574 80.445 C 251.029 80.445 289.5 119.937 289.5 168.653 L 301.773 168.653 C 308.552 168.653 314.049 174.294 314.049 181.252 L 314.049 219.056 C 314.049 226.016 308.552 231.658 301.773 231.658 L 289.5 231.658 L 289.5 244.259 C 289.5 258.176 278.507 269.461 264.95 269.461 L 93.1 269.461 C 79.54 269.461 68.551 258.176 68.551 244.259 L 68.551 231.658 L 56.275 231.658 C 49.495 231.658 44 226.016 44 219.056 L 44 181.252 C 44 174.294 49.495 168.653 56.275 168.653 L 68.551 168.653 C 68.551 119.937 107.02 80.445 154.475 80.445 L 166.749 80.445 L 166.749 64.442 C 159.384 60.158 154.475 51.968 154.475 42.644 C 154.475 28.724 165.465 17.441 179.024 17.441 M 123.788 156.051 C 106.839 156.051 93.1 170.155 93.1 187.554 C 93.1 204.952 106.839 219.056 123.788 219.056 C 140.735 219.056 154.475 204.952 154.475 187.554 C 154.475 170.155 140.735 156.051 123.788 156.051 M 234.261 156.051 C 217.313 156.051 203.574 170.155 203.574 187.554 C 203.574 204.952 217.313 219.056 234.261 219.056 C 251.211 219.056 264.95 204.952 264.95 187.554 C 264.95 170.155 251.211 156.051 234.261 156.051 Z" style="fill: rgb(51, 51, 51);"/>
  <circle cx="124.376" cy="185.526" r="29.221" style="fill: rgb(255, 255, 255);"/>
  <circle cx="233.844" cy="185.5" r="29.2" style="fill: rgb(255, 255, 255);"/>
  <g transform="matrix(1, 0, 0, 1, -287.45224, -8.763936)"/>
  <path style="fill: none; stroke-width: 2px; stroke: rgb(51, 51, 51);" d="M 94.481 185.355 C 103.078 196.904 141.802 197.025 154.01 185.779"/>
  <path style="fill: none; stroke-width: 2px; stroke: rgb(51, 51, 51);" d="M 203.876 185.812 C 212.473 197.361 251.197 197.482 263.405 186.236"/>
  <g transform="matrix(0.296133, 0, 0, 0.296133, 134.157959, 226.870468)" style="">
    <defs/>
    <g stroke="#000">
      <path d="m7.4119 12.665c83.218 58.425 138.3 16.548 152.06 47.077 12.988-31.038 60.964 9.3217 149.29-51.17-77.582 194.79-256.08 151.09-301.35 4.0936z" stroke-width="2" style="fill: rgb(94, 76, 76);"/>
      <path d="m15.092 30.702c85.332 49.331 177.88 60.37 284.46-3.072-30.928 39.233-57.509 80.062-137.62 86.013-93.706-2.202-131.65-58.354-146.84-82.941z" fill="#1a1a1a"/>
      <g fill="#fff">
        <path d="m126.54 71.13l-0.247 25.924c-3.0202 17.307 34.216 19.325 32.829 2.2256l-0.247-25.31c-9.9174-0.21436-23.534-1.0903-32.335-2.84z"/>
        <path d="m160.8 73.578c10.219 0.50391 21.137-1.095 32.331-2.5419l0.9969 24.379c-4.8966 23.987-35.992 16.929-32.96 5.0125l-0.3674-26.85z"/>
        <path d="m194.95 70.196l28.839-6.6389-0.7198 27.832c-0.39551 8.7446-18.267 18.206-27.737 4.8019l-0.3824-25.995z"/>
        <path d="m225.1 62.586l25.29-8.4202-0.015 24.173c-0.80655 3.4738-15.078 18.25-24.923 8.2353l-0.3524-23.988h3.1e-5z"/>
        <path d="m251.55 53.769l17.208-8.0677 1.1022 13.226c2.4712 3.5278-12.732 18.81-17.943 13.812l-0.3674-18.97z"/>
        <path d="m269.92 44.584c1.4696 0 13.961-6.6131 13.961-6.6131l0.2065 7.4382c-2.9371 4.2749-9.8424 15.42-13.564 10.459l-0.6038-11.284z"/>
        <path d="m284.62 36.869l1.1022 6.9805c3.9871-1.51 6.8017-8.3744 9.9197-12.492l-11.022 5.5109z"/>
        <path d="m96.143 65.526l-0.3674 30.494c7.455 11.687 28.032 11.851 28.708 5.904l0.3417-30.388c-10.968-1.837-20.586-4.1724-28.683-6.0094z"/>
        <path d="m69.323 57.443l-0.7348 26.452c-1.8469 0.42621 14.515 13.274 24.641 9.5523 1.4218-0.52252 1.4696-28.29 1.4696-28.29-6.9518-1.5633-16.465-4.1929-25.376-7.7153z"/>
        <path d="m49.851 49.728l-0.734 20.574c4.066 5.421 11.527 14.469 18.31 9.537l0.059-22.763-17.635-7.348z"/>
        <path d="m33.334 41.982l-0.015 11.052c4.5286 7.6315 11.257 15.713 15.401 13.276v-16.612l-15.386-7.7153h3.1e-5z"/>
        <path d="m20.092 35.032c1.7234 7.3134 10.891 19.113 12.124 19.839l-0.3674-13.226-11.757-6.6132z"/>
      </g>
    </g>
  </g>
</svg>