<?xml version="1.0" encoding="utf-8"?>
<svg viewBox="0 0 361 361" xmlns="http://www.w3.org/2000/svg" xmlns:xlink="http://www.w3.org/1999/xlink" xmlns:bx="https://boxy-svg.com">
  <defs>
    <linearGradient id="b" bx:pinned="true">
      <stop offset="0" stop-color="#fbb03b"/>
      <stop offset="1" stop-color="#f05a24"/>
    </linearGradient>
    <linearGradient id="a" bx:pinned="true">
      <stop offset="0" stop-color="#5f2583"/>
      <stop offset="1" stop-color="#ed1e79"/>
    </linearGradient>
    <linearGradient id="d" x1="973.216" x2="973.216" y1="100.665" y2="388.077" gradientTransform="matrix(.97413 -.22842 .31045 1.35247 -95.3 85.515)" gradientUnits="userSpaceOnUse" xlink:href="#a"/>
    <linearGradient id="c" x1="188.919" x2="188.919" y1="1.638" y2="361.638" gradientTransform="matrix(-1 .0016 -.00202 -1.25907 376.78 357.265)" gradientUnits="userSpaceOnUse" xlink:href="#b"/>
    <linearGradient id="a-0" gradientUnits="userSpaceOnUse" x1="64.065" y1="68.14" x2="64.065" y2="124" xlink:href="#a"/>
  </defs>
  <g transform="translate(-69.987 -69.986)">
    <path fill="url(#c)" d="M8.919 181.638a180 180 0 1 0 360 0 180 180 0 1 0-360 0Zm80 0a100 100 0 0 1 200 0 100 100 0 0 1-200 0Z" transform="translate(61.094 68.348)"/>
    <path fill="url(#d)" d="M958.327 100.665a175.433 175.433 0 0 1 0 287.412l-45.03-64.31a96.924 96.924 0 0 0 0-158.791Z" paint-order="stroke" transform="matrix(1.03173 0 0 1.0208 -634.597 .545)"/>
    <circle cx="250" cy="250" r="100" style="fill: rgb(51, 51, 51);"/>
  </g>
  <path style="stroke: rgb(0, 0, 0); fill: rgb(51, 51, 51); stroke-width: 0px;" d="M 141.482 217.444 H 219.17 A 15 15 0 0 1 234.17 232.444 V 263.693 A 20 20 0 0 1 214.17 283.693 H 141.482 A 15 15 0 0 1 126.482 268.693 V 232.444 A 15 15 0 0 1 141.482 217.444 Z" bx:shape="rect 126.482 217.444 107.688 66.249 15 15 20 15 1@5179be3d"/>
  <path d="M 179.024 17.441 C 192.582 17.441 203.574 28.724 203.574 42.644 C 203.574 51.968 198.665 60.158 191.3 64.442 L 191.3 80.445 L 203.574 80.445 C 251.029 80.445 289.5 119.937 289.5 168.653 L 301.773 168.653 C 308.552 168.653 314.049 174.294 314.049 181.252 L 314.049 219.056 C 314.049 226.016 308.552 231.658 301.773 231.658 L 289.5 231.658 L 289.5 244.259 C 289.5 258.176 278.507 269.461 264.95 269.461 L 93.1 269.461 C 79.54 269.461 68.551 258.176 68.551 244.259 L 68.551 231.658 L 56.275 231.658 C 49.495 231.658 44 226.016 44 219.056 L 44 181.252 C 44 174.294 49.495 168.653 56.275 168.653 L 68.551 168.653 C 68.551 119.937 107.02 80.445 154.475 80.445 L 166.749 80.445 L 166.749 64.442 C 159.384 60.158 154.475 51.968 154.475 42.644 C 154.475 28.724 165.465 17.441 179.024 17.441 M 123.788 156.051 C 106.839 156.051 93.1 170.155 93.1 187.554 C 93.1 204.952 106.839 219.056 123.788 219.056 C 140.735 219.056 154.475 204.952 154.475 187.554 C 154.475 170.155 140.735 156.051 123.788 156.051 M 234.261 156.051 C 217.313 156.051 203.574 170.155 203.574 187.554 C 203.574 204.952 217.313 219.056 234.261 219.056 C 251.211 219.056 264.95 204.952 264.95 187.554 C 264.95 170.155 251.211 156.051 234.261 156.051 Z" style="fill: rgb(51, 51, 51);"/>
  <circle cx="124.376" cy="185.526" r="29.221" style="fill: rgb(255, 255, 255);"/>
  <circle cx="233.844" cy="185.5" r="29.2" style="fill: rgb(255, 255, 255);"/>
  <g transform="matrix(1, 0, 0, 1, -287.45224, -8.763936)">
    <rect x="435.597" y="236.208" width="64.756" height="12.783" style="stroke: rgb(0, 0, 0); fill: rgb(255, 255, 255);"/>
    <line style="fill: rgb(216, 216, 216); stroke: rgb(0, 0, 0);" x1="451.754" y1="236.522" x2="451.758" y2="248.991"/>
    <line style="fill: rgb(216, 216, 216); stroke: rgb(0, 0, 0);" x1="467.819" y1="236.306" x2="467.823" y2="248.775"/>
    <line style="fill: rgb(216, 216, 216); stroke: rgb(0, 0, 0);" x1="483.848" y1="236.516" x2="483.852" y2="248.985"/>
    <rect x="435.597" y="248.985" width="64.756" height="12.783" style="stroke: rgb(0, 0, 0); fill: rgb(255, 255, 255);"/>
    <line style="fill: rgb(216, 216, 216); stroke: rgb(0, 0, 0);" x1="451.75" y1="249.509" x2="451.754" y2="261.978"/>
    <line style="fill: rgb(216, 216, 216); stroke: rgb(0, 0, 0);" x1="467.823" y1="249.299" x2="467.827" y2="261.768"/>
    <line style="fill: rgb(216, 216, 216); stroke: rgb(0, 0, 0);" x1="483.852" y1="249.509" x2="483.856" y2="261.978"/>
  </g>
  <rect x="232.17" y="173.025" width="15.579" height="15.579" style="stroke: rgb(0, 0, 0); fill: rgb(25, 25, 25);"/>
  <rect x="120.853" y="172.966" width="15.579" height="15.579" style="stroke: rgb(0, 0, 0); fill: rgb(25, 25, 25);"/>
  <g id="shirt" transform="matrix(1.321043, 0, 0, 1.321043, 447.38382, 123.0868)">
    <g transform="matrix(2.066889, 0, 0, 1.401398, -336.815002, 6.560487)" style="">
      <path id="hand_1_" style="fill: rgb(71, 71, 71);" d="M 26.28 62.35 C 24.1 60.73 22.06 58.84 20.2 56.69 C 19.25 55.64 17.37 53.91 15.51 54.07 C 15.13 54.1 14.64 54.23 14.17 54.58 C 12.9 52.94 9.97 48.54 8.51 44.66 C 7.92 43.43 6.89 43.23 6.18 43.43 C 4.92 43.8 4.11 45.4 4.3 47.17 C 4.92 53.07 9.54 60.26 11.27 61.95 L 11.24 61.97 C 14.64 66.11 14.96 72.15 14.96 72.21 C 14.98 72.68 15.33 73.07 15.79 73.15 L 25.3 74.74 C 25.36 74.75 25.41 74.75 25.47 74.75 C 25.89 74.75 26.28 74.48 26.41 74.07 C 27.04 72.22 28.5 67.82 28.52 66.82 C 28.58 63.9 26.73 62.62 26.28 62.35 Z"/>
      <path id="hand" style="fill: rgb(71, 71, 71);" d="M 122.08 43.45 C 121.37 43.23 120.31 43.43 119.67 44.76 C 118.24 48.56 115.31 52.95 114.04 54.59 C 113.57 54.24 113.08 54.12 112.7 54.08 C 110.84 53.92 108.96 55.65 108 56.71 C 106.15 58.84 104.11 60.74 101.93 62.35 C 101.48 62.62 99.63 63.89 99.69 66.83 C 99.71 67.83 101.17 72.24 101.8 74.08 C 101.94 74.49 102.32 74.76 102.74 74.76 C 102.8 74.76 102.85 74.76 102.91 74.75 L 112.42 73.16 C 112.93 73.08 113.29 72.62 113.25 72.1 C 113.25 72.05 112.91 66.71 116.96 61.99 L 116.93 61.97 C 118.66 60.29 123.13 52.94 123.91 47.2 C 124.15 45.45 123.36 43.83 122.08 43.45 Z"/>
      <path style="fill: url(#a-0);" d="M 115.74 111.06 C 115.88 118.16 110.16 124 103.05 124 C 101.65 124 100.33 123.71 99.15 123.16 C 99.11 123.14 99.07 123.13 99.04 123.11 C 98.45 122.85 97.9 122.53 97.39 122.14 C 96.68 121.61 96.04 120.98 95.5 120.28 C 94.48 118.97 93.81 117.39 93.59 115.69 L 93.57 115.7 L 93.56 115.71 L 93.56 124 L 34.58 124 L 34.58 115.59 L 34.54 115.57 C 34.54 115.59 34.54 115.6 34.53 115.61 L 34.53 115.62 C 34.1 118.85 32.03 121.62 29.14 122.98 L 29.13 122.98 C 27.9 123.56 26.54 123.88 25.08 123.88 C 17.98 123.88 12.25 118.05 12.39 110.94 L 12.5 70.39 C 12.52 69.59 13.15 68.94 13.95 68.89 L 26.76 68.14 L 26.87 68.14 C 27.65 68.14 28.32 68.73 28.41 69.52 L 31.09 88.49 C 35.27 84.91 41.04 82.28 48.97 82.28 C 51.59 82.28 76.56 82.4 79.17 82.4 C 87.1 82.4 92.87 85.03 97.05 88.6 L 99.72 69.63 C 99.82 68.84 100.49 68.25 101.27 68.25 C 101.31 68.25 101.34 68.26 101.38 68.26 L 114.19 69.01 C 114.99 69.06 115.61 69.71 115.64 70.51 L 115.74 111.06 Z"/>
      <path style="fill:#DA6727;" d="M 99.04 123.11 C 98.45 122.85 97.9 122.53 97.39 122.14 C 96.68 121.61 96.04 120.98 95.5 120.28 C 94.48 118.97 93.81 117.39 93.59 115.69 L 93.57 115.7 L 93.19 105.02 C 93.19 105.02 93.82 114.17 99.04 123.11 Z"/>
      <path style="fill:#DA6727;" d="M 34.91 105.02 L 34.53 115.61 L 34.53 115.62 C 34.1 118.85 32.03 121.62 29.14 122.98 C 34.28 114.08 34.91 105.02 34.91 105.02 Z"/>
    </g>
  </g>
</svg>