<?xml version="1.0" encoding="utf-8"?>
<svg viewBox="0 0 361 361" xmlns="http://www.w3.org/2000/svg" xmlns:xlink="http://www.w3.org/1999/xlink" xmlns:bx="https://boxy-svg.com">
  <defs>
    <linearGradient id="b" bx:pinned="true">
      <stop offset="0" stop-color="#fbb03b"/>
      <stop offset="1" stop-color="#f05a24"/>
    </linearGradient>
    <linearGradient id="a" bx:pinned="true">
      <stop offset="0" stop-color="#5f2583"/>
      <stop offset="1" stop-color="#ed1e79"/>
    </linearGradient>
    <linearGradient id="d" x1="973.216" x2="973.216" y1="100.665" y2="388.077" gradientTransform="matrix(.97413 -.22842 .31045 1.35247 -95.3 85.515)" gradientUnits="userSpaceOnUse" xlink:href="#a"/>
    <linearGradient id="c" x1="188.919" x2="188.919" y1="1.638" y2="361.638" gradientTransform="matrix(-1 .0016 -.00202 -1.25907 376.78 357.265)" gradientUnits="userSpaceOnUse" xlink:href="#b"/>
  </defs>
  <g transform="translate(-69.987 -69.986)">
    <path fill="url(#c)" d="M8.919 181.638a180 180 0 1 0 360 0 180 180 0 1 0-360 0Zm80 0a100 100 0 0 1 200 0 100 100 0 0 1-200 0Z" transform="translate(61.094 68.348)"/>
    <path fill="url(#d)" d="M958.327 100.665a175.433 175.433 0 0 1 0 287.412l-45.03-64.31a96.924 96.924 0 0 0 0-158.791Z" paint-order="stroke" transform="matrix(1.03173 0 0 1.0208 -634.597 .545)"/>
    <circle cx="250" cy="250" r="100" style="fill: rgb(51, 51, 51);"/>
  </g>
  <path style="stroke: rgb(0, 0, 0); fill: rgb(51, 51, 51); stroke-width: 0px;" d="M 141.482 217.444 H 219.17 A 15 15 0 0 1 234.17 232.444 V 263.693 A 20 20 0 0 1 214.17 283.693 H 141.482 A 15 15 0 0 1 126.482 268.693 V 232.444 A 15 15 0 0 1 141.482 217.444 Z" transform="matrix(-0.999985, -0.005495, 0.005495, -0.999985, 357.218872, 361.11554)" bx:shape="rect 126.482 217.444 107.688 66.249 15 15 20 15 1@5179be3d"/>
  <path d="M 178.985 90.673 C 192.543 90.673 203.535 101.956 203.535 115.876 C 203.535 125.2 198.626 133.39 191.261 137.674 L 191.261 153.677 L 203.535 153.677 C 250.99 153.677 289.461 193.169 289.461 241.885 L 301.734 241.885 C 308.513 241.885 314.01 247.526 314.01 254.484 L 314.01 292.288 C 314.01 299.248 308.513 304.89 301.734 304.89 L 289.461 304.89 L 289.461 317.491 C 289.461 331.408 278.468 342.693 264.911 342.693 L 93.061 342.693 C 79.501 342.693 68.512 331.408 68.512 317.491 L 68.512 304.89 L 56.236 304.89 C 49.456 304.89 43.961 299.248 43.961 292.288 L 43.961 254.484 C 43.961 247.526 49.456 241.885 56.236 241.885 L 68.512 241.885 C 68.512 193.169 106.981 153.677 154.436 153.677 L 166.71 153.677 L 166.71 137.674 C 159.345 133.39 154.436 125.2 154.436 115.876 C 154.436 101.956 165.426 90.673 178.985 90.673 M 123.749 229.283 C 106.8 229.283 93.061 243.387 93.061 260.786 C 93.061 278.184 106.8 292.288 123.749 292.288 C 140.696 292.288 154.436 278.184 154.436 260.786 C 154.436 243.387 140.696 229.283 123.749 229.283 M 234.222 229.283 C 217.274 229.283 203.535 243.387 203.535 260.786 C 203.535 278.184 217.274 292.288 234.222 292.288 C 251.172 292.288 264.911 278.184 264.911 260.786 C 264.911 243.387 251.172 229.283 234.222 229.283 Z" style="fill: rgb(51, 51, 51);" transform="matrix(-0.999985, -0.005495, 0.005495, -0.999985, 356.777633, 434.346236)"/>
  <circle cx="124.376" cy="185.526" r="29.221" style="fill: rgb(255, 255, 255);" transform="matrix(-0.999985, -0.005495, 0.005495, -0.999985, 357.21887, 361.115536)"/>
  <circle cx="233.844" cy="185.5" r="29.2" style="fill: rgb(255, 255, 255);" transform="matrix(-0.999985, -0.005495, 0.005495, -0.999985, 357.218868, 361.115536)"/>
  <g transform="matrix(-0.999985, -0.005495, 0.005495, -0.999985, 644.618591, 371.458984)">
    <rect x="435.597" y="236.208" width="64.756" height="12.783" style="stroke: rgb(0, 0, 0); fill: rgb(255, 255, 255);"/>
    <line style="fill: rgb(216, 216, 216); stroke: rgb(0, 0, 0);" x1="451.754" y1="236.522" x2="451.758" y2="248.991"/>
    <line style="fill: rgb(216, 216, 216); stroke: rgb(0, 0, 0);" x1="467.819" y1="236.306" x2="467.823" y2="248.775"/>
    <line style="fill: rgb(216, 216, 216); stroke: rgb(0, 0, 0);" x1="483.848" y1="236.516" x2="483.852" y2="248.985"/>
    <rect x="435.597" y="248.985" width="64.756" height="12.783" style="stroke: rgb(0, 0, 0); fill: rgb(255, 255, 255);"/>
    <line style="fill: rgb(216, 216, 216); stroke: rgb(0, 0, 0);" x1="451.75" y1="249.509" x2="451.754" y2="261.978"/>
    <line style="fill: rgb(216, 216, 216); stroke: rgb(0, 0, 0);" x1="467.823" y1="249.299" x2="467.827" y2="261.768"/>
    <line style="fill: rgb(216, 216, 216); stroke: rgb(0, 0, 0);" x1="483.852" y1="249.509" x2="483.856" y2="261.978"/>
  </g>
  <rect x="232.17" y="173.025" width="15.579" height="15.579" style="stroke: rgb(0, 0, 0); fill: rgb(25, 25, 25);" transform="matrix(-0.999985, -0.005495, 0.005495, -0.999985, 363.218872, 372.11554)"/>
  <rect x="120.853" y="172.966" width="15.579" height="15.579" style="stroke: rgb(0, 0, 0); fill: rgb(25, 25, 25);" transform="matrix(-0.999985, -0.005495, 0.005495, -0.999985, 363.218872, 372.11554)"/>
</svg>