<?xml version="1.0" encoding="utf-8"?>
<svg viewBox="0 0 361 361" xmlns="http://www.w3.org/2000/svg" xmlns:xlink="http://www.w3.org/1999/xlink" xmlns:bx="https://boxy-svg.com">
  <defs>
    <linearGradient id="b" bx:pinned="true">
      <stop offset="0" stop-color="#fbb03b"/>
      <stop offset="1" stop-color="#f05a24"/>
    </linearGradient>
    <linearGradient id="a" bx:pinned="true">
      <stop offset="0" stop-color="#5f2583"/>
      <stop offset="1" stop-color="#ed1e79"/>
    </linearGradient>
    <linearGradient id="d" x1="973.216" x2="973.216" y1="100.665" y2="388.077" gradientTransform="matrix(.97413 -.22842 .31045 1.35247 -95.3 85.515)" gradientUnits="userSpaceOnUse" xlink:href="#a"/>
    <linearGradient id="c" x1="188.919" x2="188.919" y1="1.638" y2="361.638" gradientTransform="matrix(-1 .0016 -.00202 -1.25907 376.78 357.265)" gradientUnits="userSpaceOnUse" xlink:href="#b"/>
  </defs>
  <g transform="translate(-69.987 -69.986)">
    <path fill="url(#c)" d="M8.919 181.638a180 180 0 1 0 360 0 180 180 0 1 0-360 0Zm80 0a100 100 0 0 1 200 0 100 100 0 0 1-200 0Z" transform="translate(61.094 68.348)"/>
    <path fill="url(#d)" d="M958.327 100.665a175.433 175.433 0 0 1 0 287.412l-45.03-64.31a96.924 96.924 0 0 0 0-158.791Z" paint-order="stroke" transform="matrix(1.03173 0 0 1.0208 -634.597 .545)"/>
    <circle cx="250" cy="250" r="100" style="fill: rgb(51, 51, 51);"/>
  </g>
  <path style="stroke: rgb(0, 0, 0); fill: rgb(51, 51, 51); stroke-width: 0px;" d="M 141.482 217.444 H 219.17 A 15 15 0 0 1 234.17 232.444 V 263.693 A 20 20 0 0 1 214.17 283.693 H 141.482 A 15 15 0 0 1 126.482 268.693 V 232.444 A 15 15 0 0 1 141.482 217.444 Z" bx:shape="rect 126.482 217.444 107.688 66.249 15 15 20 15 1@5179be3d"/>
  <path d="M 179.024 17.441 C 192.582 17.441 203.574 28.724 203.574 42.644 C 203.574 51.968 198.665 60.158 191.3 64.442 L 191.3 80.445 L 203.574 80.445 C 251.029 80.445 289.5 119.937 289.5 168.653 L 301.773 168.653 C 308.552 168.653 314.049 174.294 314.049 181.252 L 314.049 219.056 C 314.049 226.016 308.552 231.658 301.773 231.658 L 289.5 231.658 L 289.5 244.259 C 289.5 258.176 278.507 269.461 264.95 269.461 L 93.1 269.461 C 79.54 269.461 68.551 258.176 68.551 244.259 L 68.551 231.658 L 56.275 231.658 C 49.495 231.658 44 226.016 44 219.056 L 44 181.252 C 44 174.294 49.495 168.653 56.275 168.653 L 68.551 168.653 C 68.551 119.937 107.02 80.445 154.475 80.445 L 166.749 80.445 L 166.749 64.442 C 159.384 60.158 154.475 51.968 154.475 42.644 C 154.475 28.724 165.465 17.441 179.024 17.441 M 123.788 156.051 C 106.839 156.051 93.1 170.155 93.1 187.554 C 93.1 204.952 106.839 219.056 123.788 219.056 C 140.735 219.056 154.475 204.952 154.475 187.554 C 154.475 170.155 140.735 156.051 123.788 156.051 M 234.261 156.051 C 217.313 156.051 203.574 170.155 203.574 187.554 C 203.574 204.952 217.313 219.056 234.261 219.056 C 251.211 219.056 264.95 204.952 264.95 187.554 C 264.95 170.155 251.211 156.051 234.261 156.051 Z" style="fill: rgb(51, 51, 51);"/>
  <circle cx="124.376" cy="185.526" r="29.221" style="fill: rgb(255, 255, 255);"/>
  <circle cx="233.844" cy="185.5" r="29.2" style="fill: rgb(255, 255, 255);"/>
  <rect x="148.597" y="225.444" width="64.756" height="25.6" style="stroke: rgb(0, 0, 0); fill: rgb(255, 255, 255);"/>
  <path style="stroke: rgb(250, 2, 2); stroke-width: 0px; fill: rgb(246, 2, 2);" d="M 103.47149999999999 160.57383333333334 C 103.36500000000001 164.84766666666667 103.152 173.39533333333335 106.11666666666666 180.8596666666667 C 109.08133333333332 188.32399999999998 115.22366666666666 194.705 121.71383333333334 197.90233333333333 C 128.20399999999998 201.09966666666665 135.042 201.11333333333334 138.73416666666665 198.80466666666666 C 142.42633333333333 196.496 142.97266666666667 191.865 141.62166666666667 187.54183333333336 C 140.27066666666667 183.21866666666665 137.02233333333334 179.20333333333335 132.61483333333334 177.34783333333334 C 128.20733333333334 175.49233333333333 122.64066666666668 175.79666666666665 118.08299999999998 175.13250000000002 C 113.52533333333334 174.46833333333333 109.97666666666667 172.8356666666667 107.72733333333332 169.53549999999998 C 105.478 166.23533333333333 104.528 161.26766666666666 104.053 158.78383333333332 C 103.57800000000002 156.3 103.57800000000002 156.3 103.57799999999999 156.29999999999998 C 103.57800000000002 156.3 103.57800000000002 156.3 103.47149999999999 160.57383333333334" bx:d="M 103.578 156.3 U 102.939 181.943 U 121.366 201.086 U 141.88 201.127 U 143.519 187.234 U 133.774 175.188 U 117.074 176.101 U 106.428 171.203 U 103.578 156.3 U 103.578 156.3 Z 1@c8f4d0e3"/>
  <path style="stroke: rgb(250, 2, 2); stroke-width: 0px; fill: rgb(246, 2, 2);" d="M 215.2205 194.15916666666666 C 215.114 189.8853333333333 214.90099999999998 181.33766666666665 217.86566666666667 173.87333333333333 C 220.83033333333333 166.409 226.97266666666667 160.028 233.46283333333335 156.83066666666664 C 239.953 153.63333333333333 246.79100000000003 153.61966666666666 250.48316666666665 155.9283333333333 C 254.17533333333333 158.237 254.72166666666666 162.868 253.37066666666666 167.19116666666665 C 252.01966666666667 171.51433333333333 248.77133333333333 175.52966666666666 244.36383333333333 177.38516666666666 C 239.95633333333333 179.24066666666667 234.38966666666667 178.93633333333332 229.832 179.6005 C 225.27433333333332 180.26466666666667 221.72566666666668 181.89733333333334 219.47633333333332 185.1975 C 217.227 188.49766666666665 216.27700000000002 193.46533333333332 215.802 195.94916666666666 C 215.327 198.433 215.327 198.433 215.327 198.433 C 215.327 198.433 215.327 198.433 215.2205 194.15916666666666" transform="matrix(-1, 0, 0, -1, 469.213562, 352.733398)" bx:d="M 215.327 198.433 U 214.688 172.79 U 233.115 153.647 U 253.629 153.606 U 255.268 167.499 U 245.523 179.545 U 228.823 178.632 U 218.177 183.53 U 215.327 198.433 U 215.327 198.433 Z 1@ddcdf658"/>
  <path style="stroke: rgb(0, 0, 0); fill: none;" d="M 149.017 225.529 L 167.46 249.884 L 180.136 225.739 L 197.357 249.884 L 213.086 225.667"/>
  <polygon style="stroke: rgb(0, 0, 0); fill: rgb(246, 2, 2); stroke-width: 0px;" points="163.642 244.692 167.554 249.884 170.457 244.317"/>
  <polygon style="stroke: rgb(0, 0, 0); fill: rgb(246, 2, 2); stroke-width: 0px;" points="193.722 244.692 197.634 249.884 200.537 244.317"/>
  <polygon style="stroke: rgb(0, 0, 0); fill: rgb(246, 2, 2); stroke-width: 0px;" points="176.656 231.097 180.568 225.905 183.471 231.472" transform="matrix(0.989631, -0.143633, 0.143633, 0.989631, -30.980137, 28.234323)"/>
</svg>