<?xml version="1.0" encoding="utf-8"?>
<svg viewBox="0 0 500 500" xmlns="http://www.w3.org/2000/svg" xmlns:xlink="http://www.w3.org/1999/xlink" xmlns:bx="https://boxy-svg.com">
  <defs>
    <linearGradient gradientUnits="userSpaceOnUse" x1="230.87" y1="58.869" x2="230.87" y2="385.502" id="gradient-1" gradientTransform="matrix(1.483987, 0, 0, 1.53077, -92.608261, -90.114895)">
      <stop offset="0" style="stop-color: #bada55"/>
      <stop offset="1" style="stop-color: #758d29"/>
    </linearGradient>
    <linearGradient id="gradient-2" bx:pinned="true"/>
    <linearGradient id="gradient-5" bx:pinned="true">
      <stop style="stop-color: rgb(251, 176, 59);" offset="0"/>
      <stop style="stop-color: rgb(240, 90, 36);" offset="1"/>
    </linearGradient>
    <linearGradient id="gradient-6" bx:pinned="true">
      <stop style="stop-color: rgb(95, 37, 131);" offset="0"/>
      <stop style="stop-color: rgb(237, 30, 121);" offset="1"/>
    </linearGradient>
    <linearGradient gradientUnits="userSpaceOnUse" x1="250" y1="0" x2="250" y2="500" id="gradient-0">
      <stop offset="0" style="stop-color: rgba(40, 170, 226, 1)"/>
      <stop offset="1" style="stop-color: rgba(20, 107, 145, 1)"/>
    </linearGradient>
    <linearGradient id="gradient-5-1" gradientUnits="userSpaceOnUse" x1="974.005" y1="99.877" x2="974.005" y2="388.865" gradientTransform="matrix(-0.999851, -0.016909, 0.017656, -1.110698, 1932.460787, 509.602999)" xlink:href="#gradient-5"/>
    <linearGradient id="gradient-6-0" gradientUnits="userSpaceOnUse" x1="188.919" y1="1.638" x2="188.919" y2="361.638" gradientTransform="matrix(-0.465435, -0.885082, 1.172947, -0.616813, 14.605768, 499.208833)" xlink:href="#gradient-6"/>
  </defs>
  <rect style="stroke: url(#gradient-1); filter: none; stroke-width: 0px; fill-rule: nonzero; fill: url(#gradient-0);" x="0" y="0" width="500" height="500" rx="60" ry="60"/>
  <path d="M 188.919 181.638 m -180 0 a 180 180 0 1 0 360 0 a 180 180 0 1 0 -360 0 Z M 188.919 181.638 m -100 0 a 100 100 0 0 1 200 0 a 100 100 0 0 1 -200 0 Z" style="fill: url(#gradient-6-0);" transform="matrix(-0.701584, 0.712586, -0.712586, -0.701584, 511.975239, 242.812957)" bx:shape="ring 188.919 181.638 100 100 180 180 1@55492482"/>
  <path style="stroke-width: 0px; paint-order: stroke; fill: url(#gradient-5-1);" transform="matrix(1.031731, 0.000001, 0, 1.020801, -634.597412, 0.544884)" d="M 958.327234958 100.664699414 A 175.433 175.433 0 0 1 958.327234958 388.077300586 L 913.296322517 323.766492741 A 96.924 96.924 0 0 0 913.296322517 164.975507259 Z" bx:shape="pie 857.703 244.371 96.924 175.433 35 145 1@99003c38"/>
  <circle style="fill: rgb(25, 25, 25);" cx="250" cy="250" r="100"/>
</svg>