<?xml version="1.0" encoding="utf-8"?>
<svg viewBox="0 0 361 361" xmlns="http://www.w3.org/2000/svg" xmlns:xlink="http://www.w3.org/1999/xlink" xmlns:bx="https://boxy-svg.com">
  <defs>
    <linearGradient id="b" bx:pinned="true">
      <stop offset="0" stop-color="#fbb03b"/>
      <stop offset="1" stop-color="#f05a24"/>
    </linearGradient>
    <linearGradient id="a" bx:pinned="true">
      <stop offset="0" stop-color="#5f2583"/>
      <stop offset="1" stop-color="#ed1e79"/>
    </linearGradient>
    <linearGradient id="d" x1="973.216" x2="973.216" y1="100.665" y2="388.077" gradientTransform="matrix(.97413 -.22842 .31045 1.35247 -95.3 85.515)" gradientUnits="userSpaceOnUse" xlink:href="#a"/>
    <linearGradient id="c" x1="188.919" x2="188.919" y1="1.638" y2="361.638" gradientTransform="matrix(-1 .0016 -.00202 -1.25907 376.78 357.265)" gradientUnits="userSpaceOnUse" xlink:href="#b"/>
  </defs>
  <g transform="translate(-69.987 -69.986)">
    <path fill="url(#c)" d="M8.919 181.638a180 180 0 1 0 360 0 180 180 0 1 0-360 0Zm80 0a100 100 0 0 1 200 0 100 100 0 0 1-200 0Z" transform="translate(61.094 68.348)"/>
    <path fill="url(#d)" d="M958.327 100.665a175.433 175.433 0 0 1 0 287.412l-45.03-64.31a96.924 96.924 0 0 0 0-158.791Z" paint-order="stroke" transform="matrix(1.03173 0 0 1.0208 -634.597 .545)"/>
    <circle cx="250" cy="250" r="100" style="fill: rgb(51, 51, 51);"/>
  </g>
  <path fill="#fff" d="M 253.002 139.554 C 247.743 141.885 241.084 144.074 235.116 144.801 C 241.185 141.2 250.813 133.7 253.002 126.915 C 247.332 130.248 237.077 133.807 230.388 135.094 C 225.046 129.431 217.427 126.915 208.984 126.915 C 192.768 126.915 181.458 140.658 181.458 156.725 L 181.458 168.649 C 157.61 168.649 134.359 150.483 119.889 132.877 C 117.343 137.175 115.913 142.207 115.913 147.525 C 115.913 158.37 125.875 169.376 133.763 174.61 C 128.951 174.461 119.841 170.789 115.877 168.649 C 115.877 168.744 115.877 168.863 115.877 168.988 C 115.877 183.1 125.779 192.681 139.2 195.352 C 136.749 196.026 133.763 198.459 122.268 198.459 C 126 209.995 144.762 216.094 157.61 216.344 C 147.558 224.137 129.637 228.269 115.877 228.269 C 113.498 228.269 112.21 228.4 109.915 228.131 C 122.899 236.359 141.036 240.192 157.61 240.192 C 211.608 240.192 241.078 198.947 241.078 160.481 C 241.078 159.217 241.036 154.984 240.97 153.744 C 246.742 149.677 249.079 145.421 253.002 139.554" style=""/>
</svg>