<svg version="1.1" xmlns="http://www.w3.org/2000/svg" xmlns:xlink="http://www.w3.org/1999/xlink" x="0px" y="0px" viewBox="0 0 1000 1000" enable-background="new 0 0 1000 1000" height="24" xml:space="preserve">
<g><g transform="translate(0.000000,511.000000) scale(0.100000,-0.100000)"><path d="M6860.3,2152.5V474.4l-667.4-3.8l-669.3-5.8l1089.3-2004.1c598.4-1102.7,1095.1-2002.2,1100.8-2000.3c7.7,1.9,502.5,903.3,1100.8,2004.1L9900,464.8l-665.5,5.8l-667.4,3.8v1678.1v1678.1h-853.4h-853.4V2152.5z"/><path d="M1191.2,1765.1L100-244.8l665.5-5.8l667.4-3.8v-1678.1v-1678.1h853.4h853.4v1668.5v1668.5h659.7c364.4,0,665.5,5.8,669.3,15.3c5.8,11.5-2146,3991-2174.8,4021.6C2286.3,3769.2,1791.5,2869.7,1191.2,1765.1z"/></g></g>
</svg>